<?xml version="1.0" encoding="UTF-8"?><svg xmlns="http://www.w3.org/2000/svg" width="555.522" height="1270.968" xmlns:xlink="http://www.w3.org/1999/xlink" viewBox="0 0 555.522 1270.968"><defs><style>.e{letter-spacing:.015em;}.f{letter-spacing:.03em;}.g{letter-spacing:.089em;}.h{letter-spacing:.047em;}.i{letter-spacing:.055em;}.j{letter-spacing:.021em;}.k{letter-spacing:.003em;}.l{letter-spacing:.033em;}.m{letter-spacing:-.032em;}.n{letter-spacing:-.117em;}.o{letter-spacing:.023em;}.p{letter-spacing:.015em;}.q{letter-spacing:.036em;}.r{letter-spacing:-.026em;}.s{fill:#2e2f2f;}.t,.u,.v,.w{fill:#fff;}.x{letter-spacing:.045em;}.y{letter-spacing:.081em;}.a`{letter-spacing:-.066em;}.aa{letter-spacing:-.123em;}.ab{letter-spacing:.005em;}.ac{letter-spacing:.063em;}.ad{letter-spacing:-.027em;}.ae{letter-spacing:-.031em;}.af{letter-spacing:-.018em;}.ag{letter-spacing:.089em;}.ah{letter-spacing:.051em;}.u,.v,.ai,.aj,.ak,.al,.w{stroke-linecap:round;}.u,.ai,.aj{stroke:#2e2f2f;stroke-linejoin:round;}.u,.aj{stroke-width:.781px;}.am{letter-spacing:-.079em;}.an{letter-spacing:.076em;}.ao{letter-spacing:-.085em;}.ap{letter-spacing:.052em;}.aq{letter-spacing:.046em;}.ar{letter-spacing:-.096em;}.as{letter-spacing:0em;}.at{letter-spacing:.004em;}.au{letter-spacing:-.111em;}.av{letter-spacing:.022em;}.aw{letter-spacing:-.03em;}.ax{letter-spacing:-.11em;}.ay{letter-spacing:.071em;}.b`{letter-spacing:.037em;}.ba{letter-spacing:.046em;}.bb{letter-spacing:-.44em;}.bc{letter-spacing:.082em;}.bd,.be,.bf,.bg,.bh{fill:#221714;}.bi{letter-spacing:-.035em;}.bj{letter-spacing:-.099em;}.bk{letter-spacing:.043em;}.bl{letter-spacing:.086em;}.bm{letter-spacing:.039em;}.bn{letter-spacing:.048em;}.bo{letter-spacing:.017em;}.bp{letter-spacing:.035em;}.bq{letter-spacing:-.131em;}.br{letter-spacing:.069em;}.bs{letter-spacing:.038em;}.bt{letter-spacing:-.002em;}.bu{letter-spacing:-.121em;}.bv{letter-spacing:.043em;}.v,.bw,.ak,.al,.w,.bx{stroke-miterlimit:10;}.v,.ak{stroke-width:.6px;}.v,.ak,.al,.w{stroke:#221714;}.by{letter-spacing:.068em;}.c`{letter-spacing:.049em;}.ca{letter-spacing:.06em;}.cb{letter-spacing:.007em;}.cc{letter-spacing:.08em;}.be,.bf{font-size:17.635px;}.be,.bf,.bg,.bh{font-family:NotoSerifJP-Medium-90ms-RKSJ-H, Noto Serif JP;}.be,.bf,.bh{glyph-orientation-vertical:0deg;text-orientation:upright;writing-mode:tb;}.cd{letter-spacing:.043em;}.ce{letter-spacing:-.034em;}.cf{letter-spacing:.05em;}.cg{letter-spacing:.042em;}.bf{letter-spacing:.06em;}.ch{letter-spacing:-.033em;}.ci{letter-spacing:-.192em;}.cj{letter-spacing:.064em;}.ck{letter-spacing:-.017em;}.cl{letter-spacing:.068em;}.cm{letter-spacing:-.069em;}.cn{letter-spacing:.034em;}.co{letter-spacing:.06em;}.cp{letter-spacing:-.048em;}.cq{letter-spacing:.056em;}.cr{letter-spacing:.018em;}.cs{letter-spacing:.027em;}.ct{letter-spacing:-.031em;}.cu{letter-spacing:-.013em;}.cv{letter-spacing:.056em;}.cw{letter-spacing:.047em;}.cx{letter-spacing:.073em;}.cy{letter-spacing:-.035em;}.d`{letter-spacing:.071em;}.da{letter-spacing:.079em;}.db{letter-spacing:.073em;}.dc{letter-spacing:-.117em;}.dd{letter-spacing:.012em;}.de{letter-spacing:.017em;}.df{letter-spacing:.055em;}.dg{letter-spacing:.015em;}.ai{stroke-width:.781px;}.ai,.aj,.dh,.bw,.ak,.al,.bx{fill:none;}.di{clip-path:url(#d);}.dj{letter-spacing:-.046em;}.dk{letter-spacing:.009em;}.dl{letter-spacing:-.106em;}.dm{letter-spacing:-.062em;}.dn{letter-spacing:.048em;}.do{letter-spacing:-.44em;}.dp{letter-spacing:-.055em;}.dq{letter-spacing:-.022em;}.bg{font-size:12.345px;}.dr{letter-spacing:-.053em;}.ds{letter-spacing:.013em;}.dt{letter-spacing:-.061em;}.du{letter-spacing:.067em;}.dv{letter-spacing:-.054em;}.bw{stroke:#231815;stroke-width:.5px;}.dw{letter-spacing:-.033em;}.dx{letter-spacing:-.04em;}.dy{letter-spacing:-.029em;}.e`{letter-spacing:-.013em;}.ea{letter-spacing:.022em;}.eb{letter-spacing:.041em;}.ec{letter-spacing:-.031em;}.ed{letter-spacing:.021em;}.ee{letter-spacing:.002em;}.ef{letter-spacing:.036em;}.bh{font-size:23.448px;letter-spacing:.06em;}.eg{letter-spacing:-.054em;}.eh{letter-spacing:-.083em;}.ei{letter-spacing:.04em;}.ej{letter-spacing:-.106em;}.ek{letter-spacing:-.17em;}.el{letter-spacing:-.011em;}.al,.w{stroke-width:.573px;}.em{letter-spacing:.015em;}.bx{stroke:#eeedec;}.en{letter-spacing:-.084em;}.eo{letter-spacing:-.085em;}.ep{fill:#eeedec;}.eq{letter-spacing:-.078em;}.er{letter-spacing:.067em;}.es{letter-spacing:.044em;}.et{letter-spacing:-.053em;}.eu{letter-spacing:-.031em;}.ev{letter-spacing:-.2em;}.ew{letter-spacing:-.053em;}.ex{letter-spacing:-.101em;}.ey{letter-spacing:-.007em;}.f`{letter-spacing:.015em;}</style><clipPath id="d"><path class="dh" d="M80.514,75.463H14.818c-1.122,0-2.032-.91-2.032-2.032V5.109c0-1.122,.91-2.032,2.032-2.032H102.285c1.122,0,2.032,.91,2.032,2.032V73.431c0,1.122-.91,2.032-2.032,2.032h-7.712"/></clipPath></defs><g id="a"/><g id="b"><g id="c"><g><g><line class="bx" x1="165.677" y1="98.401" x2="373.712" y2="275.515"/><line class="bx" x1="165.677" y1="452.629" x2="373.712" y2="275.515"/><line class="bx" x1="165.677" y1="452.599" x2="373.712" y2="629.713"/><line class="bx" x1="165.677" y1="806.827" x2="373.712" y2="629.713"/><line class="bx" x1="165.677" y1="806.797" x2="373.712" y2="983.911"/><line class="bx" x1="165.677" y1="1161.026" x2="373.712" y2="983.911"/></g><circle class="ep" cx="165.677" cy="98.401" r="98.401"/><text class="bh" transform="translate(165.679 21.426)"><tspan x="0" y="0">ご依頼</tspan></text><circle class="ep" cx="165.677" cy="452.63" r="98.401"/><text class="bf" transform="translate(165.679 375.655)"><tspan x="0" y="0">ご発送</tspan></text><circle class="ep" cx="165.677" cy="806.86" r="98.401"/><text class="bf" transform="translate(165.679 729.886)"><tspan x="0" y="0">お支払い</tspan></text><circle class="ep" cx="373.712" cy="275.515" r="98.401"/><text class="bf" transform="translate(387.671 198.54)"><tspan x="0" y="0">プランと</tspan><tspan x="-32.182" y="0">お見積り</tspan></text><circle class="ep" cx="373.712" cy="629.744" r="98.401"/><text class="be" transform="translate(387.671 552.769)"><tspan x="0" y="0">オンライン</tspan><tspan x="-32.182" y="0">ミー</tspan><tspan class="ev" x="-32.182" y="35.27">ティ</tspan><tspan x="-32.182" y="63.485">ング</tspan></text><circle class="ep" cx="373.712" cy="983.974" r="98.401"/><text class="bh" transform="translate(373.714 906.999)"><tspan x="0" y="0">修復</tspan></text><circle class="ep" cx="165.677" cy="1161.026" r="98.401"/><text class="bf" transform="translate(179.636 1084.051)"><tspan x="0" y="0">ご返送</tspan><tspan x="-32.182" y="0">受取り</tspan></text><text class="bg" transform="translate(47.761 137.209)"><tspan class="bs" x="0" y="0">お</tspan><tspan class="cs" x="12.817" y="0">問</tspan><tspan class="es" x="25.493" y="0">い</tspan><tspan class="x" x="38.379" y="0">合</tspan><tspan class="bn" x="51.276" y="0">わ</tspan><tspan class="eu" x="64.211" y="0">せ</tspan><tspan class="bu" x="76.169" y="0">フ</tspan><tspan class="dy" x="87.017" y="0">ォ</tspan><tspan class="eq" x="99" y="0">ー</tspan><tspan class="cp" x="110.384" y="0">ム</tspan><tspan class="bq" x="122.139" y="0">よ</tspan><tspan class="au" x="132.862" y="0">り</tspan><tspan class="cu" x="143.84" y="0">ご</tspan><tspan class="g" x="156.027" y="0">依</tspan><tspan class="cm" x="169.469" y="0">頼</tspan><tspan class="ar" x="180.958" y="0">く</tspan><tspan class="cb" x="192.113" y="0">だ</tspan><tspan class="r" x="204.547" y="0">さ</tspan><tspan class="ca" x="216.573" y="0">い</tspan><tspan class="bb" x="229.659" y="0">。</tspan><tspan class="br" x="12.443" y="19.398">必</tspan><tspan class="em" x="25.644" y="19.398">要</tspan><tspan class="j" x="38.171" y="19.398">な</tspan><tspan class="b`" x="50.771" y="19.398">際</tspan><tspan class="co" x="63.57" y="19.398">は</tspan><tspan class="bb" x="76.655" y="19.398">、</tspan><tspan class="e`" x="83.568" y="19.398">ご</tspan><tspan class="ag" x="95.757" y="19.398">依</tspan><tspan class="bm" x="109.197" y="19.398">頼</tspan><tspan class="cw" x="122.026" y="19.398">内</tspan><tspan class="bc" x="134.949" y="19.398">容</tspan><tspan class="cx" x="148.304" y="19.398">確</tspan><tspan class="av" x="161.553" y="19.398">認</tspan><tspan class="el" x="174.173" y="19.398">の</tspan><tspan class="ck" x="186.379" y="19.398">た</tspan><tspan class="f`" x="198.511" y="19.398">め</tspan><tspan class="co" x="211.043" y="19.398">の</tspan><tspan class="am" x="16.03" y="38.797">オ</tspan><tspan class="ae" x="27.402" y="38.797">ン</tspan><tspan class="ej" x="39.367" y="38.797">ラ</tspan><tspan class="ax" x="50.405" y="38.797">イ</tspan><tspan class="bj" x="61.395" y="38.797">ン</tspan><tspan class="n" x="72.52" y="38.797">ミ</tspan><tspan class="aw" x="83.422" y="38.797">ー</tspan><tspan class="ek" x="95.393" y="38.797">テ</tspan><tspan class="ci" x="105.634" y="38.797">ィ</tspan><tspan class="en" x="115.604" y="38.797">ン</tspan><tspan class="ei" x="126.907" y="38.797">グ</tspan><tspan class="dk" x="139.743" y="38.797">を</tspan><tspan class="cx" x="152.203" y="38.797">設</tspan><tspan class="eg" x="165.452" y="38.797">定</tspan><tspan class="eo" x="177.127" y="38.797">し</tspan><tspan class="af" x="188.418" y="38.797">ま</tspan><tspan class="ca" x="200.543" y="38.797">す</tspan><tspan class="bb" x="213.629" y="38.797">。</tspan></text><text class="bg" transform="translate(325.574 314.324)"><tspan class="ef" x="0" y="0">修</tspan><tspan class="dd" x="12.793" y="0">復</tspan><tspan class="dx" x="25.289" y="0">プ</tspan><tspan class="aa" x="37.143" y="0">ラ</tspan><tspan class="cr" x="47.966" y="0">ン</tspan><tspan class="ew" x="60.536" y="0">およ</tspan><tspan class="ca" x="83.928" y="0">び</tspan><tspan class="dq" x="11.002" y="19.398">お</tspan><tspan class="by" x="23.072" y="19.398">見</tspan><tspan class="dr" x="36.254" y="19.398">積</tspan><tspan class="m" x="47.941" y="19.398">り</tspan><tspan class="cq" x="59.894" y="19.398">送</tspan><tspan class="co" x="72.927" y="19.398">付</tspan></text><text class="bg" transform="translate(120.776 491.438)"><tspan class="cu" x="0" y="0">ご</tspan><tspan class="g" x="12.188" y="0">依</tspan><tspan class="bk" x="25.629" y="0">頼</tspan><tspan class="eb" x="38.502" y="0">品</tspan><tspan class="cw" x="51.356" y="0">の</tspan><tspan class="er" x="64.279" y="0">発</tspan><tspan class="ca" x="77.454" y="0">送</tspan></text><text class="bg" transform="translate(310.429 668.554)"><tspan class="ee" x="0" y="0">修</tspan><tspan class="ei" x="12.367" y="0">正</tspan><tspan class="h" x="25.203" y="0">内</tspan><tspan class="bc" x="38.125" y="0">容</tspan><tspan class="db" x="51.479" y="0">確</tspan><tspan class="av" x="64.729" y="0">認</tspan><tspan class="el" x="77.35" y="0">の</tspan><tspan class="ck" x="89.556" y="0">た</tspan><tspan class="f`" x="101.688" y="0">め</tspan><tspan class="co" x="114.22" y="0">の</tspan><tspan class="am" x="-8.271" y="19.398">オ</tspan><tspan class="ae" x="3.102" y="19.398">ン</tspan><tspan class="ej" x="15.066" y="19.398">ラ</tspan><tspan class="ax" x="26.104" y="19.398">イ</tspan><tspan class="bj" x="37.094" y="19.398">ン</tspan><tspan class="n" x="48.219" y="19.398">ミ</tspan><tspan class="aw" x="59.121" y="19.398">ー</tspan><tspan class="ek" x="71.092" y="19.398">テ</tspan><tspan class="ci" x="81.333" y="19.398">ィ</tspan><tspan class="en" x="91.304" y="19.398">ン</tspan><tspan class="ah" x="102.606" y="19.398">グ</tspan><tspan class="co" x="115.578" y="19.398">後</tspan><tspan class="do" x="128.663" y="19.398">、</tspan><tspan class="dq" x="-15.189" y="38.797">お</tspan><tspan class="by" x="-3.119" y="38.797">見</tspan><tspan class="dr" x="10.062" y="38.797">積</tspan><tspan class="am" x="21.75" y="38.797">り</tspan><tspan class="ex" x="33.122" y="38.797">を</tspan><tspan class="ba" x="44.222" y="38.797">ご</tspan><tspan class="bv" x="57.139" y="38.797">案</tspan><tspan class="bp" x="70.018" y="38.797">内</tspan><tspan class="cy" x="82.792" y="38.797">い</tspan><tspan class="eo" x="94.701" y="38.797">たし</tspan><tspan class="af" x="117.284" y="38.797">ま</tspan><tspan class="ca" x="129.409" y="38.797">す</tspan></text><text class="bg" transform="translate(66.051 845.668)"><tspan class="dq" x="0" y="0">お</tspan><tspan class="by" x="12.07" y="0">見</tspan><tspan class="dr" x="25.252" y="0">積</tspan><tspan class="am" x="36.939" y="0">り</tspan><tspan class="ex" x="48.312" y="0">を</tspan><tspan class="as" x="59.411" y="0">ご</tspan><tspan class="ac" x="71.766" y="0">承</tspan><tspan class="cn" x="84.886" y="0">認</tspan><tspan class="cy" x="97.654" y="0">い</tspan><tspan class="bo" x="109.563" y="0">た</tspan><tspan class="at" x="122.121" y="0">だ</tspan><tspan class="eh" x="134.512" y="0">き</tspan><tspan class="dc" x="145.828" y="0">ま</tspan><tspan class="et" x="156.731" y="0">し</tspan><tspan class="dm" x="168.418" y="0">た</tspan><tspan class="ca" x="179.993" y="0">ら</tspan><tspan class="bb" x="193.079" y="0">、</tspan><tspan class="cj" x="18.29" y="19.398">指</tspan><tspan class="o" x="31.422" y="19.398">定</tspan><tspan class="e" x="44.049" y="19.398">口</tspan><tspan class="df" x="56.577" y="19.398">座</tspan><tspan class="dn" x="69.599" y="19.398">へ</tspan><tspan class="ap" x="82.539" y="19.398">お</tspan><tspan class="bl" x="95.523" y="19.398">振</tspan><tspan class="i" x="108.934" y="19.398">込</tspan><tspan class="dl" x="121.961" y="19.398">み</tspan><tspan class="ar" x="133" y="19.398">く</tspan><tspan class="cb" x="144.155" y="19.398">だ</tspan><tspan class="r" x="156.589" y="19.398">さ</tspan><tspan class="ca" x="168.615" y="19.398">い</tspan></text><text class="bg" transform="translate(291.781 1022.782)"><tspan class="d`" x="0" y="0">伝</tspan><tspan class="cc" x="13.225" y="0">統</tspan><tspan class="cv" x="26.561" y="0">工</tspan><tspan class="cr" x="39.601" y="0">芸</tspan><tspan class="ds" x="52.171" y="0">士</tspan><tspan class="a`" x="64.68" y="0">た</tspan><tspan class="ad" x="76.213" y="0">ち</tspan><tspan class="cf" x="88.221" y="0">が</tspan><tspan class="f" x="101.186" y="0">心</tspan><tspan class="q" x="113.904" y="0">を</tspan><tspan class="cg" x="126.691" y="0">込</tspan><tspan class="ec" x="139.559" y="0">め</tspan><tspan class="ca" x="151.518" y="0">て</tspan><tspan class="an" x="14.094" y="19.398">修</tspan><tspan class="bt" x="27.374" y="19.398">理</tspan><tspan class="ch" x="39.691" y="19.398">さ</tspan><tspan class="cd" x="51.625" y="19.398">せ</tspan><tspan class="ea" x="64.505" y="19.398">て</tspan><tspan class="cy" x="77.123" y="19.398">い</tspan><tspan class="de" x="89.032" y="19.398">た</tspan><tspan class="at" x="101.591" y="19.398">だ</tspan><tspan class="eh" x="113.981" y="19.398">き</tspan><tspan class="af" x="125.298" y="19.398">ま</tspan><tspan class="co" x="137.423" y="19.398">す</tspan></text><text class="bg" transform="translate(57.764 1199.835)"><tspan class="cu" x="0" y="0">ご</tspan><tspan class="g" x="12.188" y="0">依</tspan><tspan class="bk" x="25.629" y="0">頼</tspan><tspan class="eb" x="38.502" y="0">品</tspan><tspan class="c`" x="51.356" y="0">の</tspan><tspan class="an" x="64.31" y="0">修</tspan><tspan class="cl" x="77.59" y="0">理</tspan><tspan class="aq" x="90.778" y="0">が</tspan><tspan class="ct" x="103.694" y="0">完</tspan><tspan class="ey" x="115.654" y="0">了</tspan><tspan class="bi" x="127.91" y="0">い</tspan><tspan class="ao" x="139.818" y="0">たし</tspan><tspan class="n" x="162.402" y="0">ま</tspan><tspan class="dr" x="173.305" y="0">し</tspan><tspan class="dm" x="184.992" y="0">た</tspan><tspan class="ca" x="196.567" y="0">ら</tspan><tspan class="bb" x="209.653" y="0">、</tspan><tspan class="k" x="-1.507" y="19.398">予</tspan><tspan class="aw" x="10.872" y="19.398">め</tspan><tspan class="p" x="22.843" y="19.398">ご</tspan><tspan class="da" x="35.377" y="19.398">連</tspan><tspan class="df" x="48.7" y="19.398">絡</tspan><tspan class="dj" x="61.722" y="19.398">の</tspan><tspan class="co" x="73.495" y="19.398">上</tspan><tspan class="bb" x="86.58" y="19.398">、</tspan><tspan class="dp" x="93.493" y="19.398">リ</tspan><tspan class="ce" x="105.155" y="19.398">ペ</tspan><tspan class="ed" x="117.083" y="19.398">ア</tspan><tspan class="du" x="129.69" y="19.398">報</tspan><tspan class="l" x="142.866" y="19.398">告</tspan><tspan class="dv" x="155.622" y="19.398">書</tspan><tspan class="dt" x="167.303" y="19.398">と</tspan><tspan class="ay" x="178.891" y="19.398">併</tspan><tspan class="bv" x="192.109" y="19.398">せ</tspan><tspan class="ca" x="204.988" y="19.398">て</tspan><tspan class="ab" x="33.734" y="38.797">ご</tspan><tspan class="y" x="46.139" y="38.797">返</tspan><tspan class="dg" x="59.48" y="38.797">送</tspan><tspan class="dw" x="72.014" y="38.797">さ</tspan><tspan class="bv" x="83.948" y="38.797">せ</tspan><tspan class="ea" x="96.827" y="38.797">て</tspan><tspan class="cy" x="109.445" y="38.797">い</tspan><tspan class="de" x="121.354" y="38.797">た</tspan><tspan class="at" x="133.913" y="38.797">だ</tspan><tspan class="eh" x="146.304" y="38.797">き</tspan><tspan class="af" x="157.62" y="38.797">ま</tspan><tspan class="co" x="169.745" y="38.797">す</tspan></text><g><g class="di"><rect class="ai" x="31.455" y="26.89" width="54.192" height="9.573"/><rect class="ai" x="31.455" y="41.759" width="54.192" height="9.573"/><rect class="ai" x="31.455" y="56.628" width="54.192" height="9.573"/><rect class="ai" x="31.455" y="71.498" width="54.192" height="9.573"/></g><g><g/><g><path class="u" d="M78.987,67.828l2.616,13.082c.281,1.403,2.011,1.927,3.023,.915l2.7-2.7,5.066,5.066c1.399,1.399,3.667,1.399,5.066,0h0c1.399-1.399,1.399-3.667,0-5.066l-5.066-5.066,2.7-2.7c1.012-1.012,.488-2.742-.915-3.023l-13.082-2.616c-1.253-.251-2.358,.854-2.108,2.108Z"/><g><path class="aj" d="M80.514,75.463H14.818c-1.122,0-2.032-.91-2.032-2.032V5.109c0-1.122,.91-2.032,2.032-2.032H102.285c1.122,0,2.032,.91,2.032,2.032V73.431c0,1.122-.91,2.032-2.032,2.032h-7.712"/><line class="aj" x1="12.786" y1="16.538" x2="104.317" y2="16.538"/><circle class="s" cx="33.795" cy="9.934" r="2.077"/><circle class="s" cx="27.521" cy="9.934" r="2.077"/><circle class="s" cx="21.38" cy="9.934" r="2.077"/></g></g></g></g><g><rect class="aj" x="424.582" y="177.114" width="56.251" height="75.979"/><line class="aj" x1="435.528" y1="233.977" x2="470.41" y2="233.977"/><line class="aj" x1="435.528" y1="226.133" x2="470.41" y2="226.133"/><line class="aj" x1="435.528" y1="218.29" x2="470.41" y2="218.29"/><line class="aj" x1="435.528" y1="210.447" x2="470.41" y2="210.447"/><line class="aj" x1="435.528" y1="202.604" x2="470.41" y2="202.604"/><line class="aj" x1="435.528" y1="194.761" x2="470.41" y2="194.761"/><line class="aj" x1="435.528" y1="186.918" x2="470.41" y2="186.918"/><line class="aj" x1="441.841" y1="241.82" x2="470.41" y2="241.82"/><line class="aj" x1="424.582" y1="240.122" x2="437.553" y2="253.093"/><polygon class="aj" points="424.582 177.114 424.582 240.122 437.553 240.122 437.553 253.093 480.833 253.093 480.833 177.114 424.582 177.114"/><g><path class="t" d="M505.218,201.846l-8.779-5.068-15.023,27.412c-3.565,6.505-6.286,13.439-8.095,20.633l-.003,.013c-.272,1.08,1.043,1.839,1.842,1.064h0c5.334-5.17,9.985-11,13.841-17.348l16.217-26.705Z"/><g><path class="aj" d="M498.459,189.239h10.137v6.887c0,2.158-1.752,3.909-3.909,3.909h-2.318c-2.158,0-3.909-1.752-3.909-3.909v-6.887h0Z" transform="translate(842.276 614.962) rotate(-150)"/><path class="aj" d="M505.218,201.846l-8.779-5.068-15.023,27.412c-3.565,6.505-6.286,13.439-8.095,20.633l-.003,.013c-.272,1.08,1.043,1.839,1.842,1.064h0c5.334-5.17,9.985-11,13.841-17.348l16.217-26.705Z"/><line class="aj" x1="498.7" y1="212.58" x2="490.403" y2="207.789"/><path class="aj" d="M505.218,201.846l1.2,.671c1.567,.905,2.104,2.909,1.2,4.476l-12.839,22.238"/><line class="aj" x1="477.169" y1="233.104" x2="483.395" y2="236.699"/></g></g></g><g><polygon class="aj" points="78.163 399.926 31.97 373.192 75.36 349.235 121.553 375.969 78.163 399.926"/><polygon class="aj" points="78.163 399.926 31.97 373.192 31.97 423.76 78.163 450.494 78.163 399.926"/><polygon class="aj" points="78.163 399.926 78.163 450.494 121.553 426.537 121.553 375.969 78.163 399.926"/><polyline class="aj" points="103.021 365.237 59.631 389.195 59.631 402.055 57.078 402.116 55.855 399.875 53.308 399.939 52.093 397.703 49.558 397.774 48.35 395.542 48.35 382.681 91.739 358.724"/></g><g><polyline class="bw" points="13.914 1129.387 .25 1129.387 .25 1067.354 74.514 1067.354 74.514 1129.387"/><line class="bw" x1="82.329" y1="1129.387" x2="31.846" y2="1129.387"/><polyline class="bw" points="74.514 1074.59 101.979 1074.59 105.967 1098.967 116.853 1107.858 116.853 1129.387 100.26 1129.387"/><circle class="bw" cx="22.88" cy="1129.387" r="8.966"/><circle class="bw" cx="91.294" cy="1129.387" r="8.966"/><polyline class="bw" points="86.88 1074.59 86.88 1098.967 105.967 1098.967"/></g><g><path class="aj" d="M96.098,795.02c-26.994,0-39.346-5.104-39.346-25.442,0-14.452,9.83-13.409,14.42-26.486,4.482-12.767,12.504-15.787,24.925-15.787,12.421,0,20.443,3.02,24.925,15.787,4.591,13.076,14.42,12.034,14.42,26.486,0,20.338-12.351,25.442-39.346,25.442Z"/><path class="aj" d="M65.245,745.718c0-9.838,9.216-26.495,30.853-26.495,21.637,0,30.853,16.657,30.853,26.495"/><circle class="aj" cx="92.579" cy="715.215" r="4.008"/><circle class="aj" cx="100.596" cy="715.215" r="4.008"/></g><g><g><path class="al" d="M511.923,573.845c-.347,1.467,0,2.828,.091,4.017,.115,1.503,4.019,2.926,5.384,3.565,3.759,1.76,7.372,3.83,10.791,6.182,1.403,.965,2.827,2.041,3.562,3.577,.604,1.263,.677,2.705,.739,4.104l.299,6.705"/><path class="al" d="M501.24,575.327c-.01,1.215,.038,1.746-1.093,2.226-1.705,.724-6.338,.852-9.786,1.412-2.966,.482-4.676,2.973-4.998,4.986-.413,2.579-.712,5.968-.712,5.968"/><path class="al" d="M512.668,575.408c.644-2.003,.985-3.763,3.059-5.495,4.211-3.516,2.892-12.601-1.845-16.824-2.961-2.64-10.305-3.975-14.989,.972-3.208,3.388-3.094,7.391-2.806,11.469,.356,5.044,2.556,10.745,7.857,10.745,4.288,0,8.227-4.341,8.227-4.341"/><path class="al" d="M514.02,563.352c-.086-1.183,.31-1.815,.866-2.006,.267-.092,.545-.171,.826-.112,.766,.16,1.243,1.258,1.391,2.251,.139,.934,.097,1.918-.221,2.731-.493,1.26-1.668,1.959-2.777,1.653"/><path class="al" d="M513.371,562.292c-1.396-4.026-5.487-4.923-7.962-5.249-3.287-.434-7.568,.334-9.599,4.245"/><path class="al" d="M499.461,577.829s2.503,4.566,12.888,.751"/></g><polygon class="al" points="555.235 607.624 467.556 585.632 467.556 532.531 555.235 554.523 555.235 607.624"/><g><path class="al" d="M478.901,599.202c-.441,1.864,0,3.595,.116,5.106,.146,1.91,5.109,3.719,6.844,4.531,4.778,2.237,9.371,4.868,13.717,7.859,1.784,1.227,3.594,2.595,4.528,4.548,.768,1.605,.86,3.439,.94,5.217l.641,14.359"/><path class="al" d="M465.321,601.087c-.013,1.545,.049,2.219-1.39,2.83-2.168,.92-8.057,1.082-12.44,1.794-3.771,.612-5.944,3.779-6.354,6.339-.525,3.278-1.465,13.166-1.465,13.166"/><path class="w" d="M478.901,599.202c2.539,0,3.78-.163,4.803-2.058,2.659-4.924,4.08-18.09,.282-23.077-3.056-4.012-11.097-7.061-19.163-.685-7.751,6.127-5.935,16.4-1.536,23.824,1.138,1.92,2.033,2.675,2.032,4.216"/><path class="al" d="M479.935,588.771c-.116-1.505-.909-2.237-1.87-2.385-.462-.072-.94-.125-1.392-.004-1.233,.329-1.785,1.792-1.813,3.067-.027,1.2,.257,2.433,.96,3.405,1.09,1.506,3.189,2.193,4.958,1.624"/><path class="al" d="M478.348,586.468c1.093-5.306,4.598-6.228,7.541-7.414"/><path class="al" d="M463.059,604.267s3.182,5.804,16.383,.955"/><path class="al" d="M465.202,600.554s4.179,1.935,11.129,.869c-.158-1.62-.237-4.147,.484-7.594"/></g></g><g><path class="ak" d="M446.146,943.018c1.758-.721,4.095-.431,5.169,.241"/><path class="ak" d="M459.786,940.669c-1.135-.062-2.094,1.04-2.179,2.174-.086,1.134,.508,2.222,1.275,3.06,.224,.245,.469,.481,.614,.779,.327,.669,.065,1.506-.434,2.059s-1.191,.885-1.864,1.202"/><path class="ak" d="M455.362,954c1.319,1.062,3.487,.827,4.548-.493"/><path class="ak" d="M462.69,932.121l-.94,9.17c-.089,.869-.178,1.751-.032,2.612,.189,1.12,.762,2.137,1.057,3.233,.647,2.405-.088,4.958-1.03,7.263-1.235,3.022-3.303,6.232-6.54,6.658-1.994,.262-3.94-.621-5.757-1.482l-8.693-4.12"/><path class="ak" d="M453.566,963.394c-1.041,1.869-1.265,4.175-.601,6.209"/><path class="ak" d="M461.303,926.016c-1.462-2.593-3.69-4.803-6.431-5.964-2.741-1.161-6.001-1.198-8.644,.171-2.352,1.218-4.048,3.399-5.461,5.64-3.464,5.496-5.685,11.77-6.449,18.221"/><path class="ak" d="M430.088,942.813c-2.042,.425-3.619,2.302-3.947,4.361-.328,2.059,.483,4.207,1.894,5.741s3.368,2.496,5.398,2.975c.808,.191,1.901,.165,2.182-.616"/><path class="ak" d="M432.129,957.397c1.829,1.41,3.06,3.481,3.83,5.659,.77,2.177,1.116,4.478,1.457,6.762"/><path class="ak" d="M426.055,948.295c-1.826-4.581-6.311-7.913-7.345-12.735-.903-4.208,1.062-8.469,3.245-12.178,2.584-4.389,5.955-8.843,10.875-10.158,1.969-.526,4.047-.5,6.075-.29,4.629,.477,9.158,1.895,13.234,4.141"/></g><g><path class="bd" d="M478.459,941.863c-7.03-2.771-14.63-4.085-22.183-3.834,7.446,1.671,14.228,5.825,21.78,6.919"/><path class="v" d="M483.916,943.291s-3.431-1.175-5.215-1.488c0,0-1.792,1.754-1.181,3.129l5.804,1.333"/><path class="v" d="M506.594,949.213l-21.945-7.304c-.868,.962-1.562,3.738-1.438,5.478l19.182,6.303"/></g></g></g></g></svg>