<?xml version="1.0" encoding="UTF-8"?>
<svg id="_レイヤー_2" data-name="レイヤー 2" xmlns="http://www.w3.org/2000/svg" width="33.662mm" height="50.222mm" viewBox="0 0 95.421 142.362">
  <defs>
    <style>
      .cls-1 {
        fill: #231815;
      }
    </style>
  </defs>
  <g id="_アートワーク" data-name="アートワーク">
    <g>
      <path class="cls-1" d="M76.711,7.287c.387,.015,.386,.034,.774,.034s.388-.05,.777-.05,.385,.08,.76-.021c.202-.265,.441-.388,.622-.629,.163-.218,.296-.398,.513-.683,.278,.213,.504,.309,.709,.473,.297,.238,.489,.469,.662,.624,.5,.449,.586,.554,.586,.66,0,.168-.146,.367-.386,.367-.387,0-.387-.147-.775-.147s-.388,.073-.777,.073-.408-.129-.77,.012c-.025,.312-.191,.459-.408,.555-.094,.396,.069,.411,.069,.819s-.023,.408-.023,.817-.109,.408,.046,.786c.064,.155,.088,.053,.244-.01,.142-.192,.231-.389,.376-.573,.143-.18,.428-.248,.582-.438,.141-.173,.217-.484,.374-.679,.207,.175,.417,.386,.585,.529,.214,.183,.441,.295,.599,.434,.233,.205,.355,.43,.489,.561,.333,.325,.376,.463,.376,.59,0,.168-.102,.343-.34,.343-.419,0-.419,.022-.838,.022s-.42-.035-.839-.035-.421-.105-.842-.105-.514-.203-.823,.083c-.286,.265-.07,.369-.07,.759s.08,.389,.08,.778,.05,.389,.05,.778-.009,.388-.009,.776-.02,.39-.02,.78,.025,.391,.025,.781-.135,.392-.135,.784,.007,.386,.14,.755c.262-.053,.424-.172,.688-.227s.542-.036,.807-.093c.262-.056,.52-.133,.784-.191s.513-.184,.778-.244,.604-.076,.871-.138c.144,.118,.035,.222-.015,.401-.232,.123-.364,.328-.592,.446-.232,.12-.491,.183-.72,.299-.233,.117-.478,.204-.708,.317-.234,.114-.493,.168-.724,.278-.236,.112-.395,.384-.629,.491-.236,.108-.489,.179-.724,.282-.237,.104-.478,.198-.714,.297s-.52,.089-.758,.186-.463,.224-.703,.318-.436,.299-.677,.388c-.24,.089-.507,.106-.749,.192s-.507,.147-.752,.231c-.193,.528-.391,.77-.655,.77-.18,0-.338-.069-.56-.565-.086-.193-.165-.458-.286-.794-.082-.227-.196-.483-.3-.789-.083-.242-.102-.496-.201-.794,.278-.033,.507-.104,.781-.139s.558-.007,.831-.044,.551-.043,.823-.082,.522-.23,.795-.272,.591-.008,.864-.051c.124-.398-.125-.428-.125-.845s.044-.416,.044-.832,.099-.416,.099-.831-.006-.415-.006-.83c0-.417-.039-.417-.039-.834s.065-.418,.065-.836-.101-.419-.101-.838,.306-.52-.004-.802c-.342-.31-.429-.033-.891-.033s-.465-.113-.927-.098c-.481,.015-.483,.026-.963,.056s-.61,.495-.969,.176c-.341-.303-.307-.606,.034-.908,.36-.319,.458,.069,.938,.099s.48,.087,.96,.102c.462,.015,.465-.053,.927-.053s.589,.271,.947-.021c.292-.238,.082-.405,.082-.782s-.214-.378-.214-.755,.112-.379,.112-.757,.281-.507-.008-.751c-.318-.267-.41-.002-.824,.028s-.482,.321-.793,.046c-.297-.262,.141-.394,.021-.771-.192,.186-.465,.359-.66,.536-.198,.181-.345,.416-.545,.587-.204,.174-.385,.376-.59,.539-.21,.167-.472,.262-.683,.417-.176-.032-.198-.071-.24-.244,.157-.198,.371-.339,.524-.551,.149-.205,.119-.54,.265-.757,.141-.211,.39-.355,.527-.576,.135-.216,.166-.497,.296-.722,.128-.221,.363-.384,.487-.613,.122-.225,.131-.512,.249-.743,.116-.228,.281-.431,.393-.664,.111-.231,.249-.451,.356-.687,.106-.234,.124-.507,.226-.746,.101-.237,.309-.429,.405-.669s.198-.478,.289-.721,.253-.46,.339-.705,.083-.505,.164-.751c.312,.086,.562,.237,.818,.311,.323,.093,.66-.011,.904,.066,.348,.11,.603,.27,.815,.355,.508,.205,.57,.385,.57,.546,0,.163-.05,.226-.374,.359-.155,.063-.301,.282-.581,.328-.047,.072-.059,.004-.105,.076,.261,.03,.472,.16,.712,.207,.258,.051,.526,.033,.758,.102,.255,.075,.441,.301,.663,.396,.247,.106,.543,.086,.746,.214,.229,.144,.367,.384,.534,.551,.19,.191,.391,.359,.494,.573,.111,.232,.159,.492,.159,.745,0,.353-.056,.728-.25,.949-.202,.23-.57,.28-.924,.28-.318,0-.569-.016-.744-.149-.182-.138-.331-.358-.454-.627-.107-.24-.257-.471-.416-.717-.148-.229-.209-.535-.389-.754-.179-.217-.417-.387-.616-.579-.208-.2-.417-.328-.635-.485-.141,.22-.33,.36-.476,.575s-.261,.453-.414,.664-.244,.47-.403,.676-.445,.313-.61,.514-.233,.485-.405,.681-.335,.403-.513,.593-.402,.309-.587,.493c.381,.148,.401,.021,.809,.048s.406,.054,.814,.07Zm-3.586,5.858c.257,.078,.503,.2,.731,.301,.246,.109,.5,.188,.709,.32,.229,.144,.456,.288,.639,.454,.2,.182,.273,.461,.415,.664,.154,.219,.241,.44,.322,.676,.085,.248,.217,.472,.217,.728,0,.258-.1,.461-.197,.65-.108,.213-.224,.405-.429,.516-.191,.102-.419,.232-.671,.232-.347,0-.561-.238-.744-.42-.197-.196-.352-.427-.364-.738-.016-.28-.054-.549-.09-.81-.039-.281-.055-.555-.117-.807-.069-.278-.217-.513-.315-.75-.111-.268-.22-.521-.368-.725-.037-.192,.094-.23,.261-.292Zm6.059,3.897c.084-.231,.201-.481,.286-.734,.079-.237,.111-.498,.189-.75,.074-.242,.125-.495,.196-.748,.069-.244,.262-.459,.325-.711,.063-.249,.148-.498,.204-.751s.02-.527,.069-.78c.265,.079,.488,.203,.703,.272,.274,.088,.527,.114,.729,.187,.297,.108,.556,.133,.725,.217,.416,.205,.393,.421,.393,.573,0,.264-.147,.412-.77,.532-.163,.208-.318,.421-.488,.626-.169,.203-.368,.381-.547,.58-.176,.196-.306,.438-.493,.629-.184,.188-.391,.358-.589,.54-.193,.178-.387,.408-.595,.579-.178,.058-.261-.104-.336-.26Zm16.024-9.329c-.237,.057-.495,.121-.722,.24-.22,.115-.402,.294-.596,.456s-.346,.351-.496,.549c-.217,.288-.363,.302-.507,.302-.119,0-.206-.099-.423-.267-.193-.163-.438-.264-.618-.446-.178-.179-.31-.401-.476-.596-.164-.193-.365-.356-.517-.562-.15-.204-.358-.374-.495-.589-.137-.214-.141-.508-.264-.731s-.303-.414-.413-.644-.224-.459-.32-.694-.152-.488-.233-.728c-.082-.242-.223-.467-.289-.711-.067-.247-.078-.479-.129-.726-.136,.238-.208,.49-.356,.726-.146,.233-.33,.446-.486,.676-.155,.228-.28,.482-.444,.706-.163,.223-.472,.336-.645,.554s-.222,.534-.402,.746-.399,.39-.586,.594-.335,.451-.53,.648-.454,.332-.656,.521c-.203,.19-.426,.356-.635,.536-.211,.182-.378,.417-.595,.587-.219,.173-.429,.359-.653,.519-.227,.163-.51,.297-.741,.445-.182-.042-.154-.135-.193-.317,.166-.195,.25-.407,.417-.626,.157-.206,.377-.377,.534-.602,.149-.215,.23-.482,.377-.712,.141-.221,.238-.473,.377-.707,.135-.227,.275-.453,.407-.689,.129-.232,.273-.457,.397-.697,.123-.235,.22-.483,.338-.724,.117-.24,.353-.424,.465-.668s.088-.547,.194-.793,.199-.496,.298-.744c.1-.251,.267-.474,.359-.725,.093-.253,.163-.512,.247-.763,.086-.257,.153-.593,.229-.847,.26,.071,.571,.158,.792,.221,.266,.076,.466,.281,.681,.347,.275,.083,.554,.026,.755,.094,.301,.102,.507,.248,.675,.324,.465,.211,.466,.352,.466,.5,0,.264-.178,.393-.752,.512,.142,.23,.426,.462,.59,.685,.16,.218,.296,.452,.475,.664,.175,.206,.35,.412,.543,.611,.189,.194,.304,.469,.509,.655,.201,.181,.435,.334,.651,.506,.212,.169,.502,.235,.728,.395,.221,.157,.405,.37,.64,.517,.23,.144,.449,.312,.691,.445,.238,.131,.487,.248,.736,.369,.245,.119,.521,.206,.776,.314,.111,.151-.043,.227-.174,.346Zm-4.608,3.968c.159-.325,.309-.536,.429-.712,.261-.382,.444-.506,.658-.506,.179,0,.4,.018,.765,.234,.174,.102,.316,.355,.587,.556,.241,.177,.399,.339,.534,.469,.268,.259,.417,.373,.417,.533,0,.216-.24,.435-.791,.675-.205,.474,.051,.537,.051,1.053,0,.292,.077,.563,.081,.817,.005,.297-.135,.573-.127,.826,.01,.297,.094,.565,.105,.813,.014,.3,.041,.567,.052,.814,.013,.294-.013,.559-.013,.81,0,.288,.03,.565-.045,.798-.084,.261-.244,.492-.424,.681-.172,.18-.378,.382-.641,.494-.221,.094-.499,.132-.786,.176-.241,.037-.512,.101-.8,.101-.432,0-.392-.156-.49-.612-.064-.281-.301-.469-.421-.68-.13-.226-.252-.428-.48-.583-.193-.131-.49-.217-.775-.304-.091-.156-.029-.281,.097-.41,.304,.024,.556,.066,.808,.078,.246,.012,.497-.057,.807-.057,.432,0,.523-.065,.523-.545,0-.401,.035-.401,.035-.801s.105-.4,.105-.8c0-.402-.09-.402-.09-.804s.078-.403,.078-.805-.08-.404-.08-.807,.246-.457-.029-.753c-.256-.275-.317,.016-.692,.016s-.376-.02-.753-.02-.377-.131-.722,.019c-.023,.336-.256,.424-.472,.544-.097,.556,.144,.574,.144,1.138,0,.277,.009,.542,.01,.797,0,.278-.074,.543-.072,.795,.002,.281,.024,.547,.027,.799,.003,.284,.075,.548,.079,.798,.005,.285-.02,.55-.015,.795,.007,.291-.127,.558-.12,.798,.009,.299,.158,.557,.167,.79,.012,.312-.038,.573-.029,.792,.014,.332-.007,.577-.007,.787,0,.251-.182,.4-.44,.568-.195,.127-.382,.39-.671,.453-.244,.054-.534,.047-.815,.047-.504,0-.867-.276-.867-.636,0-.224,.126-.479,.137-.821,.008-.23-.018-.5-.009-.822,.007-.242-.107-.517-.099-.825,.006-.249,.088-.519,.094-.819,.005-.255,.043-.529,.047-.825,.003-.258-.004-.532-.002-.824,.002-.259-.033-.533-.032-.821,.002-.263,.026-.539,.027-.828,0-.265-.022-.542-.022-.83,0-.48,.078-.48,.078-.96s.201-.551-.061-.954c-.17-.261-.303-.07-.615-.06-.36,.011-.363-.013-.722,.007s-.352,.172-.712,.192-.466,.23-.696-.048c-.291-.352-.387-.593-.097-.945,.229-.278,.43,.031,.79,.051s.355,.118,.715,.138,.362,.024,.722,.034c.397,.01,.398-.039,.795-.039s.396,.065,.793,.065,.396-.101,.791-.101c.398,0,.398-.02,.796-.02s.398,.045,.797,.045,.393,.063,.791,.097c.403,.035,.421,.011,.8-.117Zm-4.025-3.674c.528,.016,.536,.118,1.057,.034,.142-.193,.258-.417,.412-.609,.148-.185,.284-.386,.443-.58,.149-.181,.355-.261,.514-.458,.202,.18,.32,.344,.485,.492,.209,.188,.451,.284,.606,.427,.228,.21,.363,.413,.494,.547,.325,.331,.433,.428,.433,.554,0,.168-.124,.366-.364,.366-.405,0-.405-.146-.811-.146-.408,0-.408,.073-.815,.073s-.408,.013-.816,.013-.409-.035-.819-.035-.408,.056-.817,.07c-.481,.016-.48,.008-.96,.038s-.656,.411-1.016,.092c-.341-.303-.316-.704,.025-1.006,.36-.319,.514-.023,.994,.004s.475,.111,.956,.125Z"/>
      <path class="cls-1" d="M94.873,42.133c-.297,.033-.543,.132-.82,.271-.266,.134-.477,.385-.706,.591-.224,.202-.398,.451-.57,.7-.215,.312-.321,.354-.489,.354-.119,0-.281,.007-.521-.161-.21-.157-.4-.344-.603-.513-.201-.168-.382-.36-.576-.539-.192-.178-.334-.405-.519-.594-.183-.187-.442-.304-.617-.501-.174-.196-.247-.476-.414-.682-.164-.203-.344-.391-.501-.604-.155-.21-.382-.371-.529-.59-.146-.217-.342-.406-.481-.632-.137-.223-.265-.457-.395-.688-.128-.228-.121-.531-.242-.767-.119-.233-.37-.403-.482-.643-.111-.237-.168-.501-.271-.744-.102-.241-.096-.526-.191-.773-.094-.245-.308-.447-.394-.697-.086-.247-.194-.49-.272-.743-.078-.251-.129-.513-.2-.769-.07-.253-.137-.624-.199-.882,0,.281,.123,.661,.124,.93,0,.281,.014,.556,.015,.825,.001,.281-.035,.555-.034,.824,.001,.281-.011,.556-.01,.824,.002,.282,.06,.557,.062,.824,.002,.283-.033,.558-.031,.826,.002,.284,.047,.559,.05,.825,.002,.285-.199,.561-.197,.827,.003,.285,.065,.559,.068,.823,.003,.286,.13,.558,.134,.82,.004,.289-.004,.564,0,.826,.004,.292-.048,.568-.044,.827,.005,.294-.076,.569-.071,.824,.006,.299,.159,.569,.165,.818,.007,.307-.139,.583-.133,.823,.008,.325,.174,.59,.18,.813,.01,.383,.02,.637,.02,.818,0,.284-.255,.529-.538,.712-.212,.138-.494,.235-.815,.302-.265,.056-.56,.058-.873,.058-.529,0-.786-.208-.786-.617,0-.182-.057-.435-.048-.809,.006-.223,.058-.488,.066-.809,.006-.238-.006-.507,0-.811,.005-.247-.029-.517-.024-.813,.005-.252,.01-.522,.015-.813,.004-.255-.022-.527-.018-.814,.003-.257,.207-.525,.21-.809,.003-.259-.167-.532-.165-.815,.003-.261,.177-.531,.18-.813,.002-.263,.005-.535,.007-.817,.002-.264-.038-.536-.036-.818,.002-.264,.047-.536,.048-.817,.001-.266-.152-.54-.151-.821,.001-.267,.078-.602,.079-.883-.13,.224-.274,.519-.413,.74-.138,.219-.391,.362-.538,.578-.146,.214-.183,.505-.338,.715-.154,.208-.271,.449-.433,.653-.161,.203-.47,.285-.639,.483-.168,.197-.187,.527-.363,.719s-.446,.295-.628,.481-.282,.455-.47,.636-.425,.309-.619,.483-.344,.4-.544,.567-.498,.213-.703,.374-.367,.377-.576,.531-.428,.297-.643,.444-.454,.256-.674,.394-.472,.222-.697,.353-.381,.383-.61,.506-.464,.127-.697,.241c-.17-.054-.265-.016-.279-.194,.206-.172,.45-.328,.655-.512,.2-.18,.305-.465,.503-.656,.194-.186,.486-.277,.678-.474,.188-.193,.346-.418,.532-.62,.183-.198,.321-.438,.501-.645,.177-.203,.398-.372,.572-.583,.171-.208,.296-.455,.464-.67,.166-.213,.359-.406,.522-.625,.161-.217,.285-.462,.442-.685,.156-.221,.407-.379,.559-.606,.15-.226,.163-.541,.31-.772,.145-.229,.422-.378,.562-.613,.139-.232,.297-.457,.431-.694s.124-.552,.253-.793,.374-.419,.496-.663,.177-.52,.294-.767,.176-.517,.286-.766,.328-.452,.432-.705,.187-.577,.284-.833c-.362-.136-.408,.025-.794,.025s-.386,.052-.773,.052-.386,.031-.771,.031c-.388,0-.388-.087-.775-.087s-.388-.077-.776-.077-.389,.094-.779,.094-.391-.06-.78-.05c-.407,.01-.407,.046-.815,.066s-.401,.164-.809,.184-.534,.23-.814-.069c-.312-.333-.246-.503,.065-.836,.278-.298,.334-.054,.741-.034s.408,.025,.816,.045,.406,.124,.814,.134,.41-.074,.818-.074,.407,.048,.814,.048,.407-.175,.814-.175,.406,.203,.812,.203c.408,0,.408-.111,.816-.111s.409-.054,.818-.054,.41,.137,.82,.137,.508,.2,.808-.08c.28-.263-.074-.371-.074-.755s.151-.384,.151-.768c0-.275,.028-.538,.025-.788-.003-.275-.132-.535-.137-.783-.006-.276-.078-.534-.087-.782-.01-.275,.149-.541,.136-.787-.014-.273-.082-.5-.099-.746,.282,.025,.514,.09,.756,.114,.286,.029,.548,.015,.782,.042,.297,.035,.559,.022,.781,.056,.323,.049,.55,.194,.741,.243,.476,.122,.536,.173,.536,.334,0,.215-.028,.368-.293,.52-.15,.086-.408,.152-.669,.256-.11,.366,.094,.398,.094,.779s-.054,.384-.054,.767,.073,.384,.073,.768-.109,.385-.109,.771-.232,.508,.044,.776c.284,.276,.402-.052,.799-.052s.396,.153,.792,.153c.398,0,.398-.038,.796-.038s.399-.056,.797-.056,.4-.052,.799-.052,.4,.078,.794,.008c.132-.167,.238-.361,.402-.559,.142-.172,.334-.322,.495-.509,.15-.175,.296-.365,.457-.548,.155-.175,.337-.296,.499-.474,.224,.173,.44,.283,.63,.431,.226,.177,.489,.264,.673,.409,.234,.185,.302,.511,.476,.653,.253,.206,.567,.228,.715,.359,.405,.36,.342,.544,.342,.653,0,.168-.076,.314-.316,.314-.403,0-.403-.132-.807-.132s-.402,.08-.805,.08-.402,.015-.805,.015-.404-.101-.807-.101-.403,.093-.806,.093-.403,.02-.805,.02-.402-.046-.804-.046c-.404,0-.404,.04-.808,.04s-.405-.053-.81-.053-.406,.051-.812,.051-.421-.104-.805,.028c.11,.243,.196,.474,.316,.712s.258,.467,.388,.701,.265,.464,.404,.692,.356,.404,.503,.627,.215,.498,.371,.715,.339,.413,.503,.623,.266,.473,.438,.677,.453,.313,.632,.511,.355,.396,.541,.587,.398,.353,.591,.537,.372,.379,.572,.557,.419,.327,.624,.497,.325,.448,.537,.61,.501,.22,.718,.374,.44,.297,.663,.442,.367,.419,.596,.556,.491,.22,.724,.349,.535,.198,.773,.317c.102,.13-.086,.199-.212,.333Z"/>
      <path class="cls-1" d="M72.38,72.207c.224-.14,.473-.329,.692-.48s.506-.205,.718-.365,.331-.437,.535-.605,.403-.34,.6-.517,.378-.368,.567-.553c.191-.185,.505-.248,.687-.44,.183-.193,.338-.415,.512-.614,.175-.201,.351-.403,.517-.609,.167-.208,.198-.517,.354-.729,.158-.215,.324-.418,.47-.637,.149-.222,.298-.437,.433-.662,.138-.229,.263-.459,.387-.689,.123-.229,.211-.473,.326-.708,.114-.233,.339-.413,.445-.654,.104-.236,.249-.46,.346-.705,.095-.24,.202-.48,.29-.729,.085-.243,.108-.511,.187-.764,.076-.244,.206-.478,.276-.733,.068-.247,0-.533,.062-.791,.06-.249,.249-.473,.305-.733,.053-.251,.05-.519,.099-.78,.047-.253,.145-.502,.187-.765,.041-.253-.07-.534-.033-.797,.036-.254,.236-.491,.268-.755,.031-.254-.054-.525-.027-.788,.026-.255-.028-.522-.005-.787,.022-.257,.119-.511,.139-.777,.019-.255-.022-.518-.007-.782,.015-.259,.076-.518,.089-.785,.012-.259,.027-.57,.037-.837,.286,.038,.603,.022,.846,.056,.293,.041,.547,.15,.785,.187,.305,.047,.542,.222,.767,.264,.335,.063,.575,.119,.764,.179,.449,.143,.648,.191,.648,.396,0,.196-.218,.313-.468,.477-.148,.097-.351,.222-.612,.312,.028,.26,.021,.559,.059,.816s.163,.504,.209,.76,.094,.514,.149,.768,.097,.514,.162,.767,.147,.502,.22,.752,.1,.517,.182,.764,.129,.511,.22,.755,.328,.433,.428,.674,.204,.479,.312,.716,.079,.542,.195,.775,.311,.429,.435,.657c.125,.229,.24,.466,.373,.69s.401,.363,.543,.582,.21,.485,.359,.698c.145,.207,.324,.394,.481,.6,.154,.201,.357,.364,.521,.564,.162,.196,.237,.467,.409,.661,.169,.191,.311,.412,.489,.599,.176,.185,.408,.319,.593,.5,.183,.179,.379,.345,.569,.519,.189,.173,.393,.329,.589,.496s.393,.329,.595,.489,.396,.326,.604,.478,.441,.265,.654,.408,.334,.435,.553,.569,.556,.159,.781,.283c.031,.18-.029,.261-.162,.386-.247,.029-.522,.065-.76,.144s-.437,.229-.657,.345c-.223,.118-.498,.147-.695,.293-.207,.153-.426,.298-.595,.467-.264,.265-.33,.428-.475,.428-.119,0-.187-.164-.401-.38-.198-.189-.531-.242-.722-.437s-.39-.388-.574-.589-.251-.509-.428-.716c-.178-.208-.393-.384-.562-.597-.171-.214-.303-.456-.466-.675-.164-.221-.391-.394-.546-.618-.156-.226-.189-.53-.336-.759-.148-.232-.368-.415-.506-.649-.14-.237-.289-.466-.418-.704-.131-.242-.258-.484-.377-.727-.115-.237-.282-.455-.389-.702-.105-.242-.162-.508-.26-.76-.096-.246-.241-.479-.329-.734-.087-.25-.122-.521-.201-.779-.078-.253-.179-.502-.25-.762-.069-.254-.019-.542-.081-.803-.061-.257-.177-.504-.231-.767-.054-.26-.128-.518-.175-.783-.046-.26-.055-.529-.095-.794-.039-.263-.002-.537-.035-.805-.032-.264-.148-.41-.174-.679-.028,.271,.011,.438-.025,.701-.036,.27-.195,.519-.238,.78-.044,.269,.014,.553-.038,.813-.053,.268-.216,.509-.276,.768-.062,.265,.021,.565-.048,.821-.071,.262-.194,.509-.273,.762-.081,.259-.301,.468-.389,.718-.091,.256-.018,.571-.117,.817-.101,.252-.219,.499-.328,.741-.111,.247-.31,.451-.429,.687-.122,.242-.15,.533-.28,.765-.132,.235-.453,.357-.593,.582-.142,.229-.286,.449-.436,.668-.151,.219-.297,.437-.464,.649-.165,.209-.276,.462-.455,.664-.176,.2-.428,.327-.617,.52-.187,.19-.282,.475-.48,.658-.197,.181-.355,.412-.562,.585-.206,.171-.419,.341-.634,.504-.213,.162-.516,.204-.737,.356s-.365,.424-.593,.567-.46,.286-.694,.418-.508,.197-.747,.318-.541,.111-.785,.222-.431,.357-.679,.457c-.25,.1-.52,.189-.773,.277-.203-.003-.278-.134-.274-.305Z"/>
      <path class="cls-1" d="M78.294,86.535c0,.269,.015,.533,.008,.789-.007,.269,.068,.537,.055,.793-.013,.269-.023,.535-.043,.79-.021,.269-.151,.523-.18,.777-.031,.268-.064,.528-.103,.78-.041,.267-.084,.526-.135,.776-.054,.265-.055,.537-.12,.784-.069,.261-.198,.499-.279,.742-.085,.255-.099,.534-.198,.77-.103,.246-.393,.4-.511,.628-.122,.236-.222,.472-.361,.691-.141,.222-.214,.489-.372,.696s-.357,.384-.534,.577c-.175,.192-.387,.347-.58,.527-.188,.176-.339,.398-.545,.566-.2,.163-.442,.276-.658,.432-.209,.15-.376,.228-.601,.374-.173-.044-.189,.006-.214-.171,.171-.212,.3-.401,.454-.612,.159-.218,.213-.5,.354-.722,.143-.225,.31-.429,.435-.663,.124-.233,.248-.463,.355-.709,.105-.239,.285-.453,.374-.71,.085-.244,.027-.538,.098-.802,.068-.248,.119-.501,.175-.769,.053-.25,.19-.491,.233-.762,.04-.253,.091-.513,.124-.785,.031-.255,.015-.522,.039-.796,.023-.256,.008-.523,.025-.797,.016-.257,.185-.515,.197-.789,.011-.258-.077-.527-.07-.801,.006-.26,.13-.525,.133-.8,.003-.26-.081-.587-.081-.862-.449-.132-.485,.038-.953,.049-.388,.009-.391-.037-.778-.017s-.386,.066-.775,.086-.473,.311-.732,.021c-.303-.34-.405-.583-.102-.924,.258-.29,.44,.176,.828,.196s.396-.12,.785-.099,.388,.015,.777,.024c.468,.011,.611,.392,.961,.081,.311-.276-.029-.445-.029-.86s-.088-.414-.088-.829,.076-.414,.076-.828,.109-.413,.109-.827c0-.416-.094-.416-.094-.831s-.046-.416-.046-.833,.1-.417,.1-.835,.04-.425-.106-.816c-.055-.146-.103,.032-.259,.038-.388,.014-.387,0-.775,.021s-.39-.007-.778,.013-.575,.37-.833,.079c-.303-.341-.322-.688-.019-1.029,.258-.29,.458,.186,.845,.206s.397-.143,.785-.123,.383,.173,.771,.183,.39-.053,.777-.053,.388-.004,.775-.004,.389-.028,.778-.028,.388,.041,.776,.041,.388,.06,.776,.06,.387-.112,.775-.112c.389,0,.389,.074,.779,.074s.39-.054,.78-.054,.391,.035,.782,.035,.397,.029,.779-.051c.156-.197,.299-.391,.459-.586,.157-.191,.266-.429,.435-.624,.16-.185,.396-.309,.573-.502,.235,.179,.406,.392,.597,.54,.243,.188,.428,.381,.608,.524,.264,.211,.463,.372,.616,.507,.395,.35,.643,.409,.643,.539,0,.168-.231,.2-.471,.2-.401,0-.401,.059-.802,.059s-.401,.076-.803,.076-.403-.06-.805-.06-.439-.16-.82-.032c-.049,.288-.257,.475-.474,.57-.093,.369,.075,.407,.075,.788s.098,.38,.098,.76-.102,.38-.102,.76,.011,.379,.011,.758,.11,.381,.11,.762-.121,.382-.121,.763-.072,.383-.072,.766-.16,.489,.082,.786c.197,.242,.337,.008,.649,.008s.318,.033,.62-.044c.156-.197,.246-.434,.406-.629,.158-.191,.448-.274,.617-.469,.16-.185,.268-.444,.446-.637,.211,.182,.439,.324,.61,.473,.218,.191,.432,.326,.592,.47,.237,.213,.384,.419,.519,.552,.359,.355,.366,.506,.366,.638,0,.168-.119,.228-.359,.228-.367,0-.367,.127-.733,.127s-.366-.022-.732-.022c-.368,0-.368-.088-.736-.088s-.368-.051-.737-.051-.37,.106-.739,.106-.408-.182-.755-.057c0,.266-.094,.57-.093,.821,.001,.266,.095,.525,.096,.776,.001,.267,.07,.525,.072,.776,.002,.268,.059,.526,.061,.775,.002,.268-.17,.528-.168,.776,.002,.269,.159,.525,.161,.771,.003,.272-.143,.532-.14,.778,.003,.274,.044,.533,.048,.777,.004,.276,.034,.533,.038,.773,.005,.281,.012,.538,.016,.773,.005,.289-.036,.545-.031,.772,.007,.305,.078,.556,.083,.767,.008,.36,.006,.599,.006,.768,0,.266-.149,.538-.417,.716-.206,.137-.48,.297-.779,.366-.26,.061-.567,.014-.856,.014-.504,0-.744-.257-.744-.641,0-.183,.002-.432,.012-.803,.006-.222-.042-.489-.034-.808,.006-.237,.046-.503,.053-.805,.005-.245,0-.513,.005-.807,.005-.25-.066-.52-.062-.809,.004-.252,.096-.519,.1-.803,.004-.255-.018-.524-.015-.807,.003-.258-.012-.527-.009-.809,.003-.26-.049-.531-.047-.812,.002-.261-.004-.531-.002-.811,.002-.262,.206-.531,.207-.809,.001-.264-.188-.536-.187-.816,.001-.265,.106-.556,.107-.835-.352-.131-.383,.044-.758,.044s-.387,.094-.762,.053c-.385-.042-.39-.204-.745-.077Zm.385-7.32c-.049,.288-.149,.461-.366,.557-.093,.369,.085,.376,.085,.757s.007,.38,.007,.76-.105,.38-.105,.76,.001,.379,.001,.758c0,.381,.004,.381,.004,.762s.061,.382,.061,.763-.056,.383-.056,.766-.214,.422,.056,.694c.267,.27,.308,.167,.687,.167s.381-.032,.761-.032,.482,.196,.739-.084c.281-.306,.03-.395,.03-.81s.041-.414,.041-.829-.069-.414-.069-.828,.057-.413,.057-.827c0-.416,.066-.416,.066-.831s-.052-.416-.052-.833-.03-.417-.03-.835,.23-.49-.083-.766c-.356-.313-.42,.024-.892-.019-.481-.044-.488-.182-.944-.05Zm4.08,18.77c.234-.133,.457-.29,.69-.437,.228-.144,.407-.363,.634-.519,.222-.153,.436-.315,.656-.48,.216-.161,.494-.244,.708-.416,.211-.169,.419-.344,.628-.523,.205-.176,.405-.359,.607-.543,.199-.182,.355-.413,.551-.604,.194-.189,.425-.341,.616-.538,.189-.195,.313-.45,.498-.652,.183-.2,.512-.273,.691-.48,.177-.205,.33-.435,.503-.646,.172-.21,.269-.482,.437-.698,.167-.215,.361-.41,.523-.63s.354-.419,.51-.644c.155-.224,.251-.489,.401-.717s.344-.428,.488-.661,.273-.385,.411-.621c.281,.146,.486,.223,.712,.345,.29,.156,.552,.267,.762,.389,.315,.182,.613,.236,.786,.359,.435,.312,.481,.546,.481,.726,0,.174-.177,.357-.505,.44-.168,.043-.42-.012-.697-.004-.154,.218-.217,.535-.381,.747s-.328,.429-.501,.634-.42,.347-.602,.544-.377,.381-.566,.571-.353,.407-.549,.589-.375,.387-.578,.562-.509,.226-.718,.393-.363,.405-.579,.564-.502,.217-.723,.368-.42,.332-.646,.476-.428,.326-.659,.461-.493,.215-.729,.342-.453,.289-.693,.407-.499,.196-.743,.304c-.246,.109-.44,.339-.688,.439-.25,.1-.564,.025-.815,.115-.253,.09-.476,.309-.731,.388-.192-.021-.206-.164-.19-.347Zm1.441-13.969c.202-.157,.391-.335,.593-.505,.196-.165,.334-.397,.529-.574,.19-.172,.372-.353,.561-.536,.184-.179,.441-.288,.624-.477,.179-.185,.356-.375,.533-.57,.173-.19,.343-.387,.515-.586,.168-.194,.287-.432,.452-.634,.163-.2,.368-.367,.529-.575,.158-.204,.247-.462,.403-.674,.153-.208,.464-.304,.614-.518,.149-.212,.271-.448,.417-.667,.144-.216,.228-.5,.369-.722,.274,.154,.52,.33,.74,.456,.283,.163,.503,.339,.71,.464,.309,.187,.575,.277,.745,.399,.442,.317,.436,.472,.436,.654,0,.191-.114,.25-.461,.335-.175,.043-.4,.12-.698,.12-.187,.194-.375,.418-.573,.606-.195,.186-.32,.455-.525,.635-.203,.178-.44,.324-.652,.495-.21,.17-.433,.33-.652,.493-.217,.162-.49,.247-.715,.401-.223,.153-.373,.421-.603,.566-.229,.144-.461,.294-.697,.43-.235,.135-.52,.187-.762,.313-.241,.125-.491,.233-.737,.349s-.478,.265-.729,.371-.525,.243-.78,.338c-.19-.014-.19-.204-.186-.387Zm.119,6.504c.216-.153,.419-.328,.634-.495,.209-.162,.363-.395,.57-.57,.203-.171,.396-.351,.597-.534,.196-.178,.461-.285,.655-.474,.19-.185,.378-.377,.566-.573,.184-.192,.364-.391,.546-.593,.178-.198,.308-.44,.484-.647,.172-.203,.385-.374,.554-.586,.166-.208,.262-.47,.425-.686,.161-.213,.478-.313,.635-.534,.155-.218,.283-.459,.435-.684,.149-.221,.218-.498,.363-.726,.144-.226,.318-.436,.457-.668,.138-.23,.278-.419,.411-.655,.274,.142,.517,.206,.737,.323,.283,.15,.498,.331,.704,.446,.31,.173,.501,.364,.671,.478,.448,.299,.489,.346,.489,.529,0,.173-.058,.326-.361,.425-.158,.051-.323,.186-.601,.186-.159,.21-.322,.365-.488,.566-.167,.203-.347,.396-.522,.59-.176,.195-.42,.325-.603,.511-.184,.188-.272,.474-.463,.652-.192,.18-.383,.365-.581,.535s-.461,.269-.665,.431-.423,.31-.634,.463-.403,.339-.62,.484-.422,.317-.645,.453-.528,.135-.756,.263-.412,.336-.645,.455-.519,.128-.756,.239-.456,.255-.697,.358-.459,.247-.703,.341c-.191-.015-.202-.121-.192-.304Z"/>
      <path class="cls-1" d="M36.386,21.328c.224-.14,.48-.312,.698-.463s.518-.19,.73-.35,.322-.45,.526-.619,.408-.337,.605-.514,.495-.249,.685-.434c.191-.185,.322-.432,.504-.624,.183-.193,.323-.425,.497-.624,.175-.201,.377-.379,.542-.584,.167-.208,.303-.438,.459-.65,.158-.215,.319-.426,.465-.645,.149-.222,.233-.48,.369-.704,.138-.229,.329-.423,.452-.654,.123-.229,.339-.413,.455-.649,.114-.233,.08-.537,.186-.778,.104-.236,.331-.424,.428-.67,.095-.24,.078-.525,.166-.774,.085-.243,.266-.458,.345-.71,.076-.244,.097-.51,.167-.765,.068-.247,.214-.479,.276-.737,.06-.249,.04-.523,.095-.782,.053-.251,.077-.513,.125-.774,.047-.253,.151-.5,.193-.763,.041-.253,.007-.523,.043-.786,.036-.254,.02-.518,.052-.782,.031-.254,.134-.503,.161-.766,.026-.255-.014-.521,.01-.786,.022-.257,.128-.511,.147-.777,.019-.255-.036-.52-.02-.784,.015-.259,.137-.516,.15-.783,.012-.259-.034-.527-.024-.795,.286,.038,.567-.036,.811-.002,.293,.041,.53,.264,.767,.301,.305,.047,.595-.076,.819-.034,.335,.063,.563,.235,.752,.295,.449,.143,.586,.269,.586,.475,0,.196-.105,.43-.354,.594-.148,.097-.429,.104-.689,.194,.028,.26,.075,.551,.113,.809s.194,.496,.241,.752-.083,.549-.027,.804,.199,.492,.263,.744,.104,.514,.177,.764,.186,.49,.268,.737,.207,.48,.298,.724,.071,.534,.17,.775,.222,.476,.33,.713,.331,.421,.447,.654,.232,.466,.356,.694c.125,.229,.189,.493,.322,.717s.213,.485,.354,.703,.409,.355,.558,.567c.145,.207,.25,.448,.408,.655,.154,.201,.252,.453,.416,.653,.162,.196,.425,.311,.597,.504,.169,.191,.335,.387,.513,.574,.176,.185,.364,.361,.548,.542,.183,.179,.365,.36,.555,.534,.189,.173,.358,.37,.554,.537s.43,.285,.633,.444,.36,.377,.568,.528,.463,.236,.676,.379,.348,.413,.567,.547,.555,.162,.779,.287c.031,.18-.018,.273-.152,.398-.247,.029-.518,.1-.755,.179s-.515,.064-.735,.18c-.223,.118-.467,.224-.664,.369-.207,.153-.347,.388-.516,.557-.264,.264-.378,.342-.523,.342-.119,0-.255-.056-.47-.272-.198-.189-.42-.353-.611-.548s-.329-.441-.513-.642-.448-.335-.625-.542c-.178-.208-.386-.395-.556-.608-.171-.214-.338-.435-.5-.654-.164-.221-.256-.494-.41-.718-.156-.226-.281-.471-.428-.699-.148-.232-.253-.487-.391-.72-.14-.237-.33-.442-.458-.68-.131-.242-.253-.487-.372-.729-.115-.237-.313-.441-.42-.688-.105-.242-.197-.496-.294-.748-.096-.246-.036-.553-.124-.808-.087-.25-.27-.47-.35-.727-.078-.253-.057-.536-.128-.796-.069-.254-.225-.489-.287-.75-.061-.257-.009-.541-.064-.805-.054-.26-.145-.512-.192-.778-.046-.26-.239-.5-.279-.765-.039-.263,.116-.555,.083-.823-.032-.264-.143-.455-.169-.723-.028,.271-.011,.479-.046,.742-.036,.27-.11,.532-.154,.793-.044,.269-.194,.514-.246,.774-.053,.268-.101,.531-.162,.79-.062,.265-.096,.532-.166,.788-.071,.262-.111,.529-.19,.782-.081,.259-.078,.545-.167,.794-.091,.256-.291,.468-.39,.714-.101,.252-.171,.514-.281,.757-.111,.247-.159,.523-.279,.76-.122,.242-.309,.448-.439,.68-.132,.235-.339,.423-.479,.648-.142,.229-.258,.47-.409,.689-.151,.219-.207,.514-.374,.727-.165,.209-.373,.391-.551,.594-.176,.2-.482,.28-.671,.473-.187,.19-.229,.533-.427,.715-.197,.181-.435,.322-.642,.494-.206,.171-.523,.202-.737,.364-.213,.162-.311,.485-.532,.638s-.532,.168-.76,.311-.402,.373-.636,.505-.511,.183-.751,.305-.443,.32-.687,.431-.502,.197-.751,.297c-.25,.1-.512,.195-.764,.283-.201-.002-.273-.119-.269-.29Z"/>
      <path class="cls-1" d="M42.288,35.638c0,.269,.052,.551,.046,.808-.007,.269-.015,.533-.028,.79-.013,.269-.042,.532-.062,.787-.021,.269-.143,.521-.172,.776-.031,.268-.088,.521-.127,.773-.041,.267-.049,.529-.101,.779-.054,.265-.178,.501-.243,.748-.069,.261-.077,.527-.158,.77-.085,.255-.157,.505-.256,.742-.103,.246-.202,.487-.321,.716-.122,.236-.327,.414-.466,.633-.141,.222-.22,.48-.379,.687s-.319,.413-.496,.607c-.175,.192-.353,.384-.546,.564-.188,.176-.458,.259-.663,.426-.2,.163-.392,.332-.608,.488-.209,.15-.379,.4-.603,.546-.173-.044-.307-.101-.332-.278,.171-.212,.343-.502,.496-.714,.159-.218,.433-.35,.574-.572,.143-.225,.239-.478,.365-.712,.124-.233,.28-.453,.388-.699,.105-.239,.152-.506,.241-.762,.085-.244,.228-.479,.3-.743,.068-.248-.018-.539,.039-.807,.053-.25,.273-.478,.317-.749,.04-.253-.015-.529,.018-.801,.031-.255,.067-.517,.091-.791,.023-.256,.071-.52,.089-.794,.016-.257,.004-.524,.016-.799,.011-.258,.098-.521,.105-.795,.006-.26-.128-.529-.125-.804,.003-.26,.057-.489,.057-.764-.449-.132-.457-.058-.925-.047-.388,.009-.393-.074-.78-.054s-.381,.167-.77,.187-.533,.298-.792,.007c-.303-.34-.295-.586,.008-.927,.258-.29,.393-.006,.781,.014s.39,.002,.778,.022,.388-.015,.777-.006c.468,.011,.522,.335,.872,.024,.311-.276,.104-.346,.104-.761s-.086-.414-.086-.829,.14-.414,.14-.828-.171-.413-.171-.827c0-.416,.098-.416,.098-.831s-.135-.416-.135-.833,.216-.417,.216-.835,.001-.428-.145-.819c-.055-.146-.119-.133-.275-.127-.388,.014-.378,.237-.765,.257s-.395-.113-.784-.093-.504,.347-.763,.057c-.303-.341-.303-.549,0-.89,.258-.29,.374,.032,.761,.052s.395-.107,.783-.087,.384,.087,.773,.097,.386,.104,.774,.104,.388,.052,.775,.052,.389-.215,.778-.215,.388,.115,.776,.115,.388-.071,.776-.071,.387,.065,.775,.065c.389,0,.389-.104,.779-.104s.39,.159,.78,.159,.391,.052,.782,.052,.377-.137,.759-.217c.156-.197,.341-.278,.501-.473,.157-.191,.397-.315,.565-.509,.16-.185,.24-.506,.417-.698,.235,.179,.498,.338,.689,.486,.243,.188,.345,.488,.525,.631,.264,.211,.567,.255,.72,.39,.395,.35,.332,.536,.332,.665,0,.168-.032,.266-.272,.266-.401,0-.401-.011-.802-.011s-.401,.123-.803,.123-.403-.027-.805-.027-.435-.223-.816-.095c-.049,.288-.194,.479-.411,.575-.093,.369-.075,.39-.075,.771s.175,.38,.175,.76,.047,.38,.047,.76-.123,.379-.123,.758c0,.381,.08,.381,.08,.762s-.025,.382-.025,.763-.038,.383-.038,.766-.287,.502-.046,.799c.197,.242,.353-.088,.665-.088s.295,.026,.597-.05c.156-.197,.307-.313,.467-.508,.158-.191,.291-.409,.46-.604,.16-.185,.389-.27,.566-.462,.211,.182,.46,.226,.631,.375,.218,.191,.288,.487,.449,.631,.237,.213,.454,.337,.588,.47,.359,.355,.371,.455,.371,.586,0,.168-.073,.222-.313,.222-.367,0-.367,.111-.733,.111s-.366-.009-.732-.009c-.368,0-.368-.131-.736-.131s-.368,.004-.737,.004-.37,.173-.739,.173-.421-.288-.769-.163c0,.266,.062,.606,.063,.858,.001,.266,.082,.525,.083,.776,.001,.267-.048,.526-.046,.776,.002,.268-.134,.527-.132,.777,.002,.268,.082,.526,.085,.774,.002,.269-.025,.527-.022,.773,.003,.272-.074,.532-.071,.778,.003,.274,.069,.532,.073,.776,.004,.276,.158,.531,.162,.771,.005,.281-.203,.542-.198,.776,.005,.289,.112,.542,.117,.769,.007,.305,.08,.556,.085,.767,.008,.36,.046,.6,.046,.769,0,.266-.278,.466-.546,.644-.206,.137-.454,.274-.753,.343-.26,.061-.544,.087-.834,.087-.504,0-.69-.235-.69-.619,0-.183-.155-.435-.145-.805,.006-.222,.044-.486,.052-.806,.006-.237,.05-.503,.056-.805,.005-.245,.058-.512,.063-.806,.005-.25-.046-.52-.041-.809,.004-.252-.046-.521-.042-.805,.004-.255,.034-.523,.037-.806,.003-.258,.045-.527,.047-.808,.003-.26,.043-.53,.045-.811,.002-.261-.002-.531,0-.811,.002-.262,.004-.532,.005-.811,.001-.264,.017-.535,.018-.815,.001-.265-.065-.447-.064-.727-.352-.131-.342-.122-.718-.122s-.368-.015-.742-.061c-.389-.048-.416-.05-.771,.076Zm.386-7.321c-.049,.288-.114,.486-.331,.582-.093,.369,.003,.368,.003,.749s-.012,.38-.012,.76-.097,.38-.097,.76-.023,.379-.023,.758c0,.381,.038,.381,.038,.762s-.067,.382-.067,.763,.068,.383,.068,.766-.243,.508,.026,.78c.267,.27,.394-.006,.773-.006s.381,.089,.761,.089,.514,.193,.771-.087c.281-.306-.007-.424-.007-.84s-.009-.414-.009-.829,.115-.414,.115-.828-.018-.413-.018-.827-.12-.416-.12-.831-.071-.416-.071-.833-.012-.417-.012-.835,.452-.589,.138-.865c-.356-.313-.503,.083-.975,.034-.484-.05-.497-.154-.953-.022Zm4.104,18.789c.234-.133,.422-.318,.655-.465,.228-.144,.453-.294,.679-.45,.222-.153,.449-.301,.669-.466,.216-.161,.491-.252,.705-.424,.211-.169,.437-.327,.645-.505,.205-.176,.384-.386,.586-.571,.199-.182,.445-.322,.642-.513,.194-.189,.34-.431,.531-.628,.189-.195,.361-.408,.547-.61,.183-.2,.356-.412,.536-.619,.177-.205,.421-.357,.594-.568,.172-.21,.278-.476,.446-.692,.167-.215,.323-.439,.485-.66s.312-.447,.468-.672c.155-.224,.403-.387,.553-.616s.282-.471,.426-.704,.201-.543,.338-.779c.281,.146,.587,.219,.813,.34,.29,.156,.546,.285,.757,.407,.315,.182,.469,.459,.642,.583,.435,.312,.511,.439,.511,.619,0,.174-.151,.279-.479,.363-.168,.043-.371,.121-.648,.129-.154,.218-.362,.389-.526,.601s-.216,.515-.389,.72-.482,.289-.664,.487-.299,.453-.488,.644-.388,.369-.585,.552-.415,.338-.619,.513-.393,.364-.603,.531-.469,.267-.685,.426-.353,.428-.574,.579-.46,.279-.686,.423-.481,.242-.713,.376-.51,.183-.746,.31-.407,.38-.648,.497-.497,.207-.741,.316c-.246,.109-.497,.204-.745,.303-.25,.1-.492,.218-.744,.307-.253,.09-.522,.195-.777,.274-.186-.02-.186-.175-.17-.358Zm1.441-13.97c.202-.157,.353-.359,.555-.529,.196-.165,.388-.335,.583-.512,.19-.172,.386-.34,.575-.524,.184-.179,.437-.295,.62-.484,.179-.185,.375-.36,.553-.554,.173-.19,.318-.411,.49-.611,.168-.194,.387-.351,.553-.554,.163-.2,.273-.447,.434-.655,.158-.204,.3-.425,.455-.637,.153-.208,.295-.426,.445-.64,.149-.212,.37-.379,.516-.598,.144-.216,.208-.475,.349-.697,.274,.154,.515,.283,.736,.409,.283,.163,.529,.297,.736,.421,.309,.187,.472,.428,.642,.55,.442,.317,.458,.368,.458,.551,0,.191-.03,.379-.376,.465-.175,.043-.375,.133-.674,.133-.187,.194-.339,.373-.537,.561-.195,.186-.499,.258-.704,.439-.203,.178-.382,.387-.594,.559-.21,.17-.451,.302-.67,.465-.217,.162-.407,.363-.632,.517-.223,.153-.486,.245-.717,.39-.229,.144-.385,.414-.622,.549-.235,.135-.559,.111-.8,.237-.241,.125-.442,.328-.689,.444s-.498,.218-.75,.324-.504,.177-.759,.272c-.189-.015-.179-.106-.175-.288Zm.119,6.504c.216-.153,.381-.354,.596-.52,.209-.162,.415-.331,.623-.506,.203-.171,.411-.338,.612-.521,.196-.178,.457-.292,.651-.481,.19-.185,.397-.361,.585-.557,.184-.192,.34-.417,.522-.618,.178-.198,.407-.358,.582-.565,.172-.203,.292-.456,.461-.668,.166-.208,.315-.433,.477-.649,.161-.213,.31-.437,.467-.658,.155-.218,.382-.39,.533-.615,.149-.221,.227-.493,.372-.721,.144-.226,.277-.461,.416-.694,.138-.23,.27-.47,.403-.706,.274,.142,.469,.372,.69,.489,.283,.15,.532,.264,.738,.38,.31,.173,.6,.207,.77,.321,.448,.299,.568,.456,.568,.64,0,.173-.17,.454-.472,.552-.158,.051-.421-.06-.7-.06-.159,.21-.3,.454-.466,.655-.167,.203-.371,.372-.546,.566-.176,.195-.316,.422-.499,.609-.184,.188-.418,.322-.609,.501-.192,.18-.286,.468-.484,.638s-.513,.203-.718,.365-.357,.394-.568,.547-.432,.296-.65,.442-.454,.262-.677,.398-.436,.291-.664,.419-.495,.182-.727,.301-.406,.36-.643,.471-.487,.196-.728,.299-.498,.156-.742,.25c-.185-.015-.183-.12-.174-.303Z"/>
      <path class="cls-1" d="M49.944,58.503c0,.298-.067,.578-.181,.84-.116,.267-.275,.511-.481,.714s-.453,.357-.721,.47c-.263,.111-.545,.162-.841,.162s-.577-.051-.837-.161c-.267-.113-.508-.273-.711-.476s-.385-.435-.499-.702c-.111-.261-.174-.55-.174-.847s.076-.581,.187-.841c.113-.267,.262-.524,.466-.727s.451-.374,.718-.488c.261-.111,.554-.131,.851-.131s.574,.061,.838,.172c.268,.113,.514,.264,.72,.467s.389,.434,.505,.701c.114,.261,.161,.551,.161,.848Z"/>
      <path class="cls-1" d="M39.245,74.6c-.4,.01-.396,.122-.796,.142s-.404-.05-.804-.03-.606,.455-.877,.16c-.308-.336-.217-.636,.091-.972,.27-.295,.386,.014,.785,.034s.399,.048,.799,.068,.4,.052,.801,.062c.397,.01,.399-.146,.796-.146s.399,.135,.797,.135,.398-.068,.796-.068,.398,.108,.795,.108,.397-.057,.794-.057c.399,0,.399,.078,.798,.078s.4-.186,.799-.186,.401,.108,.801,.108,.487,.222,.772-.059c.282-.278,.123-.366,.123-.762s-.009-.396-.009-.792c0-.254-.193-.496-.197-.732-.005-.254,.026-.498,.016-.734-.01-.252,.12-.502,.105-.738-.016-.25-.081-.454-.101-.69,.287,.025,.52,.079,.765,.102,.293,.028,.553,.102,.793,.129,.305,.034,.575-.003,.803,.03,.332,.048,.573,.145,.769,.194,.495,.122,.592,.164,.592,.327,0,.215-.015,.446-.28,.599-.15,.086-.32,.114-.58,.218-.109,.345-.045,.337-.045,.699s-.132,.363-.132,.725,.039,.364,.039,.727-.189,.456,.088,.692c.324,.277,.396,.056,.822,.056s.426-.051,.851-.051c.428,0,.428,.109,.856,.109s.428-.062,.857-.062,.43,.008,.859,.008,.425,.002,.843-.094c.178-.237,.445-.351,.639-.593,.184-.229,.392-.446,.595-.686,.188-.223,.3-.533,.509-.772,.23,.164,.381,.411,.576,.552,.232,.168,.53,.198,.717,.337,.24,.177,.387,.408,.563,.544,.26,.202,.464,.348,.61,.48,.352,.318,.406,.442,.406,.591,0,.191-.111,.349-.303,.349-.432,0-.432-.16-.863-.16-.434,0-.434,.04-.868,.04s-.435,.15-.869,.15-.436-.146-.872-.146-.498-.186-.904-.028c-.049,.359-.286,.578-.599,.65-.044,.273,.037,.615-.015,.882-.053,.272-.182,.528-.243,.794-.062,.27-.064,.554-.135,.818-.072,.267-.18,.524-.261,.784-.082,.264-.292,.482-.383,.739-.092,.261-.05,.569-.151,.822-.103,.256-.183,.524-.295,.772-.114,.252-.369,.434-.493,.678-.125,.246-.218,.504-.353,.741-.137,.239-.334,.437-.48,.667-.148,.232-.209,.519-.367,.741-.16,.224-.366,.434-.536,.647,.22,.15,.499,.244,.729,.387,.226,.14,.388,.393,.624,.527,.232,.131,.478,.246,.719,.371,.237,.122,.503,.193,.749,.309,.241,.113,.498,.196,.748,.304,.244,.105,.496,.196,.749,.296,.246,.097,.466,.273,.721,.366,.25,.091,.537,.083,.795,.169,.253,.085,.516,.141,.777,.222,.253,.078,.499,.189,.76,.264,.257,.073,.515,.152,.78,.222,.258,.068,.545,.151,.81,.216,.083,.162,.021,.226-.091,.369-.297,.081-.58,.2-.839,.367-.257,.166-.423,.438-.629,.668s-.345,.48-.489,.751c-.193,.384-.385,.428-.625,.428-.096,0-.256,.072-.448,0-.257-.086-.47-.288-.72-.38-.254-.094-.508-.175-.754-.274-.251-.101-.481-.237-.724-.344-.247-.109-.547-.095-.785-.21-.243-.117-.508-.19-.743-.313-.238-.126-.381-.42-.611-.553-.233-.135-.496-.213-.721-.355-.227-.143-.434-.312-.652-.463-.221-.152-.518-.199-.73-.359-.214-.161-.432-.322-.637-.491-.206-.171-.371-.317-.569-.496-.119,.096-.163,.194-.284,.314-.201,.164-.476,.247-.687,.4-.21,.152-.481,.213-.701,.356-.218,.141-.358,.408-.585,.539-.224,.13-.505,.157-.738,.278-.23,.119-.414,.337-.651,.446-.235,.108-.462,.249-.704,.348-.24,.098-.557,.002-.803,.091-.244,.088-.476,.205-.726,.284-.247,.079-.465,.261-.717,.331-.25,.069-.492,.18-.747,.241-.252,.06-.522,.056-.779,.108-.255,.051-.532-.018-.79,.025-.256,.043-.499,.169-.758,.203s-.513,.111-.774,.137c-.259,.026-.574,.061-.836,.079-.137-.114-.2-.253-.14-.421,.266-.069,.589-.153,.851-.23,.263-.078,.549-.082,.809-.169,.261-.087,.468-.321,.725-.416,.258-.096,.573-.04,.826-.144,.255-.105,.486-.262,.735-.375,.251-.114,.512-.204,.756-.325,.246-.123,.509-.216,.748-.347,.242-.133,.421-.372,.654-.512,.237-.143,.46-.298,.687-.449,.23-.152,.455-.303,.674-.464,.223-.163,.487-.268,.698-.439,.214-.174,.466-.304,.668-.486,.205-.185,.27-.513,.46-.705,.168-.169,.398-.288,.542-.481-.174-.21-.279-.448-.441-.666s-.287-.46-.436-.686-.38-.402-.518-.636-.236-.491-.363-.731-.178-.516-.294-.762-.351-.437-.457-.688-.125-.536-.221-.79-.31-.468-.397-.726c-.087-.271,.003-.594-.071-.868s-.183-.537-.247-.814-.214-.533-.271-.812c-.056-.277,.044-.584-.007-.864s-.203-.548-.251-.829c-.384-.126-.406-.067-.81-.067s-.405,.071-.809,.071-.4-.059-.805-.088c-.409-.03-.415,.002-.82,.012Zm3.865,.004c.081,.239,.209,.543,.292,.778,.083,.237,.101,.496,.188,.73s.321,.41,.415,.642,.078,.508,.181,.737c.103,.226,.221,.447,.336,.671,.123,.242,.226,.496,.359,.732s.253,.483,.396,.713,.414,.377,.568,.6,.205,.521,.37,.736,.389,.383,.566,.589,.279,.481,.467,.677,.446,.356,.645,.541c.142-.22,.368-.418,.499-.644s.094-.545,.214-.777,.332-.417,.443-.654,.15-.504,.251-.745,.323-.435,.414-.679,.171-.497,.253-.745-.021-.553,.052-.804,.179-.489,.244-.742,.266-.473,.323-.727,.081-.518,.132-.774,.077-.58,.12-.838c-.36-.128-.404-.05-.786-.05s-.383,.071-.765,.071-.384-.052-.768-.052-.383,.047-.767,.047-.383,.141-.766,.141-.382-.015-.765-.015c-.384,0-.384-.049-.769-.049s-.385-.132-.77-.132-.382,.103-.763,.04c-.404-.067-.443-.144-.808-.018Z"/>
      <path class="cls-1" d="M36.693,107.997c.132-.222,.356-.468,.484-.693s.182-.491,.307-.719,.387-.381,.508-.611,.094-.536,.211-.768,.384-.39,.497-.624,.164-.499,.273-.735,.182-.489,.288-.726,.28-.447,.381-.685,.234-.468,.331-.709c.098-.242,.194-.485,.288-.726,.094-.243,.097-.521,.186-.764,.09-.246,.078-.527,.164-.772,.086-.247,.259-.463,.34-.709,.082-.249,.177-.491,.253-.738,.077-.25,.227-.477,.298-.724,.072-.253,.036-.533,.102-.783,.067-.253,.133-.502,.193-.751,.061-.254,.102-.562,.156-.812,.268,.077,.521,.298,.75,.366,.271,.08,.546,.05,.767,.118,.281,.086,.513,.196,.722,.267,.307,.104,.592,.078,.771,.159,.41,.186,.421,.424,.421,.591,0,.217-.104,.264-.401,.386-.164,.067-.349,.217-.63,.277-.083,.251-.117,.536-.218,.797-.096,.249-.176,.514-.287,.77-.107,.246-.281,.469-.401,.72-.116,.243-.221,.496-.348,.742-.124,.24-.23,.495-.365,.737-.132,.237-.242,.392-.383,.63,.362,.089,.588,.155,.806,.227,.55,.183,.764,.391,.764,.545,0,.288-.208,.45-.809,.738-.189,.329,.004,.338,.004,.717s-.054,.38-.054,.761-.104,.38-.104,.761c0,.272,.008,.538,.008,.798,0,.273,.178,.538,.178,.798,0,.273-.134,.539-.133,.798,.001,.274,.052,.539,.053,.796,.001,.274-.065,.539-.064,.796,.002,.276,.036,.542,.038,.798,.002,.278,.133,.543,.135,.797,.003,.279-.122,.546-.119,.799,.003,.28,.085,.543,.088,.792,.004,.285-.08,.551-.076,.796,.005,.292,.023,.556,.027,.795,.006,.305,.043,.567,.047,.792,.006,.353,.044,.612,.044,.79,0,.27-.164,.518-.398,.697-.183,.141-.422,.328-.723,.396-.236,.053-.527-.061-.823-.061-.504,0-.728-.192-.728-.576,0-.182,.005-.435,.015-.775,.006-.22,.06-.475,.069-.77,.007-.233-.023-.492-.016-.775,.007-.239-.095-.5-.088-.778,.006-.243-.015-.502-.009-.776,.005-.245,.027-.502,.032-.773,.005-.247,.014-.505,.019-.774,.004-.249,.066-.506,.07-.774,.003-.25-.072-.51-.069-.778,.003-.252,.074-.51,.077-.778,.002-.253-.038-.512-.036-.779,.002-.253,.04-.512,.041-.778,0-.254-.017-.515-.016-.782,0-.255,.035-.516,.035-.782,0-.576-.005-.567-.097-1.136-.152,.212-.248,.375-.405,.584s-.326,.408-.488,.613-.35,.388-.517,.589c-.168,.202-.219,.501-.391,.697-.174,.198-.452,.3-.629,.491-.179,.192-.35,.387-.532,.571-.185,.187-.355,.325-.543,.502-.207,.067-.28,.072-.34-.098Zm13.246-4.499c.228-.136,.382-.238,.612-.386,.223-.144,.399-.363,.623-.519,.218-.152,.53-.18,.748-.342,.213-.158,.327-.453,.541-.622,.208-.164,.524-.202,.734-.377,.205-.171,.367-.398,.572-.579,.199-.175,.374-.383,.574-.566,.197-.181,.447-.311,.645-.5,.193-.185,.352-.323,.545-.516,.215,.15,.346,.271,.529,.4,.217,.153,.467,.215,.642,.343,.223,.163,.479,.223,.642,.351,.24,.188,.362,.415,.497,.543,.302,.286,.357,.449,.357,.592,0,.24-.181,.318-.685,.318-.168,0-.358,.085-.598,.037-.237,.134-.481,.262-.74,.394-.244,.125-.475,.296-.735,.418-.249,.117-.572,.085-.834,.199-.254,.11-.471,.317-.736,.423-.258,.103-.532,.174-.798,.273-.262,.097-.486,.312-.754,.404-.265,.091-.584,.024-.853,.109s-.551,.117-.822,.195-.525,.253-.797,.324c-.12,.391,.066,.413,.066,.822s.026,.409,.026,.818-.067,.41-.067,.821,.019,.41,.019,.819,.027,.409,.027,.819,.035,.409,.035,.817c0,.411-.025,.411-.025,.822s.019,.411,.019,.823-.005,.413-.005,.825-.007,.413-.007,.825c0,.349-.028,.558,.233,.704,.164,.091,.398,.252,.784,.288,.226,.021,.505,.027,.833,.035,.245,.006,.523-.169,.833-.169,.267,0,.512,.132,.735,.126,.272-.007,.513-.069,.729-.085,.283-.022,.532,.017,.735-.021,.297-.055,.519-.161,.693-.252,.242-.126,.293-.366,.426-.565,.125-.191,.358-.343,.48-.583,.109-.214,.145-.476,.247-.712,.099-.229,.276-.43,.365-.663,.092-.241,.153-.473,.229-.702,.172-.062,.243-.092,.364,.045-.028,.305-.015,.632-.035,.94-.021,.325-.065,.64-.077,.93-.015,.366,.055,.687,.055,.923,0,.25,.161,.43,.422,.625,.216,.162,.399,.321,.399,.648,0,.283-.067,.517-.256,.748-.148,.181-.371,.292-.674,.434-.217,.102-.453,.225-.764,.304-.241,.062-.492,.222-.797,.269-.253,.039-.529,.099-.829,.127-.258,.024-.539,.027-.834,.042-.264,.014-.546,.019-.842,.026-.267,.006-.549-.049-.844-.049-.299,0-.583,.077-.852,.074-.303-.003-.586-.078-.851-.086-.306-.009-.592,.021-.852,.005-.314-.019-.594-.081-.846-.112-.324-.04-.608-.072-.844-.134-.333-.087-.577-.233-.765-.374-.24-.18-.475-.384-.551-.67-.063-.238,.069-.543,.069-.868,0-.204,.02-.427,.033-.8,.007-.212,.046-.471,.056-.801,.007-.23-.143-.498-.135-.804,.006-.241,.149-.504,.155-.8,.005-.246-.002-.513,.003-.802,.004-.25,.038-.516,.042-.802,.004-.253-.009-.52-.006-.803,.003-.255-.094-.524-.092-.804,.003-.257,.074-.524,.077-.803,.002-.258-.147-.527-.145-.805,.002-.258,.125-.525,.127-.802,.002-.259-.008-.526-.007-.802,.001-.26,.031-.527,.032-.802,.001-.261,.024-.528,.025-.803,0-.261-.141-.529-.14-.804,0-.263,.133-.531,.134-.806,0-.263-.066-.531-.065-.805,0-.264,.106-.533,.107-.808,0-.264-.055-.534-.055-.809,0-.256,.076-.5,.075-.734-.002-.254-.186-.495-.189-.729-.003-.253,.097-.498,.092-.733-.006-.249-.083-.488-.091-.725-.008-.245,.08-.415,.069-.656,.286,.025,.485,.06,.729,.084,.293,.029,.577-.129,.815-.102,.304,.034,.563,.104,.788,.136,.332,.047,.56,.23,.753,.275,.546,.127,.585,.179,.585,.328,0,.189-.083,.304-.369,.479-.151,.092-.426,.206-.699,.306-.115,.368,.065,.417,.065,.803s-.051,.387-.051,.773,.046,.386,.046,.772,.138,.386,.138,.771-.014,.385-.014,.77c0,.387-.048,.387-.048,.774s-.129,.388-.129,.775,.055,.387,.038,.775c-.016,.381,.008,.384,.138,.751Z"/>
      <path class="cls-1" d="M36.478,142.003c.185-.202,.321-.475,.498-.683s.388-.387,.557-.601,.446-.35,.607-.571,.306-.457,.458-.685,.174-.537,.317-.771,.311-.448,.444-.688,.304-.429,.426-.675c.272,.122,.48,.257,.7,.358,.281,.13,.534,.216,.74,.317,.306,.15,.504,.322,.676,.423,.463,.271,.472,.319,.472,.477,0,.264-.129,.515-.873,.563-.198,.177-.45,.231-.658,.399-.207,.167-.4,.352-.617,.508s-.386,.383-.61,.529-.436,.32-.666,.454c-.232,.135-.5,.21-.737,.331-.239,.122-.459,.293-.701,.4-.246,.109-.54,.182-.788,.274-.198-.006-.234-.18-.245-.359Zm6.815-20.171c.139-.325,.19-.593,.306-.776,.246-.386,.533-.493,.712-.493,.211,0,.343,.148,.706,.372,.172,.106,.387,.24,.666,.456,.241,.197,.517,.248,.646,.38,.294,.302,.324,.517,.324,.668,0,.288-.262,.492-.861,.78-.224,.556-.031,.612-.031,1.212,0,.272,.03,.538,.03,.798,0,.273-.06,.539-.06,.798,0,.274,.006,.54,.006,.799,0,.275,.177,.54,.178,.799,.001,.276-.129,.543-.127,.8,.002,.276,.033,.542,.035,.799,.002,.277,.095,.542,.097,.797,.003,.278,.043,.542,.046,.795,.003,.281-.055,.548-.052,.8,.004,.284,.067,.549,.072,.799,.005,.286-.027,.551-.022,.797,.006,.291,.029,.555,.035,.795,.007,.299-.091,.564-.085,.796,.009,.316,.104,.572,.11,.789,.01,.347-.15,.591-.15,.792,0,.284,.003,.571-.233,.737-.189,.133-.507,.068-.807,.126-.242,.047-.494,.14-.786,.14-.408,0-.636-.139-.636-.548,0-.264,.268-.436,.05-.584-.322-.218-.428-.047-.817-.047s-.39,0-.779,0-.391,.1-.782,.1-.378-.031-.745,.104c-.135,.05-.029,.044-.029,.188,0,.219-.163,.429-.442,.603-.187,.116-.447,.129-.745,.191-.231,.048-.474,.187-.764,.187-.408,0-.64-.213-.64-.621,0-.193-.048-.434-.037-.818,.006-.219,.182-.482,.19-.814,.005-.237-.101-.509-.096-.819,.005-.246,.044-.517,.048-.818,.004-.252-.125-.527-.121-.821,.003-.256,.178-.527,.181-.818,.003-.259,.059-.532,.061-.82,.002-.26-.096-.533-.094-.819,.002-.262-.066-.535-.065-.82,.001-.264-.025-.537-.024-.821,.001-.265,.072-.539,.073-.823,0-.266-.018-.541-.017-.824,0-.267-.027-.541-.026-.823,0-.268-.036-.544-.036-.827,0-.269,.027-.545,.027-.828s-.02-.542-.02-.784c0-.277,.004-.532,.001-.777-.003-.267,0-.52-.007-.774-.007-.253,.04-.508,.027-.776-.012-.244,.047-.43,.028-.708,.284,.082,.468,.164,.703,.236,.292,.089,.603-.007,.827,.066,.311,.102,.516,.325,.717,.404,.385,.15,.607,.214,.727,.312,.417,.043,.418,.072,.837,.072s.42-.067,.84-.034c.423,.034,.433,.08,.833-.052Zm-2.693,.734c-.203,.063-.149,.098-.2,.305-.103,.415-.047,.403-.047,.831s-.139,.429-.139,.857,.016,.43,.016,.86-.16,.49,.128,.808c.261,.288,.332,.013,.721,.013s.39,.073,.779,.073,.391,.028,.782,.028,.521,.231,.804-.039c.269-.257,.071-.396,.071-.768,0-.374-.004-.374-.004-.748s-.175-.375-.175-.749,.131-.376,.131-.751,.223-.489-.034-.763c-.242-.257-.365,.085-.718,.085s-.354,.038-.707,.038-.359-.037-.713-.062-.357-.125-.696-.019Zm-.276,4.408c-.273,.267,.079,.358,.079,.74s-.05,.384-.05,.767-.139,.384-.139,.769,.016,.385,.016,.771-.149,.445,.125,.716c.277,.274,.335,.016,.724,.016s.39,.073,.779,.073,.391,.028,.782,.028,.525,.234,.805-.039c.273-.267,.071-.405,.071-.787,0-.384-.004-.384-.004-.767s-.175-.384-.175-.769,.131-.385,.131-.771,.239-.511-.034-.782c-.277-.274-.401,.086-.79,.086s-.39,.038-.779,.038-.408,.013-.791-.063c-.398-.079-.469-.299-.749-.026Zm0,4.512c-.285,.302,.078,.392,.078,.807s-.05,.417-.05,.834-.139,.418-.139,.836,.016,.419,.016,.838-.158,.479,.127,.786c.265,.285,.333,.014,.722,.014s.39,.073,.779,.073,.391,.028,.782,.028,.538,.244,.806-.04c.285-.302,.07-.438,.07-.853,0-.417-.004-.417-.004-.834s-.175-.418-.175-.836,.131-.419,.131-.838,.251-.542-.034-.849c-.265-.285-.401,.085-.79,.085s-.39,.038-.779,.038-.409,.016-.792-.063c-.398-.082-.48-.311-.748-.027Zm2.551,6.095c.252,.024,.532-.014,.765,.03,.249,.047,.483,.155,.708,.223,.244,.073,.424,.286,.638,.379,.234,.102,.448,.196,.645,.317,.218,.135,.503,.164,.674,.318,.241,.23,.41,.516,.539,.776,.14,.283,.143,.599,.143,.912,0,.27-.081,.487-.185,.695-.115,.231-.247,.417-.456,.545-.206,.126-.431,.13-.692,.13-.338,0-.557-.062-.775-.271-.185-.178-.468-.356-.556-.72-.067-.291-.023-.607-.119-.873-.103-.285-.249-.545-.378-.791-.144-.274-.374-.468-.54-.681-.198-.254-.447-.452-.658-.598-.093-.173,.102-.292,.248-.392Zm6.403-11.005c-.15,0-.445,.084-.793,.103-.254,.014-.537-.019-.804-.004-.304,.017-.508-.039-.718-.032-.103-.444-.106-.431-.015-.878,.184,.008,.411-.067,.731-.049,.264,.015,.545,.069,.801,.082,.366,.019,.675,.107,.798,.107,.443,0,.443,.029,.885,.029s.443-.03,.887-.03,.445,.061,.889,.061,.59,.247,.944-.023c.27-.206-.14-.411-.14-.75s.132-.34,.132-.681-.03-.34-.03-.681c0-.255-.092-.497-.095-.729-.003-.255-.045-.494-.05-.725-.006-.255,.049-.497,.04-.728-.01-.253-.081-.488-.094-.717-.014-.251,.034-.552,.016-.782,.266,.026,.569,.017,.797,.041,.269,.029,.502,.161,.723,.188,.279,.034,.535-.02,.745,.012,.306,.046,.51,.255,.694,.301,.445,.111,.669,.135,.669,.282,0,.201-.218,.246-.461,.391-.135,.08-.293,.243-.533,.346-.103,.4,.039,.42,.039,.833,0,.415-.08,.415-.08,.83s-.036,.415-.036,.831,0,.417,0,.833-.065,.453,.101,.835c.072,.166,.158-.035,.326-.101,.156-.205,.345-.31,.505-.509,.158-.196,.333-.38,.502-.58,.16-.189,.322-.294,.499-.494,.215,.185,.419,.242,.593,.393,.223,.193,.411,.363,.575,.508,.243,.216,.464,.345,.602,.479,.376,.367,.264,.529,.264,.662,0,.168-.02,.326-.286,.326-.446,0-.446-.035-.892-.035s-.447,.133-.893,.133-.448-.172-.896-.172-.499-.177-.928-.049c0,.267,.021,.637,.022,.893,.001,.267,.072,.528,.074,.783,.001,.267,.03,.529,.032,.785,.002,.268-.067,.53-.065,.786,.002,.269,.024,.53,.026,.786,.002,.269,.033,.531,.036,.785,.003,.27,.042,.531,.045,.785,.003,.27-.02,.532-.017,.784,.004,.27,.027,.531,.031,.782,.004,.272,.003,.534,.007,.785,.005,.274,.002,.536,.007,.786,.005,.276-.046,.538-.041,.786,.006,.277-.098,.539-.092,.783,.007,.282,.021,.542,.028,.782,.007,.288,.2,.543,.206,.777,.008,.3-.127,.562-.121,.784,.008,.334,.065,.585,.065,.776,0,.295-.134,.552-.261,.81-.123,.249-.266,.484-.494,.681-.206,.178-.393,.45-.674,.572-.249,.108-.574,.066-.875,.121-.269,.049-.553,.156-.858,.156-.432,0-.448-.116-.567-.548-.075-.285-.19-.534-.328-.754-.14-.223-.346-.395-.581-.569-.196-.145-.441-.241-.721-.362-.226-.098-.481-.224-.773-.312-.092-.155-.155-.308-.032-.441,.28,.031,.619,.178,.88,.202,.277,.026,.546,.041,.809,.055,.273,.015,.543,.023,.81,.023,.41,0,.713-.001,.85-.131,.136-.129,.16-.429,.16-.848,0-.4-.114-.4-.114-.8s-.028-.401-.028-.802,.018-.401,.018-.801,.006-.4,.006-.801,.061-.4,.061-.799c0-.402-.082-.402-.082-.803s.073-.402,.073-.805-.044-.403-.044-.807,.134-.41,.039-.802c-.141,.22-.234,.457-.386,.674-.15,.214-.334,.407-.493,.618-.158,.209-.239,.482-.405,.688-.165,.204-.46,.303-.633,.502s-.356,.386-.534,.58-.382,.361-.566,.549c-.186,.189-.259,.491-.449,.672-.192,.183-.484,.255-.68,.43-.198,.176-.388,.356-.59,.523-.205,.17-.428,.308-.635,.467-.211,.162-.41,.33-.623,.48-.218,.154-.394,.391-.613,.531-.175-.036-.178-.097-.213-.273,.18-.198,.225-.461,.399-.669,.172-.205,.439-.332,.606-.546,.164-.211,.317-.433,.476-.652,.157-.215,.335-.418,.487-.642,.15-.22,.317-.433,.463-.661,.144-.225,.158-.532,.297-.764,.138-.229,.392-.391,.526-.627,.132-.233,.201-.502,.329-.741,.126-.236,.35-.424,.473-.666,.121-.237,.188-.505,.306-.748,.116-.24,.304-.451,.417-.696,.112-.243,.048-.568,.157-.816,.107-.244,.314-.447,.419-.696,.104-.247,.138-.525,.239-.776,.1-.249,.328-.449,.425-.701s.136-.623,.231-.88c-.338-.137-.398,.189-.763,.189s-.366-.039-.731-.039-.369-.157-.736-.146-.364,.11-.731,.11Z"/>
      <path class="cls-1" d="M0,12.307c.117-.238,.282-.463,.396-.709,.111-.239,.208-.489,.316-.735,.107-.242,.281-.459,.385-.708,.102-.245,.02-.567,.119-.817,.098-.247,.186-.498,.28-.751,.093-.249,.225-.485,.315-.739,.089-.251,.119-.523,.205-.779,.085-.253,.18-.502,.262-.76,.08-.253,.284-.469,.361-.727,.076-.255,.047-.542,.12-.801,.072-.257,.298-.473,.368-.734,.069-.258,.081-.534,.146-.796,.065-.259,.097-.527,.158-.789,.061-.261,.067-.535,.125-.799,.057-.261,.111-.524,.165-.789s.111-.605,.163-.873c.258,.064,.579,.113,.8,.169,.261,.067,.471,.23,.683,.288,.271,.074,.492,.18,.693,.242,.297,.092,.517,.172,.688,.247,.386,.171,.592,.271,.592,.437,0,.221-.155,.415-.449,.545-.154,.068-.439,.022-.719,.096-.088,.267-.213,.56-.311,.831-.096,.265-.197,.527-.303,.794-.104,.263-.045,.595-.158,.859-.111,.26-.241,.517-.361,.777-.119,.257-.394,.442-.522,.698-.127,.254-.205,.564-.341,.816,.336,.086,.624,.154,.829,.224,.483,.164,.56,.287,.56,.456,0,.288-.208,.354-.807,.642-.189,.329,.206,.433,.206,.813s-.156,.38-.156,.761-.065,.38-.065,.761c0,.283,.105,.56,.106,.83,0,.284,.092,.56,.093,.829,0,.284,.004,.561,.005,.829,0,.285-.118,.561-.116,.829,.001,.285,.007,.561,.009,.827,.002,.287-.039,.564-.037,.829,.002,.29,.182,.565,.185,.829,.003,.291-.122,.569-.119,.831,.003,.292-.036,.568-.033,.825,.004,.297,.165,.57,.169,.824,.005,.305-.164,.582-.16,.829,.006,.318,.087,.589,.091,.821,.007,.37,.053,.636,.053,.821,0,.266-.15,.516-.374,.694-.179,.142-.458,.139-.749,.208-.233,.056-.476,.084-.766,.084-.504,0-.833-.146-.833-.53,0-.188,.004-.451,.014-.805,.007-.227,.046-.491,.055-.8,.007-.24,.039-.506,.047-.802,.007-.247,.037-.514,.044-.804,.006-.252,.112-.518,.117-.803,.005-.254-.071-.524-.066-.807,.004-.256,.073-.522,.078-.802,.004-.257-.03-.526-.026-.805,.003-.259,.065-.527,.067-.805,.003-.261-.214-.532-.212-.81,.002-.262,.117-.53,.118-.808,.001-.262,.043-.531,.044-.808,0-.264,.032-.534,.033-.811,0-.264-.036-.535-.036-.812,0-.384,.152-.42,.063-.793-.135,.198-.428,.386-.568,.584-.138,.196-.197,.451-.339,.645s-.357,.335-.504,.526-.241,.425-.394,.612-.345,.313-.503,.495c-.179,.071-.225,.021-.3-.146ZM8.727,7.552c0,.272-.054,.537-.053,.796,0,.273,.016,.539,.017,.796,0,.274-.073,.54-.073,.797,0,.275,.199,.539,.2,.796,.001,.276,.01,.54,.012,.795,.002,.276-.04,.541-.038,.794,.002,.278,.064,.542,.067,.793,.003,.282-.008,.548-.005,.798,.004,.285-.124,.551-.12,.797,.005,.289,.117,.55,.122,.79,.006,.297-.149,.563-.144,.793,.008,.321,.072,.58,.079,.792,.013,.424,.053,.653,.053,.783,0,.247-.107,.516-.352,.688-.182,.127-.445,.239-.734,.303-.231,.051-.505,.121-.791,.121-.434,0-.775-.32-.775-.656,0-.179,.11-.421,.119-.767,.005-.214,.052-.466,.059-.768,.005-.228,.011-.483,.017-.77,.005-.235-.12-.494-.115-.774,.004-.24,.032-.496,.036-.772,.004-.243,.144-.498,.147-.771,.003-.244,.02-.501,.023-.77,.002-.246,.007-.503,.009-.772,.002-.248-.177-.507-.176-.775,.002-.25,.017-.508,.018-.776,.001-.251,.17-.508,.171-.775,0-.251-.056-.51-.056-.776,0-.253-.021-.513-.021-.779,0-.254,.07-.514,.07-.78,0-.309,.028-.597,.026-.865-.002-.31-.226-.591-.23-.856-.005-.309,.143-.595,.134-.86-.01-.302-.001-.493-.016-.764,.321,.04,.544-.005,.805,.031,.335,.046,.638-.001,.887,.039,.366,.059,.653,.112,.867,.163,.609,.146,.634,.357,.634,.519,0,.159-.057,.297-.324,.463-.136,.084-.374,.176-.624,.265-.111,.461,.173,.49,.176,.964s-.102,.475-.102,.949Zm-1.456,14.639c.26-.058,.538-.074,.798-.14,.258-.066,.513-.152,.77-.226,.256-.074,.536-.082,.791-.164s.444-.354,.696-.444,.497-.189,.746-.286,.511-.157,.757-.261,.464-.266,.707-.378,.488-.213,.727-.332,.537-.125,.772-.251,.417-.351,.648-.484,.544-.133,.771-.274c.228-.141,.423-.335,.645-.483,.223-.149,.425-.327,.642-.483,.218-.157,.399-.36,.61-.524,.212-.165,.417-.333,.622-.504,.206-.172,.378-.377,.575-.555,.199-.181,.392-.359,.582-.545,.191-.189,.451-.306,.631-.501,.183-.197,.363-.356,.534-.559,.245,.141,.436,.263,.634,.38,.253,.149,.538,.169,.723,.284,.275,.171,.472,.33,.626,.443,.392,.287,.336,.471,.336,.626,0,.216-.134,.273-.904,.273-.182,.186-.415,.388-.609,.565-.193,.176-.273,.484-.476,.65-.202,.165-.42,.317-.632,.474-.21,.155-.52,.168-.739,.314-.217,.145-.405,.332-.63,.468-.223,.135-.439,.284-.669,.411-.229,.125-.492,.184-.727,.301-.234,.116-.479,.201-.719,.309-.238,.107-.391,.413-.634,.512s-.543,.049-.79,.14-.512,.115-.761,.198-.465,.261-.716,.336-.48,.234-.734,.301-.51,.133-.765,.192-.538-.003-.795,.049-.514,.103-.772,.147-.523,.041-.782,.077c-.261,.036-.5,.244-.76,.272s-.535-.075-.795-.055c-.262,.02-.503-.003-.763,.009-.186-.061-.222-.104-.171-.28Zm1.129-3.192c.248-.091,.52-.142,.766-.242,.245-.1,.484-.219,.726-.328,.241-.108,.515-.155,.753-.272s.383-.413,.617-.539,.458-.259,.687-.393,.476-.232,.701-.373,.411-.335,.631-.484,.441-.288,.655-.445,.504-.212,.712-.376,.344-.415,.546-.587,.507-.227,.703-.406,.35-.405,.539-.591,.351-.399,.532-.592,.351-.446,.524-.647c.232,.119,.483,.23,.671,.328,.241,.125,.468,.199,.646,.295,.265,.143,.469,.264,.619,.359,.368,.234,.377,.437,.377,.59,0,.216-.225,.294-.898,.39-.195,.186-.415,.376-.628,.554-.208,.173-.345,.445-.568,.609-.218,.161-.46,.3-.691,.452-.227,.149-.532,.178-.77,.318-.234,.138-.477,.258-.721,.387-.241,.128-.483,.247-.732,.366-.246,.118-.422,.396-.675,.505-.251,.108-.514,.2-.77,.299s-.571,.035-.831,.124-.502,.227-.764,.306-.521,.174-.786,.243c-.267,.069-.548,.065-.815,.123-.269,.059-.541,.083-.809,.131-.272,.048-.553,.305-.823,.341-.188-.05-.166-.268-.123-.445Zm.672-6.912c.229-.116,.484-.193,.706-.314,.224-.123,.439-.263,.656-.392,.22-.131,.478-.202,.691-.339,.216-.139,.318-.444,.526-.589,.21-.146,.408-.299,.611-.452,.204-.154,.428-.275,.624-.435,.198-.162,.35-.37,.54-.538s.383-.328,.566-.504,.463-.283,.638-.467c-.169-.223-.427-.412-.583-.65-.154-.235-.163-.56-.301-.807s-.315-.469-.432-.725-.25-.502-.346-.766c-.171,.232-.3,.492-.483,.717-.182,.223-.37,.446-.563,.661-.193,.214-.364,.455-.568,.66-.203,.204-.417,.405-.631,.6-.213,.194-.501,.306-.724,.491-.222,.183-.441,.321-.673,.494-.177-.024-.184-.034-.227-.207,.149-.216,.178-.468,.318-.686,.142-.22,.298-.427,.43-.65,.134-.225,.381-.383,.506-.61,.126-.229,.261-.454,.378-.686s.235-.468,.344-.703,.05-.547,.152-.786,.211-.472,.305-.715,.341-.428,.428-.673,.115-.511,.195-.76c.079-.246,.134-.501,.207-.752,.072-.249,.209-.482,.276-.735,.066-.25,.099-.425,.159-.68,.303,.082,.56-.049,.808,.019,.314,.087,.543,.314,.777,.383,.342,.101,.58,.245,.781,.316,.571,.204,.679,.211,.679,.36,0,.216-.13,.489-.898,.584-.107,.264-.18,.482-.306,.736s-.35,.495-.482,.747c.351,.142,.39-.002,.768-.002s.378,.043,.756,.043c.38,0,.38-.177,.76-.177s.381,.128,.761,.128,.382,.043,.763,.043,.37-.072,.742-.155c.166-.207,.425-.287,.61-.514,.175-.215,.298-.483,.483-.7s.372-.473,.56-.677c.247,.201,.487,.404,.689,.569,.255,.21,.397,.485,.587,.645,.275,.232,.484,.413,.646,.561,.446,.409,.641,.474,.641,.594,0,.168-.21,.356-.45,.356-.42,0-.42-.031-.84-.031s-.434-.144-.836-.025c-.049,.264-.249,.482-.68,.555-.121,.227-.337,.4-.469,.616-.134,.219-.203,.474-.347,.683-.145,.211-.346,.376-.501,.576-.157,.203-.287,.42-.452,.613-.167,.194-.378,.34-.553,.524-.176,.185-.17,.432-.354,.608,.218,.117,.336,.25,.566,.357,.225,.105,.44,.242,.676,.337,.23,.093,.457,.21,.697,.293,.234,.081,.487,.123,.73,.194,.238,.07,.467,.2,.714,.261,.241,.059,.5,.069,.749,.119,.244,.049,.51-.006,.761,.034,.246,.039,.448,.135,.701,.166,.084,.161,.113,.201,.013,.353-.244,.089-.527,.175-.741,.343-.207,.163-.343,.412-.509,.621-.169,.213-.246,.466-.358,.698-.193,.408-.383,.561-.597,.561-.098,0-.21-.16-.403-.232-.249-.091-.495-.17-.733-.272-.244-.104-.545-.077-.777-.192-.237-.118-.453-.277-.678-.406-.229-.131-.414-.331-.63-.474-.221-.145-.415-.318-.622-.475-.21-.159-.43-.298-.625-.469-.199-.173-.406-.421-.589-.605-.217,.157-.494,.329-.718,.475s-.357,.439-.588,.576-.53,.152-.767,.278-.46,.273-.702,.39c-.241,.116-.447,.311-.694,.418-.245,.106-.482,.244-.733,.341-.249,.096-.524,.13-.778,.218s-.492,.229-.749,.307c-.256,.078-.557,.119-.817,.189-.187-.027-.189-.211-.165-.387Zm.072,3.456c.227-.124,.481-.21,.701-.341,.222-.131,.433-.28,.649-.419s.473-.221,.684-.368,.302-.457,.507-.613,.397-.318,.595-.482c.197-.163,.416-.296,.608-.468,.189-.171,.333-.388,.518-.569,.181-.178,.368-.349,.545-.538,.174-.186,.443-.288,.613-.484,.166-.192,.292-.486,.454-.689,.236,.12,.427,.378,.618,.476,.245,.126,.48,.186,.66,.283,.269,.146,.486,.235,.637,.331,.377,.243,.49,.367,.49,.521,0,.193-.159,.362-.469,.411-.152,.024-.326,.07-.587,.07-.193,.173-.37,.323-.579,.484-.206,.159-.482,.229-.701,.376-.216,.145-.458,.25-.685,.383-.224,.132-.452,.257-.686,.378-.232,.12-.412,.351-.651,.46-.238,.108-.491,.19-.735,.287s-.536,.06-.784,.146-.498,.152-.749,.227-.501,.142-.754,.207-.508,.301-.763,.355c-.188-.044-.163-.245-.131-.425ZM13.786,3.887c-.145,.216-.337,.449-.481,.665,.145,.23,.325,.472,.493,.689,.167,.215,.291,.476,.477,.677s.519,.254,.721,.438,.343,.33,.559,.497c.152-.19,.26-.317,.401-.512,.142-.197,.228-.427,.359-.629,.133-.203,.269-.397,.392-.605s.355-.354,.47-.567,.172-.37,.278-.587c-.347-.12-.342-.156-.709-.156-.369,0-.369,.057-.738,.057s-.37,.032-.739,.032-.376,.081-.746,.055c-.374-.027-.375-.141-.735-.053Z"/>
      <path class="cls-1" d="M.184,39.71c.167-.192,.37-.353,.535-.56,.16-.2,.365-.374,.522-.585,.153-.205,.122-.547,.272-.762,.147-.211,.398-.353,.541-.573,.141-.216,.358-.388,.496-.612,.135-.22,.171-.504,.303-.73,.13-.223,.358-.393,.484-.621,.125-.226,.181-.493,.302-.725,.12-.23,.208-.478,.324-.712,.115-.232,.2-.48,.311-.716s.349-.414,.455-.653,.178-.494,.28-.734,.109-.595,.206-.837c.302,.128,.581,.369,.826,.477,.312,.138,.592,.233,.822,.344,.337,.162,.634,.227,.826,.344,.464,.284,.434,.519,.434,.694,0,.204-.132,.247-.366,.31s-.485,.139-.606,.139c-.131,.213-.315,.399-.462,.612-.142,.206-.171,.5-.326,.706-.151,.201-.445,.295-.607,.496-.158,.196-.161,.392-.328,.588,.319,.076,.456,.238,.645,.302,.467,.157,.694,.246,.694,.399,0,.288-.284,.408-.884,.696-.207,.426-.006,.474-.006,.948s.048,.474,.048,.948c0,.264-.014,.522-.013,.773,0,.266,.029,.524,.031,.774,.001,.267-.039,.526-.037,.776,.002,.268-.065,.527-.062,.776,.003,.269,.177,.525,.18,.771,.004,.271-.175,.531-.171,.775,.005,.276,.069,.534,.073,.776,.005,.279,.086,.533,.091,.768,.006,.29-.08,.549-.076,.772,.007,.327,.078,.582,.078,.766,0,.27-.199,.463-.432,.642-.183,.141-.392,.328-.693,.396-.236,.053-.515,.108-.811,.108-.504,0-.71-.306-.71-.691,0-.199,.003-.471,.014-.819,.008-.239-.085-.517-.075-.828,.009-.251-.032-.527-.023-.826,.008-.256,.156-.525,.164-.816,.007-.26-.096-.537-.089-.826,.006-.264-.002-.539,.003-.827,.005-.265,.152-.538,.156-.824,.004-.266,.005-.542,.007-.827,.002-.269-.077-.546-.076-.831,.001-.27-.046-.547-.046-.832,0-.312,.138-.312,.138-.624s.07-.342-.053-.629c-.191,.177-.366,.389-.561,.558-.197,.171-.441,.285-.641,.446-.204,.164-.432,.291-.638,.445-.21,.157-.401,.333-.611,.478-.217,.149-.415,.323-.63,.458-.173,.025-.203-.079-.231-.247Zm.287-7.367c.198-.187,.426-.341,.621-.543,.189-.197,.42-.366,.606-.576,.181-.205,.189-.561,.365-.779,.173-.213,.443-.35,.612-.574,.165-.219,.402-.392,.562-.621,.157-.225,.217-.521,.369-.755,.15-.231,.395-.406,.54-.646,.142-.235,.216-.515,.352-.758,.135-.241,.238-.502,.367-.749,.128-.245,.243-.524,.365-.775,.237,.131,.413,.378,.614,.49,.24,.133,.473,.223,.667,.332,.249,.14,.543,.123,.725,.231,.274,.161,.409,.4,.563,.506,.373,.258,.452,.35,.452,.512,0,.288-.3,.503-.946,.503-.084,0-.139-.191-.212-.15-.177,.192-.369,.41-.562,.598-.187,.183-.335,.411-.535,.59-.196,.176-.43,.31-.636,.48-.204,.168-.319,.451-.532,.613-.21,.161-.527,.179-.744,.332s-.329,.463-.551,.608-.53,.159-.757,.296c-.229,.138-.394,.388-.625,.516-.235,.129-.515,.172-.75,.289-.241,.12-.481,.227-.72,.333-.199-.007-.2-.115-.207-.305Zm11.918,5.223c-.082,.016-.056,.094-.056,.178,0,.216-.122,.341-.353,.513-.162,.121-.29,.418-.57,.481-.208,.046-.472-.053-.747-.053-.408,0-.513-.173-.513-.582,0-.112-.105-.367-.092-.845,.006-.229,.127-.506,.134-.845,.005-.249-.068-.531-.064-.846,.003-.259-.028-.542-.026-.85,.002-.264-.028-.547-.026-.849,0-.268,.143-.552,.143-.852,0-.348,.084-.397-.041-.722-.194,.186-.407,.462-.616,.642-.205,.177-.501,.25-.717,.419-.215,.168-.406,.353-.628,.512-.17-.02-.294-.021-.335-.187,.154-.232,.449-.434,.594-.668,.147-.236,.276-.483,.415-.721,.14-.239,.221-.512,.353-.754,.133-.243,.308-.464,.433-.709,.126-.246,.115-.559,.233-.808s.391-.429,.502-.682,.041-.582,.145-.837,.344-.457,.44-.716,.061-.562,.15-.824,.261-.494,.342-.759c.081-.263,.16-.522,.234-.79,.257,.077,.502,.105,.721,.173,.26,.081,.491,.169,.701,.237,.27,.088,.511,.141,.709,.213,.295,.107,.502,.238,.666,.319,.397,.195,.405,.345,.405,.517,0,.185-.02,.435-.295,.54-.154,.059-.431-.059-.69-.025-.098,.173-.184,.406-.301,.588-.111,.172-.204,.291-.321,.466,.419,.099,.416,.09,.846,.09s.43-.067,.859-.067c.432,0,.432,.089,.864,.089s.433-.09,.865-.09,.434-.025,.867-.025,.455,.213,.88,.122c.161-.22,.358-.464,.534-.687,.167-.212,.263-.493,.45-.713,.173-.205,.39-.483,.585-.7,.257,.201,.468,.513,.677,.678,.266,.209,.563,.305,.76,.464,.288,.232,.519,.406,.687,.552,.469,.41,.416,.6,.416,.733,0,.168-.064,.233-.304,.233-.393,0-.393,.081-.786,.081s-.395,.048-.79,.048-.394-.137-.788-.137-.394,.052-.788,.052-.395,.057-.79,.057-.395-.068-.789-.068-.394-.04-.789-.04-.394,.031-.787,.031c-.396,0-.396,.036-.791,.036s-.396,.003-.793,.003-.397-.053-.795-.053-.413-.07-.801,.016c-.152,.209-.384,.381-.542,.585s-.164,.527-.327,.729c-.162,.2-.302,.315-.469,.513,.241,.06,.415,.089,.661,.161,.245,.072,.483,.101,.698,.233,.419,.052,.408,.013,.831,.013s.422,.131,.843,.131c.424,0,.424-.108,.848-.108s.425,.16,.849,.16,.426-.057,.851-.057,.443,.093,.85-.031c.145-.305,.219-.564,.328-.739,.234-.376,.455-.519,.635-.519,.204,0,.46,.025,.79,.22,.176,.104,.395,.258,.663,.459,.242,.181,.357,.414,.486,.542,.282,.278,.297,.446,.297,.594,0,.288-.234,.482-.762,.77-.156,.27,.123,.334,.123,.646,0,.277-.023,.535-.021,.777,.002,.281-.131,.54-.128,.776,.004,.289-.006,.546,0,.773,.007,.31,.012,.567,.02,.776,.015,.423,.207,.653,.207,.763,0,.282-.156,.564-.365,.73-.174,.137-.478,.087-.772,.147-.226,.046-.468,.124-.754,.124-.408,0-.613-.136-.613-.544,0-.096,.1-.248,.007-.269-.422-.093-.449-.03-.881-.03s-.419,.084-.831,.214c-.049,.287-.272,.312-.68,.36-.169,.278-.413,.534-.598,.809-.182,.271-.284,.603-.486,.865,.313,.163,.355-.09,.708-.09s.354-.003,.707-.003,.355,.119,.709,.119,.372,.084,.716-.005c.164-.227,.343-.383,.456-.517,.234-.278,.329-.528,.475-.528,.183,0,.376,.182,.661,.361,.162,.102,.321,.274,.548,.466,.269,.226,.576,.295,.722,.445,.335,.344,.248,.59,.248,.757,0,.191-.039,.338-.361,.466-.165,.065-.362,.161-.647,.218-.15,.192-.303,.36-.459,.541-.158,.184-.407,.28-.571,.454-.166,.176-.331,.344-.505,.509-.175,.166-.246,.445-.428,.6s-.345,.245-.535,.392c.238,.098,.429,.168,.683,.255,.243,.083,.485,.184,.744,.257,.247,.07,.496,.157,.758,.218,.25,.058,.489,.209,.754,.259,.253,.047,.529,.012,.796,.052,.254,.038,.509,.137,.776,.169,.257,.03,.525,.021,.795,.045,.258,.023,.428,.046,.698,.064,.092,.156,.232,.198,.14,.355-.22,.094-.512,.16-.688,.306-.18,.15-.372,.3-.512,.485-.142,.188-.295,.381-.401,.584-.24,.456-.266,.595-.553,.595-.121,0-.221-.088-.389-.113-.284-.059-.565-.075-.835-.145-.281-.073-.582-.055-.848-.141-.276-.089-.515-.265-.774-.369-.269-.107-.556-.156-.807-.278-.259-.126-.474-.324-.715-.468-.246-.147-.525-.237-.752-.403-.23-.168-.443-.271-.654-.459-.233,.135-.434,.208-.674,.331s-.543,.113-.789,.224-.484,.23-.735,.33c-.25,.1-.45,.334-.706,.423-.254,.089-.524,.136-.783,.215-.257,.078-.537,.081-.798,.149-.26,.068-.527,.103-.791,.162-.262,.059-.519,.142-.785,.192-.264,.049-.538,.034-.805,.075s-.53,.082-.799,.115c-.267,.033-.585,.213-.855,.239-.131-.129-.045-.235,.03-.403,.263-.064,.487-.137,.747-.212s.49-.243,.747-.328,.495-.212,.748-.308,.525-.139,.773-.245,.468-.272,.712-.389,.5-.204,.739-.33,.465-.272,.698-.408c.235-.137,.52-.187,.747-.332,.229-.146,.403-.369,.624-.524,.222-.156,.577-.243,.79-.408-.159-.215-.471-.409-.614-.637s-.121-.55-.245-.786c-.126-.24-.325-.464-.431-.707-.195,.179-.392,.391-.595,.561s-.459,.271-.669,.432-.442,.286-.659,.437-.434,.296-.657,.438-.396,.365-.625,.497c-.23,.133-.41,.359-.644,.481-.236,.123-.52,.151-.759,.262-.241,.112-.491,.201-.734,.301-.246,.101-.444,.122-.691,.21-.156-.084-.253-.055-.233-.231,.218-.137,.445-.292,.659-.441,.212-.147,.387-.343,.594-.501,.205-.157,.515-.185,.714-.351,.199-.165,.321-.423,.514-.597s.405-.326,.59-.508,.269-.46,.447-.649,.479-.265,.649-.461,.38-.364,.542-.566,.242-.473,.395-.681,.245-.461,.39-.676c.145-.216,.261-.447,.396-.667,.136-.222,.327-.408,.452-.634,.126-.228,.235-.426,.35-.657-.297-.304-.405-.116-.817-.034Zm5.65-3.417c.314-.387,.051-.504,.051-1.002s.335-.67,.032-1.065c-.232-.303-.472,.179-.853,.179s-.381-.128-.762-.128-.38-.091-.761-.091c-.382,0-.382,.115-.765,.115s-.383-.115-.766-.115-.384,.077-.768,.077-.399-.075-.768,.034c-.203,.06-.204,.112-.256,.318-.102,.408-.14,.412-.14,.832s-.235,.587,.056,.89c.278,.29,.454-.138,.856-.138s.402,.131,.803,.131,.401-.03,.802-.03c.403,0,.403-.083,.806-.083s.404,.161,.807,.161,.399-.112,.793-.02c.431,.101,.579,.249,.834-.065Zm-5.655,2.761c.304,.263,.408,.051,.81,.051s.402,.056,.803,.056,.401-.223,.802-.223c.403,0,.403,.128,.806,.128s.404,.091,.807,.091,.405-.115,.809-.115,.573,.352,.88,.088c.264-.226-.039-.43-.039-.777s-.034-.348-.034-.697,.244-.444-.02-.672c-.304-.263-.38-.133-.782-.133s-.402,.036-.803,.036-.401,.16-.802,.16c-.403,0-.403-.131-.806-.131s-.404,.03-.807,.03-.405,.083-.809,.083-.562-.403-.869-.139c-.264,.226-.014,.417-.014,.764s.143,.355,.065,.695c-.085,.37-.261,.478,.002,.706Zm1.638,3.44c-.133,.156-.311,.275-.452,.422s-.357,.342-.501,.486c.176,.207,.549,.316,.74,.502,.193,.188,.305,.46,.514,.63s.444,.424,.668,.576c.215-.185,.408-.489,.607-.686,.2-.198,.478-.326,.665-.535s.311-.477,.488-.696c.175-.218,.32-.459,.488-.687-.377-.135-.4,.031-.801,.031s-.401-.141-.803-.141-.399,.061-.801,.036c-.406-.025-.414-.003-.811,.063Z"/>
      <path class="cls-1" d="M7.035,54.716c.301-.14,.526-.356,.818-.42,.359-.078,.711-.008,.963-.008,.316,0,.634-.009,.968,.091,.275,.082,.524,.332,.871,.462,.32,.13,.608,.167,.783,.306,.31,.247,.466,.517,.466,.717,0,.312-.133,.527-.373,.815-.191,.24-.466,.498-.515,.81-.03,.266,.095,.524,.073,.755-.024,.252-.143,.482-.161,.725-.018,.237-.072,.521-.088,.78,.252-.044,.555-.066,.804-.111,.252-.046,.503-.091,.75-.137,.252-.047,.478-.222,.723-.269,.252-.049,.504-.074,.746-.121,.254-.05,.497-.123,.737-.172,.255-.051,.523,.002,.759-.046,.258-.053,.481-.217,.713-.265,.229-.048,.452-.031,.642-.124,.189-.093,.315-.291,.507-.422,.215-.145,.499-.214,.69-.214,.217,0,.479,.168,.894,.426,.228,.141,.489,.331,.804,.586,.203,.161,.407,.265,.551,.395,.204,.184,.407,.303,.513,.447,.163,.222,.076,.451,.076,.656,0,.385-.113,.546-.616,.642-.37,.08-.611,.209-.892,.342-.23,.108-.457,.288-.803,.514-.227,.153-.523,.204-.752,.357-.226,.152-.375,.423-.606,.576-.227,.15-.484,.259-.718,.409-.229,.147-.506,.221-.745,.368-.231,.142-.419,.364-.662,.506-.234,.137-.445,.324-.692,.46-.237,.131-.521,.19-.772,.321-.24,.125-.458,.197-.712,.322-.208-.104-.23-.1-.255-.332,.202-.178,.335-.384,.529-.566,.196-.184,.351-.405,.54-.594,.19-.19,.426-.332,.609-.527s.367-.389,.544-.589,.331-.42,.503-.625,.437-.333,.604-.543,.253-.481,.415-.695c.161-.212,.344-.413,.502-.631,.018-.051-.008-.058-.061-.066-.252,.05-.485,.105-.728,.154-.252,.051-.526-.022-.771,.029-.249,.052-.469,.231-.714,.284s-.506,.026-.751,.08c-.243,.053-.487,.103-.733,.158-.242,.055-.478,.147-.725,.204-.243,.056-.471,.187-.722,.246-.242,.057-.423,.069-.674,.129-.113,.419-.159,.412-.159,.846s.08,.435,.08,.869-.085,.436-.085,.872,.101,.436,.101,.872c0,.326,0,.621,.016,.893,.018,.328,.06,.618,.086,.881,.027,.289,.05,.566,.194,.776,.138,.202,.393,.264,.691,.36,.214,.069,.451,.232,.77,.232,.259,0,.534-.095,.817-.11,.272-.014,.55-.014,.821-.039,.283-.025,.566-.002,.822-.034,.304-.038,.561-.2,.788-.242,.287-.048,.563-.126,.845-.192,.283-.066,.587-.112,.876-.112,.307,0,.61,.086,.864,.175,.292,.102,.554,.275,.729,.481,.182,.215,.213,.508,.213,.818,0,.24,.073,.517-.05,.714-.108,.174-.364,.246-.624,.345-.182,.07-.397,.119-.675,.136-.232,.011-.464,.148-.712,.163-.231,.013-.476-.077-.724-.063-.231,.012-.466,.126-.714,.136-.232,.009-.478-.159-.728-.153-.233,.005-.473,.094-.723,.094-.274,0-.532-.064-.778-.07-.275-.007-.529-.027-.771-.044-.277-.02-.54,.032-.779-.003-.276-.041-.542-.052-.774-.117-.265-.074-.516-.165-.735-.276-.234-.119-.418-.316-.611-.485-.188-.163-.432-.297-.594-.513-.18-.234-.291-.505-.401-.754s-.076-.542-.131-.833c-.048-.252-.184-.511-.202-.816-.015-.257-.063-.538-.063-.844,0-.225,.006-.531,.003-.882-.003-.275,.008-.576,.005-.887-.003-.294,.03-.597,.028-.892-.002-.311-.038-.552-.038-.83-.24,.061-.429,.027-.66,.088-.239,.063-.484,.084-.712,.147-.239,.066-.478,.116-.703,.182-.238,.07-.435,.254-.657,.324-.238,.075-.482,.1-.701,.175-.312,.096-.585,.24-.825,.384-.24,.145-.465,.292-.682,.292-.239-.015-.479-.16-.777-.387-.18-.137-.359-.348-.594-.61-.174-.194-.323-.38-.451-.565-.149-.213-.237-.431-.334-.635-.108-.229-.249-.439-.303-.664,.107-.177,.148-.128,.354-.14,.283,.205,.541,.2,.747,.305,.3,.153,.513,.25,.783,.25,.361,0,.908-.073,1.102-.098,.26-.041,.495-.147,.733-.185,.256-.041,.514-.008,.753-.047,.251-.041,.492-.099,.736-.14s.504,.024,.752-.018c.24-.041,.458-.239,.713-.284,.237-.041,.454-.011,.713-.057,.116-.371,.106-.375,.106-.764s-.1-.39-.1-.779,.122-.391,.122-.781-.022-.391-.022-.781c0-.284-.175-.501-.211-.693-.059-.31-.119-.448-.282-.552-.232-.146-.357-.31-.54-.385-.178-.073-.403-.093-.674-.152-.174-.155-.017-.273,.081-.493Z"/>
      <path class="cls-1" d="M4.094,77.181c.234,.012,.447,.006,.694,.04,.237,.033,.492,.007,.732,.059s.45,.212,.681,.282c.237,.072,.454,.178,.673,.268,.25,.1,.53,.121,.751,.243,.237,.131,.409,.344,.606,.498,.214,.168,.448,.298,.604,.493,.168,.209,.259,.456,.349,.694,.091,.24,.176,.486,.176,.754,0,.3-.139,.552-.24,.797-.114,.274-.248,.492-.462,.654-.221,.167-.458,.292-.754,.292-.322,0-.581-.034-.776-.149-.232-.136-.392-.355-.52-.594-.117-.221-.164-.49-.259-.747-.094-.26-.265-.485-.381-.729-.12-.251-.286-.466-.425-.694-.147-.24-.282-.47-.445-.677-.177-.225-.292-.488-.482-.664-.213-.198-.497-.313-.717-.438-.105-.169,.058-.237,.197-.383Zm17.117,1.405c-.128,.234-.218,.446-.35,.673-.133,.23-.21,.493-.348,.716-.139,.226-.368,.393-.512,.613-.145,.221-.314,.423-.465,.639-.151,.217-.224,.489-.381,.7s-.385,.369-.548,.576-.275,.455-.444,.657c-.168,.201-.375,.37-.55,.567-.174,.196-.322,.417-.502,.609-.179,.191-.424,.319-.61,.507-.184,.186-.353,.387-.544,.57-.188,.181-.352,.39-.548,.569-.192,.177-.364,.38-.564,.555-.196,.173-.402,.338-.606,.51-.199,.169-.433,.299-.64,.467-.201,.164-.362,.382-.57,.546-.205,.161-.386,.357-.598,.518-.208,.158-.431,.301-.646,.459-.21,.155-.479,.236-.696,.392-.211,.152-.379,.371-.597,.524-.215,.151-.5,.205-.721,.357-.216,.148-.354,.418-.576,.568-.182,.124-.403,.165-.558,.281-.173,.129-.281,.301-.408,.453-.191,.24-.617,.298-.977,.298-.232,0-.525,0-.832-.181-.223-.132-.487-.286-.729-.501-.204-.181-.397-.412-.602-.645-.185-.21-.305-.49-.483-.737-.147-.212-.357-.426-.406-.73-.039-.246,.031-.536,.031-.847,.11-.141,.149-.103,.324-.069,.251,.233,.467,.412,.684,.546,.321,.198,.633,.301,.861,.301,.16,0,.409-.147,.738-.249,.214-.067,.456-.139,.712-.272,.235-.121,.461-.265,.699-.393,.233-.127,.513-.175,.748-.308,.231-.131,.412-.353,.644-.491,.229-.136,.501-.204,.73-.345,.227-.14,.407-.356,.634-.502,.224-.143,.467-.259,.691-.407,.222-.147,.486-.235,.708-.386s.442-.304,.661-.459,.41-.348,.627-.507,.397-.364,.611-.526,.513-.213,.725-.378,.404-.357,.613-.525,.385-.379,.591-.55c.208-.172,.393-.371,.596-.545,.205-.176,.479-.271,.68-.449,.202-.179,.317-.453,.514-.634,.199-.182,.424-.334,.617-.518,.195-.186,.44-.319,.629-.506,.193-.19,.324-.439,.511-.631,.188-.193,.335-.421,.515-.615,.184-.197,.416-.345,.592-.542,.214-.063,.227,.076,.322,.279Z"/>
      <path class="cls-1" d="M9.019,107.301c.258,.011,.472-.074,.751-.051,.26,.021,.534,.023,.81,.059,.26,.034,.506,.206,.778,.256,.26,.048,.532,.059,.801,.125,.257,.063,.541,.176,.805,.259,.135-.228,.267-.494,.393-.719,.129-.23,.29-.439,.412-.668s.219-.473,.336-.706c.116-.231,.238-.461,.351-.698,.11-.231,.181-.485,.291-.725,.106-.232,.151-.497,.258-.74,.103-.233,.244-.44,.349-.686-.244,.01-.483,.013-.735,.028-.255,.015-.504,.118-.745,.134-.271,.018-.527,.016-.752,.03-.333,.021-.603,.022-.753,.022-.238,0-.433-.081-.624-.184-.158-.084-.311-.232-.506-.405-.126,.232-.269,.461-.402,.691-.132,.229-.28,.448-.42,.673s-.266,.457-.412,.678-.344,.405-.497,.621-.245,.476-.406,.687-.365,.386-.533,.591-.289,.45-.463,.648-.304,.443-.486,.635-.449,.304-.639,.489-.35,.402-.547,.578-.365,.392-.569,.56-.489,.237-.701,.395-.454,.27-.674,.418-.408,.396-.634,.533c-.187-.095-.169-.183-.182-.392,.179-.204,.403-.353,.576-.56s.213-.523,.381-.735,.35-.409,.512-.625,.429-.354,.586-.575c.156-.219,.249-.484,.4-.71,.15-.223,.361-.409,.506-.638,.143-.227,.293-.454,.432-.688,.136-.229,.136-.54,.268-.777,.13-.233,.397-.396,.523-.637,.124-.237,.246-.481,.367-.726,.118-.239,.214-.492,.329-.739,.113-.243,.194-.505,.304-.757,.107-.246,.113-.537,.218-.792,.083-.2,.235-.416,.292-.664,.059-.256,.191-.513,.191-.721,0-.249-.295-.371-.697-.519-.218-.08-.423-.263-.787-.314-.118-.152-.154-.192-.062-.361,.235-.094,.608-.106,.941-.154,.346-.05,.685-.024,.917-.024,.245,0,.544-.076,.827,.033,.251,.097,.537,.198,.771,.348,.247,.158,.441,.398,.618,.579,.242,.247,.304,.517,.304,.726,0,.288,.054,.44-.137,.631-.145,.145-.246,.207-.295,.327-.072,.145-.15,.29-.292,.578,.143,0,.242-.021,.41-.021,.232,0,.517,.115,.867,.09,.248-.018,.522-.171,.851-.2,.261-.023,.556,.02,.876-.01,.252-.026,.425-.064,.603-.154,.144-.073,.301-.184,.516-.355,.311-.24,.512-.458,.679-.458,.142,0,.385,.058,.725,.249,.179,.101,.368,.274,.616,.456,.303,.225,.572,.376,.744,.546,.305,.301,.398,.573,.398,.818,0,.312-.359,.559-.79,.8-.361,.191-.599,.6-.743,.865-.119,.231-.278,.448-.405,.686-.125,.233-.236,.478-.365,.714-.129,.235-.331,.43-.462,.663-.133,.237-.268,.471-.401,.703-.135,.236-.149,.538-.281,.763-.139,.238-.314,.44-.445,.661,.253,.135,.461,.299,.676,.431,.247,.152,.509,.242,.708,.391,.237,.178,.356,.443,.525,.616,.211,.216,.487,.34,.599,.551,.138,.258,.074,.543,.074,.796,0,.373-.03,.694-.206,.933-.199,.27-.49,.416-.847,.416-.246,0-.477-.02-.674-.114-.207-.099-.365-.269-.512-.454-.178-.221-.386-.393-.557-.578-.192-.208-.356-.418-.543-.587-.207-.189-.42-.389-.624-.54-.178,.211-.285,.504-.456,.704-.179,.208-.404,.369-.578,.565-.182,.206-.367,.401-.545,.594-.186,.202-.421,.348-.605,.537-.19,.196-.398,.364-.589,.547-.196,.188-.322,.445-.521,.622-.202,.179-.36,.41-.568,.578s-.479,.258-.697,.417c-.215,.156-.449,.286-.676,.434-.221,.144-.4,.364-.635,.501-.227,.132-.497,.197-.739,.324-.232,.122-.479,.225-.727,.343-.236,.112-.44,.312-.693,.421-.24,.103-.544,.065-.8,.166-.244,.096-.487,.206-.747,.301-.246,.09-.503,.271-.765,.36-.177-.132-.197-.225-.167-.444,.239-.128,.452-.34,.688-.478,.234-.137,.564-.117,.795-.264,.228-.146,.401-.38,.625-.536,.221-.154,.393-.376,.612-.541,.215-.162,.464-.282,.676-.456,.209-.17,.395-.369,.601-.55,.203-.178,.472-.286,.672-.475,.196-.185,.344-.423,.537-.619,.189-.191,.422-.345,.609-.547,.183-.197,.264-.489,.446-.696,.177-.202,.38-.383,.555-.596,.171-.208,.336-.423,.506-.641,.165-.212,.44-.346,.603-.568,.16-.217,.196-.527,.355-.754,.155-.221,.366-.399,.52-.629-.219-.158-.48-.29-.747-.447-.248-.146-.484-.332-.747-.465-.268-.136-.543-.252-.8-.363-.295-.127-.517-.279-.76-.358-.126-.154-.041-.151,.099-.307Z"/>
      <path class="cls-1" d="M8.799,122.747c.22-.116,.38-.145,.569-.222,.242-.099,.406-.321,.596-.37,.276-.07,.513-.087,.676-.087,.228,0,.469,.126,.763,.218,.217,.068,.48,.105,.753,.234,.214,.101,.439,.244,.697,.388,.232,.126,.473,.231,.619,.386,.187,.199,.151,.464,.151,.68,0,.192-.018,.388-.305,.772-.149,.198-.184,.417-.27,.943-.039,.24-.188,.545-.188,.973-.002,.263,.055,.529,.053,.799-.001,.263,.027,.53,.026,.8-.001,.264,.017,.531,.016,.801,0,.265-.07,.532-.071,.803,0,.265,.105,.533,.105,.804,0,.266-.13,.534-.13,.805,0,.266-.047,.535-.047,.806,0,.266,.101,.536,.1,.808,0,.264-.012,.531-.012,.801,0,.265,.047,.533,.047,.804,0,.266,.043,.535,.043,.806,0,.267-.089,.537-.089,.809,0,.266-.027,.534-.027,.804,0,.268,.109,.537,.109,.81,0,.267-.07,.536-.07,.808s-.087,.546-.087,.822c0,.248,.023,.465-.052,.653-.09,.228-.255,.372-.409,.503-.188,.159-.37,.276-.571,.276-.277,0-.483-.152-.704-.341-.188-.16-.484-.287-.612-.567-.104-.227-.1-.529-.152-.826-.044-.252-.107-.528-.107-.826,0-.198,.007-.473,.031-.819,.016-.236,.175-.498,.194-.802,.016-.247,.023-.519,.037-.812,.012-.256-.103-.535-.095-.826,.008-.261,.093-.533,.097-.821,.003-.262,.048-.532,.052-.809,.003-.264-.079-.535-.075-.811,.004-.266,.054-.536,.058-.811,.004-.267,.023-.537,.027-.812,.004-.266-.06-.536-.056-.808,.004-.268,.09-.537,.094-.809,.003-.268-.127-.54-.124-.811s-.02-.542-.018-.814,.062-.544,.063-.816,.015-.545,.016-.817,.051-.543,.051-.813c0-.255,0-.487-.016-.689-.022-.269-.056-.502-.112-.683-.085-.272-.225-.483-.402-.572-.163-.096-.396-.063-.633-.125-.179-.047-.388-.126-.635-.137-.177-.132-.031-.238,.027-.462Z"/>
    </g>
  </g>
</svg>