<?xml version="1.0" encoding="UTF-8"?>
<svg id="_レイヤー_2" data-name="レイヤー_2" xmlns="http://www.w3.org/2000/svg" viewBox="0 0 167.85 228">
  <defs>
    <style>
      .cls-1 {
        fill: #1f1f1f;
      }
    </style>
  </defs>
  <g id="_レイヤー_1-2" data-name="レイヤー_1">
    <path class="cls-1" d="M167.85,173.13V16.63c0-9.17-7.46-16.63-16.63-16.63H16.63C7.46,0,0,7.46,0,16.63v194.73c0,9.17,7.46,16.63,16.63,16.63h96.36c1.11,0,2.11-.45,2.83-1.17,0,0,50.83-50.75,51.15-51.21.76-.86.88-1.54.88-2.48ZM8,211.37V16.63c0-4.76,3.87-8.63,8.63-8.63h134.59c4.76,0,8.63,3.87,8.63,8.63v152.5h-46.87c-2.21,0-4,1.79-4,4v46.87H16.63c-4.76,0-8.63-3.87-8.63-8.63ZM154.2,177.13l-37.21,37.21v-37.21h37.21Z"/>
  </g>
</svg>