<?xml version="1.0" encoding="utf-8"?>
<!-- Generator: Adobe Illustrator 26.2.1, SVG Export Plug-In . SVG Version: 6.00 Build 0)  -->
<svg version="1.1" id="レイヤー_1" xmlns="http://www.w3.org/2000/svg" xmlns:xlink="http://www.w3.org/1999/xlink" x="0px"
	 y="0px" viewBox="0 0 44 44" style="enable-background:new 0 0 44 44;" xml:space="preserve">
<style type="text/css">
	.st0{fill:#FFFFFF;}
</style>
<g id="bc">
</g>
<g id="bc2">
</g>
<g id="design">
</g>
<g id="header">
</g>
<g id="footer">
</g>
<g id="guide">
</g>
<g id="Button">
	<g>
		<path d="M44,21.9C44,9.8,34.2,0,22,0S0,9.8,0,21.9c0,11,8,20.1,18.6,21.7V28.3H13v-6.4h5.6V17c0-5.6,3.2-8.6,8.3-8.6
			c2.4,0,5.1,0.5,5.1,0.5v5.4h-2.7c-2.7,0-3.6,1.7-3.6,3.4v4.2h6.1l-1.2,6.4h-5.1v15.3C36,42,44,32.9,44,21.9z"/>
		<path class="st0" d="M30.6,28.3l1-6.4h-6.3v-4c0-1.7,0.8-3.4,3.6-3.4h2.7V8.9c0,0-2.5-0.5-5.1-0.5c-5.1,0-8.3,3-8.3,8.6v4.9H13
			v6.4h5.6v15.3C19.8,43.8,21,44,22,44c1.2,0,2.4-0.2,3.4-0.3V28.3H30.6z"/>
	</g>
</g>
</svg>
