<?xml version="1.0" encoding="utf-8"?>
<!-- Generator: Adobe Illustrator 26.2.1, SVG Export Plug-In . SVG Version: 6.00 Build 0)  -->
<svg version="1.1" id="レイヤー_1" xmlns="http://www.w3.org/2000/svg" xmlns:xlink="http://www.w3.org/1999/xlink" x="0px"
	 y="0px" viewBox="0 0 44 44" style="enable-background:new 0 0 44 44;" xml:space="preserve">
<style type="text/css">
	.st0{fill:#FFFFFF;}
</style>
<g>
	<circle cx="22" cy="22" r="22"/>
	<g>
		<g>
			<path class="st0" d="M28.4,7.9H15.6c-4.9,0-8.6,3.5-8.6,7.9v12.4c0,4.4,4,7.9,8.6,7.9h12.8c4.9,0,8.6-3.5,8.6-7.9V15.8
				C37,11.4,33.3,7.9,28.4,7.9z M10.1,15.8c0-2.9,2.4-5.1,5.5-5.1h12.8c3.1,0,5.5,2.2,5.5,5.1v12.4c0,2.9-2.4,5.1-5.5,5.1H15.6
				c-3.1,0-5.5-2.2-5.5-5.1C10.1,28.2,10.1,15.8,10.1,15.8z"/>
			<path class="st0" d="M22,29.3c4.4,0,7.9-3.3,7.9-7.3s-3.5-7.3-7.9-7.3S14.1,18,14.1,22S17.6,29.3,22,29.3z M22,16.9
				c3.1,0,5.5,2.2,5.5,5.1s-2.4,5.1-5.5,5.1s-5.5-2.2-5.5-5.1S18.9,16.9,22,16.9z"/>
			<ellipse class="st0" cx="30.2" cy="14.5" rx="1.8" ry="1.5"/>
		</g>
	</g>
</g>
</svg>
