<svg xmlns="http://www.w3.org/2000/svg" width="19.999" height="20" viewBox="0 0 19.999 20">
  <g id="チェックポイントのアイコン_1" data-name="チェックポイントのアイコン 1" transform="translate(-0.009 0)">
    <path id="パス_25" data-name="パス 25" d="M18.554,15.192q.114-.187.22-.38l.048-.087q.091-.17.176-.344l.062-.128q.076-.162.146-.326.032-.074.062-.148.067-.163.128-.329c.018-.048.035-.1.052-.144q.061-.175.116-.353c.012-.038.023-.077.034-.116q.058-.2.109-.4l.015-.062a10.065,10.065,0,0,0,.267-3.024,9.837,9.837,0,0,0-.749-3.189A10.031,10.031,0,0,0,13.815.756,9.837,9.837,0,0,0,10.656.02,10.031,10.031,0,0,0,7.042.45L6.966.473c-.109.035-.217.073-.325.112-.059.021-.119.041-.178.064-.087.033-.174.069-.26.1s-.151.061-.225.094-.157.072-.235.109-.153.072-.229.11-.163.085-.244.129c-.066.036-.132.071-.2.108-.095.054-.188.11-.28.167l-.139.086c-.114.073-.227.149-.338.226l-.061.042A10.048,10.048,0,0,0,1.476,4.788L1.469,4.8q-.119.2-.229.4l-.04.073q-.1.176-.183.358l-.056.115Q.882,5.909.81,6.08q-.029.068-.057.137-.069.168-.132.34Q.6,6.623.573,6.69q-.063.181-.12.364c-.011.035-.021.07-.031.1q-.06.2-.112.409L.3,7.619a10.07,10.07,0,0,0-.268,3.032,9.831,9.831,0,0,0,.752,3.193,10.027,10.027,0,0,0,5.4,5.389,9.834,9.834,0,0,0,3.181.746,9.994,9.994,0,0,0,9.178-4.759ZM4.54,9.568,6.107,8l3.009,3.012h0l0,0,5.1-5.1,1.552,1.552.012.012L9.122,14.149,4.556,9.583Z" transform="translate(0 0)"/>
  </g>
</svg>
