<?xml version="1.0" encoding="utf-8"?>
<!-- Generator: Adobe Illustrator 27.4.1, SVG Export Plug-In . SVG Version: 6.00 Build 0)  -->
<svg version="1.1" id="レイヤー_1" xmlns="http://www.w3.org/2000/svg" xmlns:xlink="http://www.w3.org/1999/xlink" x="0px"
	 y="0px" viewBox="0 0 30 30" style="enable-background:new 0 0 30 30;" xml:space="preserve">
<style type="text/css">
	.st0{fill:#FFFFFF;}
</style>
<g id="Layer_58">
	<path class="st0" d="M15,25c-1.1,0-2-0.9-2-2s0.9-2,2-2s2,0.9,2,2S16.1,25,15,25z"/>
	<path class="st0" d="M15,19c-0.6,0-1-0.4-1-1v-8c0-0.6,0.4-1,1-1c0.6,0,1,0.4,1,1v8C16,18.6,15.6,19,15,19z"/>
	<path class="st0" d="M26.8,29H3.2c-1.1,0-2.2-0.6-2.8-1.6c-0.6-1-0.6-2.2-0.1-3.1L12.2,2.7C13,1.1,15,0.5,16.6,1.4
		c0.5,0.3,1,0.7,1.3,1.3l11.8,21.6c0.5,1,0.5,2.2-0.1,3.1C29,28.4,27.9,29,26.8,29z M15,3c-0.4,0-0.9,0.2-1.1,0.6L2.2,25.3
		c-0.2,0.4-0.2,0.8,0,1.2c0.2,0.4,0.6,0.6,1,0.6h23.6c0.4,0,0.8-0.2,1-0.6c0.2-0.4,0.2-0.8,0-1.2L16.1,3.6C15.9,3.2,15.4,3,15,3z"/>
</g>
</svg>
