<?xml version="1.0" encoding="utf-8"?>
<!-- Generator: Adobe Illustrator 27.4.1, SVG Export Plug-In . SVG Version: 6.00 Build 0)  -->
<svg version="1.1" id="レイヤー_1" xmlns="http://www.w3.org/2000/svg" xmlns:xlink="http://www.w3.org/1999/xlink" x="0px"
	 y="0px" viewBox="0 0 26 20" style="enable-background:new 0 0 26 20;" xml:space="preserve">
<style type="text/css">
	.st0{fill:#FFFFFF;}
</style>
<g>
	<path class="st0" d="M16,20c-0.3,0-0.5-0.1-0.7-0.3c-0.4-0.4-0.4-1,0-1.4l0,0l8.3-8.3l-8.3-8.3c-0.4-0.4-0.4-1,0-1.4s1-0.4,1.4,0
		l9,9c0.4,0.4,0.4,1,0,1.4l0,0l-9,9C16.5,19.9,16.3,20,16,20z"/>
	<path class="st0" d="M25,11H1c-0.6,0-1-0.4-1-1s0.4-1,1-1h24c0.6,0,1,0.4,1,1S25.5,11,25,11z"/>
</g>
</svg>
