<?xml version="1.0" encoding="UTF-8"?>
<svg id="_レイヤー_2" data-name="レイヤー 2" xmlns="http://www.w3.org/2000/svg" width="361.597mm" height="361.597mm" viewBox="0 0 1025 1025">
  <defs>
    <style>
      .cls-1 {
        fill: #fff;
      }

      .cls-2 {
        fill: #231815;
        stroke: #fff;
        stroke-miterlimit: 10;
      }
    </style>
  </defs>
  <g id="_レイヤー_1-2" data-name="レイヤー 1">
    <rect class="cls-2" x=".5" y=".5" width="1024" height="1024"/>
    <g id="_グループ_111" data-name="グループ 111">
      <path id="_パス_175" data-name="パス 175" class="cls-1" d="M684.861,484.055c2.158,12.09-10.288,16.228-15.045,25.795-2.572,3.338-4.7,6.206-7.272,9.548,0-.413,2.985-.413,3.414-.413,1.271-.413,2.572-.413,3.843-.827h3.903c5.659,.318,11.261,1.3,16.691,2.925,5.494,2.058,10.812,4.559,15.902,7.477,2.224,.802,4.381,1.78,6.449,2.925,1.331,1.24,3.035,2.098,4.317,3.338,3.311,1.742,6.229,4.147,8.573,7.063,.807,1.834,.964,3.888,.444,5.823-.851,1.307-2.313,2.088-3.873,2.067-1.832-.226-3.516-1.12-4.73-2.511-3.333-2.102-6.495-4.464-9.457-7.063-6.3-5.182-13.058-9.782-20.189-13.744-4.036-2.065-8.376-3.474-12.856-4.173-4.46-1.082-9.155-.634-13.33,1.271-8.573,4.552-14.157,13.277-18.888,19.95-1.301,.857-2.158,2.098-3.873,1.684-2.158-3.755-.413-7.89,.444-11.646,0-.857,2.985-2.925,3.843-3.338,1.217-1.6,2.661-3.014,4.287-4.196,2.66-2.42,5.112-5.059,7.329-7.89,5.019-5.047,9.471-10.627,13.277-16.642,1.301-1.654,2.158-3.755,3.414-5.379,1.065-2.277,1.935-4.64,2.602-7.063,.444-1.271,.857-2.098,1.301-3.338v-1.684c-.444-.413-1.301-1.24-1.301-1.654,0-.857,0-2.098,.857-2.511,3.812-.632,7.647,.993,9.844,4.173l.08,.034Z"/>
      <path id="_パス_176" data-name="パス 176" class="cls-1" d="M347.245,493.664c-.691,2.514-2.408,4.62-4.73,5.804,0-.857-.413-.857-.413-1.271,1.279-1.944,3.055-3.509,5.144-4.533Z"/>
      <path id="_パス_177" data-name="パス 177" class="cls-1" d="M390.21,489.506c-1.301-3.334-6.449-3.748-9.863-5.019-4.855-.689-9.792-.55-14.601,.413-1.715-.413-3.873,.444-4.73-.413s1.294-4.545,1.294-5.371c.969-1.7,1.685-3.531,2.128-5.436,.242-1.755-.214-3.536-1.271-4.958-.444-1.271-1.715-1.684-3.414-1.684-1.745,.413-3.903,.827-5.174,1.271-1.372,.525-2.673,1.22-3.873,2.067-2.413,1.303-4.593,2.999-6.449,5.019-5.588,8.296-11.172,17.033-15.902,24.915-.413-3.748-3.414-5.432-6.001-7.883,2.985-5.432,10.288-4.192,10.288-10.39-1.715-1.271-2.985-2.921-5.144-3.334-4.287-.444-4.287,4.958-8.573,3.334-3.46-2.921-.444-7.5-.444-11.661-2.376-1.685-5.295-2.423-8.186-2.067-2.158,0-4.287,1.654-3.016,3.748h3.016c1.271,0,1.271,1.654,1.715,2.481-.222,2.347-.222,4.709,0,7.056-.857,5.402,6.032,2.921,7.742,4.605-.975,2.708-2.788,5.034-5.174,6.642-4.287,5.371-14.571,6.642-13.3,14.939,.444,1.684,2.158,.413,3.016,.827,3.834-4.294,8.335-7.942,13.33-10.804,1.154-.067,2.31,.073,3.414,.413,.444,1.684,2.158,2.507,2.572,4.173-.071,.728,.084,1.461,.444,2.098,0,.827-.444,2.098-.444,2.921-.413,.413-2.572,4.552-2.572,4.552-6.885-.413-14.601-1.654-19.346,3.748-.774,1.704-.931,3.625-.444,5.432,.022,1.734,.469,3.436,1.301,4.958,.857,1.271,1.301,2.921,2.572,3.748,.857,1.271,2.572,1.684,3.873,2.507,.444,.827,1.301,1.271,1.715,2.098,.857,2.921-3.016,6.229-4.287,8.296-1.397,1.142-2.315,2.766-2.572,4.552-.465,1.9,.007,3.908,1.271,5.402,1.301,.827,2.572,2.507,4.73,1.24,7.329-9.104,9.457-20.34,13.33-30.727,7.716-15.792,25.746-48.207,28.314-47.797,3.414-1.684,3.016,2.481,3.016,4.173-2.158,3.334-2.572,9.15-8.16,9.977-5.646,2.68-9.645,7.927-10.732,14.081,.857,1.24,1.301,3.748,3.46,3.334,9.013-2.098,13.713-10.804,19.346-17.033,4.152-.565,8.376-.284,12.416,.827-2.985,5.815-9.844,10.39-11.999,16.619-.432,2.81,.34,5.672,2.128,7.883,0,0-6.885,8.327-7.329,8.725-1.301,1.24-3.414,2.481-3.873,3.748-.222,1.239-.222,2.508,0,3.748-.029,1.495,.427,2.959,1.301,4.173,4.287,1.684,6.001-4.552,9.457-5.371,2.128-.857,4.7-2.921,7.302-1.684-.857,5.815-6.001,10.804-6.001,17.033,4.287,4.958-5.174,3.748-6.032,7.883,2.602,2.507,6.472,0,9.457-.413,4.004,.231,8.02,.092,11.999-.413,1.301-1.24,3.035-2.507,2.189-4.552-2.189-5.432-11.172-1.271-10.728-7.913,2.985-6.198,11.585-8.296,12.442-14.525,.444-.827-2.602-2.921-3.46-3.334-3.238-1.83-7.233-1.67-10.314,.413-1.715,.857-3.016,1.684-4.73,2.507-.413,0-4.757,.413-4.757,0,1.099-2.525,2.72-4.789,4.757-6.642,2.572-2.067,5.588-1.654,9.013-2.507,.444-1.24,1.715-2.481,1.301-4.173-.857-3.334-5.144-1.654-7.302-3.334-4.73-.827-.444-4.173,0-5.785,4.803-7.17,13.428-10.773,21.903-9.15,2.158,0,3.016-1.684,2.572-4.173l.072-.03Zm-77.291,37.403c-2.706,.134-5.293-1.124-6.859-3.334,.444-2.098-3.414-5.432,.857-7.5,3.731-1.756,8.152-1.091,11.202,1.684,0,4.173-2.602,6.229-5.174,9.15h-.027Z"/>
      <path id="_パス_178" data-name="パス 178" class="cls-1" d="M891.242,541.909c-2.158-3.755-5.588-4.173-9.844-4.173-1.911-.801-3.452-2.29-4.317-4.173,.546-3.585,1.56-7.084,3.016-10.405,2.189-3.793,7.329-7.921,6.472-12.518-1.301-4.173-6.472-2.925-10.758-3.338-1.715-.827-.857-2.925-.857-4.173,.606-.928,1.332-1.772,2.158-2.511,3.016-3.755,5.614-7.063,8.6-10.405,.997-1.618,2.139-3.142,3.414-4.552,.444-.857,2.158-4.613,.444-5.44-3.458-1.53-7.428-1.377-10.758,.413-9.43,7.063-18,15.815-26.603,22.909-1.715-2.925,3.016-6.65-.444-8.748-2.999-1.524-6.577-1.368-9.43,.413-.444,0,.857-2.485,.857-2.898,1.271-2.925,4.287-4.196,6.001-6.236,1.301-.827,5.588-4.613,4.287-6.65-1.271-2.098-2.128-2.925-4.7-2.511-1.944,.811-3.814,1.789-5.588,2.925-2.572,1.654-5.174,3.755-7.742,5.44-6.001,4.173-14.571,4.173-19.726,9.548,6.032,2.511,13.744,0,19.726-.827-.35,1.743-.926,3.433-1.715,5.026-1.301,2.485-2.158,4.966-3.414,7.89-1.039,2.284-1.899,4.646-2.572,7.063-.857,2.511-1.271,5.379-2.128,7.89-.444,1.271-.857,2.511-1.301,3.755-.235,1.308-.664,2.573-1.271,3.755-4.287,1.684-6.472,3.755-10.758,5.44,0-.827-.857-1.684-.857-2.511s-2.572,1.271-3.016,1.271c-.594,.882-1.025,1.864-1.271,2.898-.581,2.364,.063,4.861,1.715,6.65,1.715,.857,4.7-.413,6.001-1.24,.444-.413,6.885-5.823,6.885-5.026,.735,3.173,.582,6.487-.444,9.578-.489,1.534-.328,3.201,.444,4.613,.857,1.654,2.158,1.654,3.414,2.485,0,.413,2.572,1.684,2.572,0-.281-3.474-.131-6.968,.444-10.405,0-1.654,.413-3.338,.413-4.966s.857-3.338,.857-4.552c0,0,.444-2.925,.857-2.511,5.144,7.89,10.345,14.544,15.489,22.051,1.996,.096,3.966-.487,5.588-1.654,.857-.413,0-6.236,0-7.063-.079-2.659-.366-5.307-.857-7.921-.444-5.793,0-11.646,0-17.45-.296-3.863,1.107-7.662,3.843-10.405,7.742-8.304,13.33-16.642,24.058-20.807-.444,6.236-6.001,11.263-7.716,17.45-.359,2.487,.255,5.017,1.715,7.063,.857,1.271,3.873,1.684,4.287,2.925,.108,2.469-.486,4.919-1.715,7.063-.869,2.549-1.298,5.228-1.271,7.921-.29,2.635-.15,5.3,.413,7.89,.444,.413,2.572,4.173,3.016,3.755-2.158,2.098-6.001,2.925-8.573,4.966,1.969,1.455,4.499,1.924,6.859,1.271,4.287-2.925,8.6,.413,13.744-.413,3.016-.857,3.016-3.338,2.158-5.823l-.099-.011Zm-47.232-2.511l-2.572-.413-8.6-8.725c3.361-3.953,6.943-7.713,10.728-11.263,1.297,5.827-.417,13.747,.44,20.397l.004,.004Zm-.857-27.461l-10.314,9.161c.487-1.23,.911-2.483,1.271-3.755,.857-3.755,1.715-7.063,2.572-10.405,.311-1.484,.892-2.899,1.715-4.173,.474-.857,2.189-3.338,3.035-3.338,2.572-.857,2.985,1.24,2.985,3.338-.342,1.492-.481,3.023-.413,4.552,.413,1.654,.413,3.755-.857,4.552l.008,.068Z"/>
      <path id="_パス_179" data-name="パス 179" class="cls-1" d="M558.342,543.502c-1.743-1.073-3.623-1.907-5.588-2.481-2.361-1.168-4.812-2.145-7.329-2.921-4.919-2.036-10.123-3.301-15.428-3.748-3.113-.761-6.272-1.324-9.457-1.684v-22.021c.413-2.507,2.985-2.921,4.287-5.019,.498-2.564-.311-5.209-2.158-7.056l11.172-3.334c5.144-2.481,13.774-2.067,14.631-9.104,.413-.827-1.715-2.507-2.189-2.507-1.215-.543-2.571-.688-3.873-.413-3.32,.003-6.627,.42-9.844,1.24-.857-3.334-4.73-1.654-6.859-2.921-1.745-1.24,0-2.894-.474-4.552-1.715-3.748-5.144-3.748-9.43-5.371-1.093,.157-2.129,.583-3.016,1.24-.945,.401-1.815,.96-2.572,1.654-.748,.712-1.62,1.283-2.572,1.684-.776,.402-1.274,1.193-1.301,2.067,0,.444,0,.857,.857,1.271,1.301,0,3.016,.827,3.873-.827,.857-.444,2.572-.857,3.016,0-.171,4.171,.117,8.349,.857,12.458-1.411,1.22-3.008,2.206-4.73,2.921-3.016,.827-6.472,1.24-9.457,2.094-1.715,.413-3.016,.827-4.73,1.24-1.626,.675-3.388,.958-5.144,.827-1.808,.637-3.78,.637-5.588,0,.467-.753,.76-1.6,.857-2.481,.857-.857,1.301-1.271,2.158-2.094,.857-.413,.413-2.094,.413-2.921-1.715-1.24-3.414,.413-4.287,1.24-2.602,3.334-6.472,5.019-8.6,8.725,.857,3.748,3.873,5.432,6.449,7.883,3.46,4.173,8.186,.857,12.029,0l.444,.413c-2.572,7.056-6.449,13.315-5.144,21.243-5.987,5.484-12.609,10.23-19.726,14.138-2.025,1.911-2.852,4.772-2.158,7.469,.413,1.24,1.271,2.921,3.016,2.067,6.415-5.785,13.744-9.946,19.726-16.175,.857,0,1.715-.413,2.158,0,3.873,8.725,13.744,14.138,22.317,16.175,3.414,.444,6.859-4.958,6.859-7.883-.57-1.753-.995-3.549-1.271-5.371,.413-1.271-.444-2.921,1.271-3.793,.857-.413,4.757,1.271,5.614,1.684,3.238,.998,6.391,2.251,9.43,3.748,2.532,.735,4.872,2.014,6.859,3.748-.444,2.094-2.572,1.684-4.287,2.094-.857,.413-2.985,.827-2.128,2.481,.413,2.094,2.128,2.094,3.843,1.684,.787-.46,1.665-.742,2.572-.827,2.039,.255,4.054,.67,6.028,1.24,3.016,0,7.302,.827,9.013-2.094,1.271-1.654,.413-5.371-.444-7.056l.034-.076Zm-33.932-58.593c1.745-.413,2.189,1.271,3.903,.857-1.094,1.544-2.865,2.467-4.757,2.481l.853-3.338Zm-30.029,40.738l-.857-2.067c1.216-5.216,3.094-10.255,5.588-14.995,1.715-3.748,7.742-2.921,10.314-4.958h2.572c0,1.654-1.715,3.748-2.572,5.371-4.547,5.946-9.579,11.505-15.045,16.619v.03Zm17.203,18.717c-5.588,1.654-9.457-3.748-12.898-5.815l-.857-1.684c4.981-.711,10.015-.988,15.045-.827,.849,2.827,.374,5.887-1.294,8.323l.004,.004Zm1.715-13.315c-.444,1.24-2.158,1.654-3.414,1.654h-4.7c-.981-.31-2.007-.45-3.035-.413h-3.873l14.601-13.725c.789,4.113,.925,8.325,.402,12.48l.019,.004Z"/>
      <path id="_パス_180" data-name="パス 180" class="cls-1" d="M218.174,486.221c-.137-11.059-9.129-19.958-20.189-19.98-9.457,0-11.615,4.173-19.346,4.173-6.859,0-9.901-4.173-19.346-4.173-11.051,.03-20.028,8.93-20.155,19.98v15.375h79.036v-15.375Z"/>
      <path id="_パス_181" data-name="パス 181" class="cls-1" d="M224.175,507.779c-.123,1.895-1.539,3.453-3.414,3.755h-83.721c-2.05-.104-3.706-1.71-3.873-3.755,.203-1.963,1.902-3.427,3.873-3.338h83.706c1.813,.101,3.273,1.528,3.414,3.338h.015Z"/>
      <path id="_パス_182" data-name="パス 182" class="cls-1" d="M178.684,451.257c-4.714,0-8.535,3.821-8.535,8.535s3.821,8.535,8.535,8.535,8.535-3.821,8.535-8.535-3.821-8.535-8.535-8.535Zm0,12.059c-1.813-.102-3.271-1.528-3.414-3.338-.021-1.953,1.468-3.591,3.414-3.755,1.902,.009,3.437,1.558,3.428,3.461,0,.098-.005,.197-.014,.295,.003,1.842-1.488,3.337-3.33,3.339-.028,0-.056,0-.084,0Z"/>
      <path id="_パス_183" data-name="パス 183" class="cls-1" d="M139.168,514.403v15.371c.151,10.958,9.157,19.719,20.115,19.568,.024,0,.049,0,.073-.001,8.808,0,12.059-3.221,18.03-3.664v-2.985c-2.759,.247-5.539-.044-8.186-.857-2.209-1.22-3.141-3.912-2.158-6.236,1.159-2.2,3.883-3.044,6.083-1.885,.133,.07,.263,.147,.389,.231,2.307,1.114,4.134,3.024,5.144,5.379,1.263-2.182,3.033-4.028,5.159-5.383,2.055-1.371,4.832-.817,6.203,1.238,.089,.134,.172,.273,.246,.416,1.331,2.098,.413,4.552-2.158,6.236-2.638,.815-5.41,1.107-8.16,.857v2.898h0c6.711,.413,9.135,3.755,18.03,3.755,10.968,.181,20.007-8.563,20.188-19.531,0-.012,0-.023,0-.035v-15.371h-78.998Z"/>
      <path id="_パス_184" data-name="パス 184" class="cls-1" d="M146.88,562.257l3.035-1.684h.444v11.676l.413,.413h1.301v.413h-4.749v-.413h.857c.224,.004,.409-.174,.413-.398,0-.005,0-.01,0-.015v-9.992h-1.715Z"/>
      <path id="_パス_185" data-name="パス 185" class="cls-1" d="M170.528,567.222v-2.067c.068-.602-.103-1.206-.474-1.684-.01-.655-.328-1.268-.857-1.654,0-.413-.444-.413-1.301-.413-.473-.053-.946,.097-1.301,.413-.373,.772-.516,1.634-.413,2.485-.18,1.055,.136,2.134,.857,2.925,0,.413,.857,.413,1.301,.413h.857c.413-.004,.857-.417,1.331-.417Zm-6.032,6.236v-.413c.857,0,1.715-.413,2.572-.413,.679-.604,1.258-1.312,1.715-2.098,.851-.73,1.329-1.804,1.301-2.925-.684,.659-1.629,.974-2.572,.857-.857,0-1.715,0-2.158-.857-.468-.754-.761-1.603-.857-2.485,.015-1.035,.311-2.046,.857-2.925,.597-1.095,1.77-1.75,3.016-1.684,1.001,.063,1.937,.52,2.602,1.271,.812,1.087,1.266,2.399,1.301,3.756,.026,1.303-.269,2.593-.857,3.756-.799,1.174-1.832,2.17-3.035,2.925-.824,.761-1.894,1.201-3.016,1.24h-.869v-.004Z"/>
      <path id="_パス_186" data-name="パス 186" class="cls-1" d="M183.384,563.053c.328-.627,.769-1.187,1.301-1.654,.63-.473,1.375-.769,2.158-.857,1.015-.029,1.978,.447,2.572,1.271,.337,.319,.502,.78,.444,1.24,0,.827-.444,1.684-1.715,2.925,.782-.01,1.479,.494,1.715,1.24,.329,.496,.475,1.092,.413,1.684,.182,1.061-.134,2.146-.857,2.944-1.02,1.044-2.414,1.639-3.873,1.654-.857,0-1.301-.413-1.715-.413-.257-.201-.418-.501-.444-.827v-.413h1.301l.444,.413h.857c.218,.248,.527,.398,.857,.413,.638-.108,1.233-.394,1.715-.827,.326-.498,.472-1.092,.413-1.684v-1.24c-.413-.413-.413-.827-.857-.827,0-.444-.413-.444-.857-.857h-1.715v-.413c.413,0,.857-.413,1.301-.413l1.271-1.24v-1.29c0-.413,0-1.24-.413-1.24-.413-.413-.857-.827-1.301-.827-1.271,0-1.715,.413-2.572,1.654,0,0-.444-.413-.444-.414Z"/>
      <path id="_パス_187" data-name="パス 187" class="cls-1" d="M207.017,568.493v-5.823l-4.287,5.823h4.287Zm3.414,0v1.24h-1.715v3.338h-1.699v-3.338h-5.159v-.827l5.588-8.346h1.271v7.921l1.715,.011Z"/>
    </g>
  </g>
</svg>