<svg xmlns="http://www.w3.org/2000/svg" width="200" height="32.222" viewBox="0 0 200 32.222">
  <g id="グループ_131" data-name="グループ 131" transform="translate(-546 277.99)">
    <path id="パス_175" data-name="パス 175" d="M183.309,10.8c.569,3.187-2.712,4.278-3.966,6.8-.678.88-1.239,1.636-1.917,2.517,0-.109.787-.109.9-.109.335-.109.678-.109,1.013-.218h1.029a19.078,19.078,0,0,1,4.4.771,28.6,28.6,0,0,1,4.192,1.971,11.694,11.694,0,0,1,1.7.771c.351.327.8.553,1.138.88a7.2,7.2,0,0,1,2.26,1.862,2.318,2.318,0,0,1,.117,1.535,1.2,1.2,0,0,1-1.021.545,1.977,1.977,0,0,1-1.247-.662,19.764,19.764,0,0,1-2.493-1.862,35.574,35.574,0,0,0-5.322-3.623,11.243,11.243,0,0,0-3.389-1.1,5.4,5.4,0,0,0-3.514.335c-2.26,1.2-3.732,3.5-4.979,5.259-.343.226-.569.553-1.021.444-.569-.99-.109-2.08.117-3.07,0-.226.787-.771,1.013-.88a5.433,5.433,0,0,1,1.13-1.106,16.878,16.878,0,0,0,1.932-2.08,25.737,25.737,0,0,0,3.5-4.387c.343-.436.569-.99.9-1.418a11.776,11.776,0,0,0,.686-1.862c.117-.335.226-.553.343-.88v-.444c-.117-.109-.343-.327-.343-.436,0-.226,0-.553.226-.662a2.631,2.631,0,0,1,2.595,1.1Z" transform="translate(508.125 -280.144)"/>
    <path id="パス_176" data-name="パス 176" d="M72.106,14.37A2.444,2.444,0,0,1,70.859,15.9c0-.226-.109-.226-.109-.335A3.431,3.431,0,0,1,72.106,14.37Z" transform="translate(530.328 -281.181)"/>
    <path id="パス_177" data-name="パス 177" d="M80.355,11.272c-.343-.879-1.7-.988-2.6-1.323a11.422,11.422,0,0,0-3.849.109c-.452-.109-1.021.117-1.247-.109S73,8.751,73,8.533A5.33,5.33,0,0,0,73.561,7.1a1.783,1.783,0,0,0-.335-1.307c-.117-.335-.452-.444-.9-.444-.46.109-1.029.218-1.364.335a4.655,4.655,0,0,0-1.021.545,6.51,6.51,0,0,0-1.7,1.323c-1.473,2.187-2.945,4.49-4.192,6.568-.109-.988-.9-1.432-1.582-2.078.787-1.432,2.712-1.105,2.712-2.739-.452-.335-.787-.77-1.356-.879-1.13-.117-1.13,1.307-2.26.879-.912-.77-.117-1.977-.117-3.074a3.08,3.08,0,0,0-2.158-.545c-.569,0-1.13.436-.795.988h.795c.335,0,.335.436.452.654a9.888,9.888,0,0,0,0,1.86c-.226,1.424,1.59.77,2.041,1.214a3.571,3.571,0,0,1-1.364,1.751c-1.13,1.416-3.841,1.751-3.506,3.938.117.444.569.109.795.218a14.129,14.129,0,0,1,3.514-2.848,2.553,2.553,0,0,1,.9.109c.117.444.569.661.678,1.1a.938.938,0,0,0,.117.553c0,.218-.117.553-.117.77-.109.109-.678,1.2-.678,1.2-1.815-.109-3.849-.436-5.1.988a2.126,2.126,0,0,0-.117,1.432,2.8,2.8,0,0,0,.343,1.307c.226.335.343.77.678.988.226.335.678.444,1.021.661.117.218.343.335.452.553.226.77-.795,1.642-1.13,2.187a1.9,1.9,0,0,0-.678,1.2,1.611,1.611,0,0,0,.335,1.424c.343.218.678.661,1.247.327,1.932-2.4,2.493-5.362,3.514-8.1,2.034-4.163,6.787-12.708,7.464-12.6.9-.444.795.654.795,1.1-.569.879-.678,2.412-2.151,2.63A5.088,5.088,0,0,0,65.964,15c.226.327.343.988.912.879,2.376-.553,3.615-2.848,5.1-4.49a8.181,8.181,0,0,1,3.273.218c-.787,1.533-2.595,2.739-3.163,4.381a2.661,2.661,0,0,0,.561,2.078s-1.815,2.195-1.932,2.3c-.343.327-.9.654-1.021.988a2.808,2.808,0,0,0,0,.988,1.821,1.821,0,0,0,.343,1.1c1.13.444,1.582-1.2,2.493-1.416.561-.226,1.239-.77,1.925-.444-.226,1.533-1.582,2.848-1.582,4.49,1.13,1.307-1.364.988-1.59,2.078.686.661,1.706,0,2.493-.109a17.232,17.232,0,0,0,3.163-.109c.343-.327.8-.661.577-1.2-.577-1.432-2.945-.335-2.828-2.086.787-1.634,3.054-2.187,3.28-3.829.117-.218-.686-.77-.912-.879a2.584,2.584,0,0,0-2.719.109c-.452.226-.795.444-1.247.661-.109,0-1.254.109-1.254,0a5.139,5.139,0,0,1,1.254-1.751c.678-.545,1.473-.436,2.376-.661.117-.327.452-.654.343-1.1-.226-.879-1.356-.436-1.925-.879-1.247-.218-.117-1.1,0-1.525a5.667,5.667,0,0,1,5.774-2.412c.569,0,.795-.444.678-1.1ZM59.98,21.132a2.089,2.089,0,0,1-1.808-.879c.117-.553-.9-1.432.226-1.977a2.687,2.687,0,0,1,2.953.444c0,1.1-.686,1.642-1.364,2.412Z" transform="translate(533.405 -279.179)"/>
    <path id="パス_178" data-name="パス 178" d="M250.406,25.839c-.569-.99-1.473-1.1-2.595-1.1a2.18,2.18,0,0,1-1.138-1.1,10.936,10.936,0,0,1,.795-2.743c.577-1,1.932-2.088,1.706-3.3-.343-1.1-1.706-.771-2.836-.88-.452-.218-.226-.771-.226-1.1a3.331,3.331,0,0,1,.569-.662c.795-.99,1.48-1.862,2.267-2.743a8.2,8.2,0,0,1,.9-1.2c.117-.226.569-1.216.117-1.434a3.229,3.229,0,0,0-2.836.109c-2.486,1.862-4.745,4.169-7.013,6.039-.452-.771.795-1.753-.117-2.306a2.53,2.53,0,0,0-2.486.109c-.117,0,.226-.655.226-.764.335-.771,1.13-1.106,1.582-1.644.343-.218,1.473-1.216,1.13-1.753-.335-.553-.561-.771-1.239-.662a9.546,9.546,0,0,0-1.473.771c-.678.436-1.364.99-2.041,1.434-1.582,1.1-3.841,1.1-5.2,2.517,1.59.662,3.623,0,5.2-.218a5.369,5.369,0,0,1-.452,1.325c-.343.655-.569,1.309-.9,2.08a12.788,12.788,0,0,0-.678,1.862c-.226.662-.335,1.418-.561,2.08-.117.335-.226.662-.343.99a3.538,3.538,0,0,1-.335.99c-1.13.444-1.706.99-2.836,1.434,0-.218-.226-.444-.226-.662s-.678.335-.795.335a2.335,2.335,0,0,0-.335.764,1.912,1.912,0,0,0,.452,1.753c.452.226,1.239-.109,1.582-.327.117-.109,1.815-1.535,1.815-1.325a4.67,4.67,0,0,1-.117,2.525,1.552,1.552,0,0,0,.117,1.216c.226.436.569.436.9.655,0,.109.678.444.678,0a11.17,11.17,0,0,1,.117-2.743c0-.436.109-.88.109-1.309s.226-.88.226-1.2c0,0,.117-.771.226-.662,1.356,2.08,2.727,3.834,4.083,5.813a2.331,2.331,0,0,0,1.473-.436c.226-.109,0-1.644,0-1.862a13.478,13.478,0,0,0-.226-2.088c-.117-1.527,0-3.07,0-4.6a3.505,3.505,0,0,1,1.013-2.743c2.041-2.189,3.514-4.387,6.342-5.485-.117,1.644-1.582,2.969-2.034,4.6a2.573,2.573,0,0,0,.452,1.862c.226.335,1.021.444,1.13.771a3.443,3.443,0,0,1-.452,1.862,6.276,6.276,0,0,0-.335,2.088,6.465,6.465,0,0,0,.109,2.08c.117.109.678,1.1.795.99-.569.553-1.582.771-2.26,1.309a2.1,2.1,0,0,0,1.808.335c1.13-.771,2.267.109,3.623-.109.795-.226.795-.88.569-1.535Zm-12.451-.662-.678-.109-2.267-2.3a36.364,36.364,0,0,1,2.828-2.969C238.18,21.335,237.728,23.423,237.954,25.176Zm-.226-7.239-2.719,2.415a10.349,10.349,0,0,0,.335-.99c.226-.99.452-1.862.678-2.743a3.258,3.258,0,0,1,.452-1.1c.125-.226.577-.88.8-.88.678-.226.787.327.787.88a4.475,4.475,0,0,0-.109,1.2c.109.436.109.99-.226,1.2Z" transform="translate(495.433 -279.932)"/>
    <path id="パス_179" data-name="パス 179" d="M137.179,25.846a6.039,6.039,0,0,0-1.473-.654,12.978,12.978,0,0,0-1.932-.77,13.625,13.625,0,0,0-4.067-.988,19.952,19.952,0,0,0-2.493-.444V17.185c.109-.661.787-.77,1.13-1.323a2.072,2.072,0,0,0-.569-1.86l2.945-.879c1.356-.654,3.631-.545,3.857-2.4.109-.218-.452-.661-.577-.661a1.661,1.661,0,0,0-1.021-.109,10.538,10.538,0,0,0-2.595.327c-.226-.879-1.247-.436-1.808-.77-.46-.327,0-.763-.125-1.2-.452-.988-1.356-.988-2.486-1.416a1.753,1.753,0,0,0-.795.327,2.372,2.372,0,0,0-.678.436,2.25,2.25,0,0,1-.678.444.636.636,0,0,0-.343.545c0,.117,0,.226.226.335.343,0,.795.218,1.021-.218.226-.117.678-.226.795,0a15.045,15.045,0,0,0,.226,3.284,4.6,4.6,0,0,1-1.247.77c-.795.218-1.706.327-2.493.552-.452.109-.795.218-1.247.327a2.961,2.961,0,0,1-1.356.218,2.217,2.217,0,0,1-1.473,0,1.564,1.564,0,0,0,.226-.654c.226-.226.343-.335.569-.552.226-.109.109-.552.109-.77-.452-.327-.9.109-1.13.327-.686.879-1.706,1.323-2.267,2.3.226.988,1.021,1.432,1.7,2.078.912,1.1,2.158.226,3.171,0l.117.109c-.678,1.86-1.7,3.51-1.356,5.6a26.785,26.785,0,0,1-5.2,3.727,2.017,2.017,0,0,0-.569,1.969c.109.327.335.77.795.545,1.691-1.525,3.623-2.622,5.2-4.264.226,0,.452-.109.569,0,1.021,2.3,3.623,3.727,5.883,4.264.9.117,1.808-1.307,1.808-2.078a8.875,8.875,0,0,1-.335-1.416c.109-.335-.117-.77.335-1,.226-.109,1.254.335,1.48.444a16.872,16.872,0,0,1,2.486.988,4.774,4.774,0,0,1,1.808.988c-.117.552-.678.444-1.13.552-.226.109-.787.218-.561.654.109.552.561.552,1.013.444a1.647,1.647,0,0,1,.678-.218,10.338,10.338,0,0,1,1.589.327c.795,0,1.925.218,2.376-.552.335-.436.109-1.416-.117-1.86ZM128.234,10.4c.46-.109.577.335,1.029.226a1.551,1.551,0,0,1-1.254.654Zm-7.916,10.739-.226-.545a16.577,16.577,0,0,1,1.473-3.953c.452-.988,2.041-.77,2.719-1.307h.678c0,.436-.452.988-.678,1.416a35.68,35.68,0,0,1-3.966,4.381Zm4.535,4.934c-1.473.436-2.493-.988-3.4-1.533l-.226-.444a22.875,22.875,0,0,1,3.966-.218A2.574,2.574,0,0,1,124.852,26.072Zm.452-3.51c-.117.327-.569.436-.9.436h-1.239a2.376,2.376,0,0,0-.8-.109h-1.021l3.849-3.618A10.5,10.5,0,0,1,125.3,22.562Z" transform="translate(520.903 -279.519)"/>
    <path id="パス_180" data-name="パス 180" d="M22.855,10.347A5.333,5.333,0,0,0,17.533,5.08c-2.493,0-3.062,1.1-5.1,1.1-1.808,0-2.61-1.1-5.1-1.1A5.328,5.328,0,0,0,2.02,10.347V14.4H22.855V10.347Z" transform="translate(545.554 -279.12)"/>
    <path id="パス_181" data-name="パス 181" d="M23.991,18.9a1.073,1.073,0,0,1-.9.99H1.021A1.079,1.079,0,0,1,0,18.9a.982.982,0,0,1,1.021-.88H23.087a.956.956,0,0,1,.9.88Z" transform="translate(546 -281.99)"/>
    <path id="パス_182" data-name="パス 182" d="M14.757.01a2.248,2.248,0,1,0,0,4.5,2.248,2.248,0,1,0,0-4.5Zm0,3.179a.957.957,0,0,1-.9-.88.983.983,0,0,1,.9-.99.908.908,0,0,1,.9.99A.879.879,0,0,1,14.757,3.189Z" transform="translate(543.242 -278)"/>
    <path id="パス_183" data-name="パス 183" d="M2.03,21.4v4.052A5.231,5.231,0,0,0,7.352,30.61c2.322,0,3.179-.849,4.753-.966v-.787a5.634,5.634,0,0,1-2.158-.226,1.3,1.3,0,0,1-.569-1.644,1.187,1.187,0,0,1,1.706-.436,2.8,2.8,0,0,1,1.356,1.418A4.147,4.147,0,0,1,13.8,26.55a1.179,1.179,0,0,1,1.7.436c.351.553.109,1.2-.569,1.644a5.579,5.579,0,0,1-2.151.226v.764h0c1.769.109,2.408.99,4.753.99a5.236,5.236,0,0,0,5.322-5.158V21.4H2.03Z" transform="translate(545.552 -282.744)"/>
    <path id="パス_184" data-name="パス 184" d="M4.64,37.474l.8-.444h.117v3.078l.109.109h.343v.109H4.757v-.109h.226a.107.107,0,0,0,.109-.109V37.474Z" transform="translate(544.975 -286.203)"/>
    <path id="パス_185" data-name="パス 185" d="M12.19,38.779v-.545a.612.612,0,0,0-.125-.444.55.55,0,0,0-.226-.436c0-.109-.117-.109-.343-.109a.441.441,0,0,0-.343.109,1.181,1.181,0,0,0-.109.655.915.915,0,0,0,.226.771c0,.109.226.109.343.109h.226C11.948,38.888,12.065,38.779,12.19,38.779ZM10.6,40.423v-.109c.226,0,.452-.109.678-.109a2.265,2.265,0,0,0,.452-.553.983.983,0,0,0,.343-.771.83.83,0,0,1-.678.226c-.226,0-.452,0-.569-.226a1.567,1.567,0,0,1-.226-.655,1.5,1.5,0,0,1,.226-.771.854.854,0,0,1,.795-.444,1,1,0,0,1,.686.335,1.729,1.729,0,0,1,.343.99,2.1,2.1,0,0,1-.226.99,2.71,2.71,0,0,1-.8.771,1.236,1.236,0,0,1-.795.327H10.6Z" transform="translate(543.659 -286.199)"/>
    <path id="パス_186" data-name="パス 186" d="M16.99,37.682a1.516,1.516,0,0,1,.343-.436,1.167,1.167,0,0,1,.569-.226.807.807,0,0,1,.678.335.384.384,0,0,1,.117.327c0,.218-.117.444-.452.771a.468.468,0,0,1,.452.327.677.677,0,0,1,.109.444A.923.923,0,0,1,18.58,40a1.449,1.449,0,0,1-1.021.436c-.226,0-.343-.109-.452-.109a.307.307,0,0,1-.117-.218V40h.343l.117.109h.226a.321.321,0,0,0,.226.109A.9.9,0,0,0,18.354,40a.687.687,0,0,0,.109-.444v-.327c-.109-.109-.109-.218-.226-.218,0-.117-.109-.117-.226-.226h-.452v-.109c.109,0,.226-.109.343-.109l.335-.327V37.9c0-.109,0-.327-.109-.327-.109-.109-.226-.218-.343-.218-.335,0-.452.109-.678.436l-.117-.109Z" transform="translate(542.248 -286.201)"/>
    <path id="パス_187" data-name="パス 187" d="M24.6,39.118V37.583l-1.13,1.535Zm.9,0v.327h-.452v.88H24.6v-.88H23.24v-.218l1.473-2.2h.335v2.088Z" transform="translate(540.868 -286.203)"/>
  </g>
</svg>
