<?xml version="1.0" encoding="utf-8"?>
<!-- Generator: Adobe Illustrator 27.0.0, SVG Export Plug-In . SVG Version: 6.00 Build 0)  -->
<svg version="1.1" id="レイヤー_1" xmlns="http://www.w3.org/2000/svg" xmlns:xlink="http://www.w3.org/1999/xlink" x="0px"
	 y="0px" viewBox="0 0 134 204" style="enable-background:new 0 0 134 204;" xml:space="preserve">
<g>
	<path d="M118.8,1.7c-0.1,0.2-0.3,0.4-0.8,0.4c5.6,2,3.8,4.8,2.4,3.8C120,5,119,3.7,117.8,2.5c-1.1,2.2-3,4.9-5.2,6.5l-0.3-0.2
		c1.8-2,3.5-5.6,4.2-7.9L118.8,1.7z M118.1,17.9c1.3-0.3,2.6-0.6,4-0.9l0.1,0.3c-1.7,0.8-4.2,1.8-7.7,3.2c-0.1,0.3-0.3,0.5-0.5,0.6
		l-1.2-2.1c0.8-0.1,2.1-0.4,3.7-0.7v-6.9h-3.3l-0.2-0.6h3.5V7.9h-1.8l-0.2-0.6h3.9l1-1.3c0,0,1.1,0.9,1.8,1.6
		c-0.1,0.2-0.3,0.4-0.6,0.4h-2.5v2.8h1l1-1.4c0,0,1.1,0.9,1.8,1.6c0,0.2-0.3,0.4-0.6,0.4h-3.2L118.1,17.9L118.1,17.9z M113.9,12.4
		c3.1,3,1.5,5.9,0.2,4.5c0.2-1.4-0.2-3.2-0.5-4.4L113.9,12.4z M118.8,16.7c0.3-1.1,0.6-2.9,0.7-4.4l2.2,0.7
		c-0.1,0.3-0.3,0.5-0.8,0.5c-0.5,1.1-1.2,2.5-1.8,3.4L118.8,16.7z M128.6,1.4c-0.1,0.2-0.3,0.3-0.8,0.4c1.1,2.3,3.5,4.3,5.7,5.5v0.3
		c-0.7,0.2-1.2,0.8-1.4,1.5c-2-1.7-3.8-4.3-4.6-7c-1.3,2.9-4,5.7-6.7,7.3l-0.2-0.3c2.2-2,4.7-5.7,5.3-8.3L128.6,1.4z M130.6,10.5
		l1.9,1.4c-0.1,0.2-0.4,0.3-0.8,0.4v4.5c0,1.3-0.2,2-2.2,2.2c0-0.5-0.1-1-0.4-1.3c-0.2-0.3-0.6-0.4-1.4-0.6v-0.3
		c0,0,1.5,0.1,1.9,0.1c0.3,0,0.4-0.1,0.4-0.4V12h-3.4v8.6c0,0.1-0.5,0.5-1.4,0.5h-0.3V12h-2.7l-0.2-0.6h7.8L130.6,10.5z M128.6,6.8
		c0,0,1.2,0.9,2,1.7c0,0.2-0.3,0.4-0.6,0.4h-6.6l-0.2-0.7h4.3L128.6,6.8z"/>
	<path d="M124.3,29.1c2,4.2,5.7,7.7,9.2,9.4l-0.1,0.2c-0.7,0.1-1.4,0.7-1.7,1.5c-3.4-2.2-6.2-6-7.8-10.9v13.1c0,0.2-0.8,0.7-1.5,0.7
		H122V31.3c-2,3.7-5.2,7-9.2,9.3l-0.3-0.3c3.7-2.8,6.8-7.1,8.3-11.2h-7.6l-0.2-0.6h8.9v-5.6l2.6,0.3c0,0.3-0.2,0.5-0.8,0.6v4.7h5.6
		l1.3-1.6c0,0,1.5,1.1,2.3,1.9c-0.1,0.2-0.3,0.4-0.6,0.4L124.3,29.1L124.3,29.1z"/>
	<path d="M124,45.6c0,0.3-0.2,0.6-0.8,0.6c0.5,8.2,2.5,13.8,10.1,17.1v0.2c-0.9,0.1-1.6,0.6-1.8,1.6c-5.8-3.2-7.7-8.3-8.3-15
		c-0.4,5.4-2,11-9.9,15l-0.3-0.4c8.5-5.6,8.4-12.7,8.5-19.5L124,45.6z"/>
	<path d="M122.3,76v10.5c0,0.1-0.5,0.6-1.4,0.6h-0.3V76h-3.1c0,3.9-0.5,8.3-4.4,11.2l-0.3-0.2c2.5-3.2,2.9-7.2,2.9-11H113l-0.2-0.6
		h2.9v-6h-2.2l-0.2-0.6h9l1.1-1.4c0,0,1.3,1,2,1.7c-0.1,0.2-0.3,0.4-0.6,0.4h-2.6v6h0.6l1.1-1.5c0,0,1.2,1,2,1.7
		c-0.1,0.2-0.3,0.4-0.6,0.4L122.3,76L122.3,76z M120.5,75.3v-6h-3.1v6H120.5z M133.5,79.7c-0.2,0.2-0.4,0.3-0.9,0.2
		c-2.5,3.6-5.7,5.8-9.8,7.2l-0.2-0.4c3.6-1.8,6.3-4.4,8.4-8.3L133.5,79.7z M123.8,79.7c2.8-1.7,5.1-3.9,6.9-6.8l2.4,1.3
		c-0.1,0.2-0.3,0.3-0.8,0.2c-2.2,2.5-5,4.4-8.3,5.6L123.8,79.7z M124.6,73.6c2.4-1.6,4.4-3.9,6-6.4l2.3,1.4
		c-0.1,0.2-0.3,0.3-0.8,0.2c-1.9,2.1-4.5,4-7.3,5.2L124.6,73.6z"/>
	<path d="M73.6,2.4c-0.1,0.5-0.3,0.9-1.2,1c0.7,12.7,3.8,21.2,15.5,26.3l-0.1,0.4c-1.4,0.2-2.4,1-2.8,2.5
		c-9-4.9-11.9-12.8-12.9-23.2c-0.6,8.4-3.1,17-15.3,23.2l-0.4-0.5c13.2-8.6,13-19.6,13-30.1L73.6,2.4z"/>
	<path d="M70.9,49.4v16.1c0,0.2-0.8,0.9-2.2,0.9h-0.5v-17h-4.8c-0.1,6-0.8,12.7-6.8,17.4l-0.4-0.4c3.9-4.9,4.5-11.1,4.6-17h-4.2
		l-0.3-1h4.5v-9.2h-3.5l-0.3-1h13.9l1.7-2.2c0,0,1.9,1.6,3.2,2.7c-0.1,0.4-0.4,0.5-0.9,0.5h-4v9.2h1l1.7-2.2c0,0,1.9,1.6,3,2.7
		c-0.1,0.4-0.4,0.5-0.9,0.5H70.9z M68.2,48.4v-9.2h-4.8v9.2H68.2z M88.2,55.1c-0.2,0.3-0.6,0.5-1.3,0.3c-3.8,5.6-8.9,9-15.2,11.2
		L71.5,66c5.5-2.8,9.8-6.7,13-12.8L88.2,55.1z M73.2,55.1c4.2-2.5,8-6.1,10.7-10.5l3.6,2C87.3,47,87,47.1,86.2,47
		c-3.4,3.9-7.8,6.8-12.7,8.7L73.2,55.1z M74.5,45.8c3.6-2.5,6.9-5.9,9.3-9.9l3.5,2.1c-0.2,0.4-0.5,0.4-1.3,0.3c-3,3.3-7,6.1-11.2,8
		L74.5,45.8z"/>
	<path d="M72,88.3c-1.8,0-3.3-1.5-3.3-3.3s1.5-3.3,3.3-3.3s3.3,1.5,3.3,3.3S73.8,88.3,72,88.3z"/>
	<path d="M81.7,111.6c-1.5,5.5-4,10.1-7.9,13.9c3.9,3.1,8.6,5.1,14,6.4l-0.1,0.4c-1.4,0.1-2.4,1-3,2.3c-5.1-1.7-9.3-4-12.7-7.4
		c-3.9,3.2-8.9,5.7-15.3,7.3l-0.2-0.4c5.9-2.1,10.5-5,14-8.5c-3.1-3.7-5.4-8.3-6.6-14.1h-7l-0.3-1h14v-7.2l4,0.4
		c-0.1,0.5-0.4,0.8-1.2,0.9v5.9h8.7L84,108c0,0,2.2,1.8,3.5,3c-0.1,0.4-0.4,0.5-0.9,0.5L81.7,111.6L81.7,111.6z M64.6,111.6
		c1.5,5.1,4,9.2,7.4,12.4c3.1-3.6,5.1-7.8,6.3-12.4H64.6z"/>
	<path d="M56.1,154.7c3.2-4.1,6.6-10.7,8.5-17.4l4.2,1.4c-0.1,0.4-0.6,0.7-1.4,0.6c-1.1,2.7-2.3,5.1-3.7,7.4l1.2,0.5
		c-0.1,0.3-0.5,0.5-1.1,0.6v20.1c0,0.2-1.2,0.7-2.2,0.7h-0.5v-18.3c-1.4,1.8-3,3.4-4.6,4.8L56.1,154.7z M86.4,164.6
		c1,0.4,1.2,0.7,1.2,1.3c0,1.4-1.5,1.8-7.9,1.8h-4.2c-3.3,0-4.4-0.7-4.4-3.3v-26.5l4,0.4c-0.1,0.5-0.4,0.8-1.3,1V152
		c3.6-2.6,7.3-6.2,9.2-8.9l3.5,2.4c-0.2,0.3-0.6,0.4-1.3,0.2c-2.6,2.3-7,5.1-11.4,7.1v10.7c0,1,0.4,1.3,2.1,1.3h3.9
		c1.8,0,3.1,0,3.7-0.1c0.4-0.1,0.6-0.2,0.9-0.6c0.4-0.7,0.9-3.2,1.5-6h0.4L86.4,164.6z"/>
	<path d="M60.7,194.4l3.4,1.6c-0.2,0.3-0.5,0.5-1.2,0.4c-1.4,2-3.8,4.6-6.6,6.1l-0.3-0.4c1.9-1.9,3.6-5,4.4-7.3
		c-0.3,0.2-1,0.5-1.8,0.5h-0.4v-23.1l3,1.2h5.3l1.3-1.6l2.9,2.2c-0.2,0.3-0.6,0.5-1.4,0.6V194c0,0.2-1,0.7-2.2,0.7h-0.4V193h-5.8
		v1.4H60.7z M60.7,174.5v5h5.8v-5H60.7z M66.5,185.7v-5.2h-5.8v5.2H66.5z M66.5,192v-5.3h-5.8v5.3H66.5z M64.8,194.7
		c7.6,2.8,5,8.4,2.3,6.3c-0.2-2.1-1.5-4.5-2.8-6.1L64.8,194.7z M85.5,177.4c0,0,1.8,1.6,2.8,2.7c-0.1,0.4-0.4,0.5-0.9,0.5h-4.8v18.2
		c0,2.1-0.4,3.4-4.2,3.7c-0.1-0.8-0.3-1.5-0.8-1.9c-0.5-0.5-1.5-0.8-3.2-1.1V199c0,0,3.8,0.3,4.6,0.3c0.7,0,0.9-0.2,0.9-0.7V186
		c-2.5,4.2-6.1,7.7-10.7,10.4l-0.4-0.4c4.9-3.8,8.4-9.5,10.3-15.3h-9.2l-0.3-1h10.3v-8.2l3.9,0.4c0,0.5-0.4,0.8-1.2,0.9v6.8h1.3
		L85.5,177.4z"/>
	<path d="M11,2.5C10.9,3,10.5,3.2,9.7,3.2C8.9,5.8,8,8.2,7,10.5l1.5,0.6c-0.1,0.3-0.4,0.5-1.1,0.6v20.2c0,0.2-1.1,0.8-2.1,0.8H4.9
		V14.3c-1.1,1.7-2.2,3.3-3.4,4.6L1,18.6C3.5,14.3,5.8,7.7,7.1,1.3L11,2.5z M12.4,27.8c0,0.3-1.1,0.9-2,0.9H9.9V6.5l3.6,0.4
		c-0.1,0.4-0.4,0.7-1.1,0.8V27.8z M11.9,32.1c7-1.7,12.8-4.2,17.4-10l3.4,2c-0.2,0.3-0.6,0.4-1.4,0.2c-5.4,5.2-11.6,7.2-19.3,8.3
		L11.9,32.1z M28.3,6.7c-1.1,2.1-2.5,3.9-4.3,5.5c2.4,1.3,5.3,2.1,9,2.6l-0.1,0.4c-1,0.3-1.7,1.1-1.9,2.4c-3.8-0.9-6.5-2.2-8.7-4
		c-2.6,1.8-5.7,3.1-9.2,4.1l-0.2-0.5c3.3-1.3,6-2.9,8.2-4.9c-1.2-1.3-2.2-2.8-3-4.4c-1.4,1.8-3,3.4-4.7,4.5L12.9,12
		c2.2-2.4,4.4-6.5,5.7-10.7l3.6,1.4C22,3,21.6,3.3,20.9,3.2c-0.4,0.9-0.9,1.7-1.4,2.5h8.2l1.7-2.2c0,0,1.9,1.5,3.1,2.7
		c-0.1,0.4-0.4,0.5-0.9,0.5H28.3z M25.7,17.5c-0.2,0.3-0.5,0.4-1.2,0.2c-2.9,1.9-6.6,3.5-10.2,4.4L14,21.5c3.2-1.4,6.4-3.5,8.8-5.9
		L25.7,17.5z M14,26.7c4.5-1.8,8.8-4.4,12.2-8l3,1.9c-0.3,0.3-0.5,0.4-1.3,0.2c-3.8,3-8.7,5.1-13.7,6.4L14,26.7z M18.5,7.2
		c1,1.5,2.2,2.8,3.7,3.9c1.2-1.3,2.2-2.8,2.9-4.4h-6.2L18.5,7.2z"/>
	<path d="M12.3,43.4c-0.2,0.4-0.5,0.5-1.3,0.4c-0.8,1.3-1.8,2.7-3,4.1l1.3,0.5c-0.1,0.3-0.4,0.5-1,0.6v16.8c0,0.2-1.1,1-2.2,1H5.6
		V50.5C4.3,51.8,2.9,53,1.4,54L1,53.5c3.3-3.3,6.2-8.4,7.6-11.9L12.3,43.4z M11.6,37c-0.2,0.4-0.5,0.5-1.3,0.4
		C8.5,39.8,5.2,43,1.6,45l-0.4-0.4C4,42,6.8,38.1,8.1,35.3L11.6,37z M30.4,55.7c-0.3,0.3-0.6,0.4-1.5,0.4c-1.3,2-2.8,3.7-4.8,5.2
		c2.7,1.2,5.8,2,9.2,2.4v0.4c-1.2,0.3-1.9,1.2-2.2,2.4c-3.5-0.9-6.5-2.1-8.9-3.9c-3.2,1.9-7.2,3.3-12,4.1L10,66.2
		c4.2-1.1,7.9-2.7,10.7-4.8c-1.2-1.1-2.2-2.4-3-4c-2,1.9-4.4,3.6-7,4.7l-0.3-0.4c3.5-2.2,6.8-6.3,8.5-9.9h-1.5v0.7
		c0,0.3-1.2,0.8-2.2,0.8h-0.4v-9.5c-1.2,1.3-2.4,2.3-3.7,3.2l-0.4-0.4c2.3-2.6,4.6-6.9,5.8-11.5l4,1.2C20.4,36.7,20,37,19.2,37
		c-0.3,0.7-0.7,1.4-1.1,2.1h9.6l1.8-2.3c0,0,2,1.6,3.3,2.8c-0.1,0.4-0.4,0.5-0.9,0.5H17.6c-0.4,0.7-0.9,1.4-1.4,2.1l1.5,0.6h9
		l1.4-1.5l2.9,2.2c-0.2,0.2-0.7,0.5-1.3,0.6v7.8c0,0.2-1.3,0.8-2.2,0.8H27v-1.2h-7.6l3.3,1c-0.2,0.3-0.4,0.5-1.3,0.4
		c-0.4,0.6-0.8,1.1-1.2,1.7H26l1.7-1.6L30.4,55.7z M17.5,43.9v2.9H27v-2.9H17.5z M17.5,50.8H27v-3h-9.5V50.8z M19.3,55.8
		c-0.3,0.3-0.6,0.7-1,1.1c1,1.4,2.3,2.5,3.8,3.5c1.5-1.3,2.8-2.9,3.7-4.5L19.3,55.8L19.3,55.8z"/>
	<g>
		<path d="M9.3,72.2c0.1-0.6,0.9-1.3,1.9-1.3c2,0,4.5,0.9,4.5,2.3c0,0.5-0.3,0.6-0.5,1c-0.5,0.6-0.8,5.8-0.9,7.1
			c3.2-0.8,8.9-2.3,10.7-2.9c0.6-0.2,0.9-0.4,1.2-0.7c0.4-0.5,0.7-1,1.2-1c0.9,0,3.9,2.2,3.9,2.9c0,0.4-0.5,0.6-1.1,0.8
			c-0.4,0.1-0.7,0.2-0.9,0.6c-1.3,2-4.3,5.6-7.2,7.8l-0.6-0.4c2.9-3.5,4.6-8.2,4.6-8.5c0-0.1,0-0.2-0.2-0.2c-0.2,0-6.1,1.6-11.7,3.5
			c-0.1,1.9-0.2,3.8-0.2,5.6c0,6.3,0.7,7,5.6,7c2.6,0,5.6-0.1,7.1-1c1.8,0.4,3.5,0.9,3.5,1.9c0,1-1.5,1.3-3.5,1.5
			c-1.7,0.1-5.8,0.1-7.7,0.1c-5.6,0-7.4-2.1-7.4-8.5c0-1.5,0-3.8,0.1-5.6c-3.2,1.1-4,1.4-4.7,2c-0.2,0.2-0.6,0.6-1.2,0.6
			c-1.4,0-3.6-2-3.6-3.7c0-0.9,0.5-1.7,0.8-1.7c0.3,1.9,2,1.9,2.7,1.9c1.3,0,2.7-0.4,6.1-1.2c0.1-1.4,0.3-6.3,0.3-7.1
			C12,73.4,11.9,72.3,9.3,72.2L9.3,72.2z"/>
		<path d="M4.9,106.7c4.3,0.5,10.1,2.5,10.1,5.7c0,0.9-0.7,1.6-1.6,1.6c-0.7,0-1.5-0.8-2-1.5c-1.1-1.6-3.6-4-6.7-5.1L4.9,106.7z
			 M32.2,109.3c-4.4,10-12,16.6-20.7,20.8c-1.6,0.8-1.6,1.7-2.4,1.7c-1.5,0-4.2-2.4-4.2-4.3c0-0.6,0.4-1.3,0.9-1.6
			c0.3,1.3,1.3,2.1,2.5,2.1c2.7,0,16.5-7.2,23.1-19.1L32.2,109.3z"/>
		<path d="M4.4,151.6c6.6-5.4,9.8-12.7,9.8-14.2c0-0.9-1.4-1.2-2.1-1.2c0.2-0.7,0.8-1.1,1.8-1.1c1.6,0,4.6,1.4,4.6,2.4
			c0,0.4-0.4,0.6-0.7,0.8c-0.3,0.2-0.6,0.5-0.9,1.2c-0.3,0.6-0.5,1.1-0.9,1.7c0.3,0.1,0.7,0.1,1,0.1c1.2,0,5.1-0.2,7.1-0.5
			c0.8-0.1,0.9-0.2,1.3-0.6c0.3-0.2,0.8-0.7,1-0.7c0.8,0,3.2,2.2,3.2,2.8c0,0.5-0.4,0.6-0.8,0.8c-0.4,0.2-0.9,0.4-1.1,0.9
			c-1,2.3-2.9,6-4.3,8c1.4,0.9,3.8,2.5,3.8,4.2c0,0.9-0.7,1.5-1.5,1.5c-0.8,0-1.4-0.9-2-1.6c-0.5-0.6-1.3-1.2-1.9-1.6
			c-3.2,4-8.7,8.4-15.7,10.7l-0.5-0.7c5.8-2.7,11.1-7.4,14.1-11.6c-1.6-1.1-4.1-2.5-7.4-3.5l0.3-0.7c3.2,0.4,6.5,1.4,8.4,2.2
			c2.9-4.3,4.1-8.4,4.1-8.6c0-0.1-0.1-0.2-0.2-0.2c-1.3,0-7.2,1.1-8.1,1.1c-0.5,0-1.1-0.2-1.5-0.5c-2.3,3.5-5.4,6.8-10.1,9.5
			L4.4,151.6z"/>
		<path d="M18.2,193.6c0,2.5-0.1,4.3-1.3,4.3h0c-1.1,0-1.4-2.3-1.7-4c0.3-0.8,0.4-7,0.4-10.7c0-2.9,0-6.9-0.1-9.6
			c0-2.2-0.3-3.3-0.9-3.6c-0.5-0.4-1.2-0.6-1.9-0.5l0-0.1c0.4-0.8,1.3-1.1,2.1-1.1c1.6,0,4.7,1.5,4.7,3.1c0,0.6-0.3,0.8-0.5,1.3
			c-0.3,0.5-0.4,1.4-0.5,3c-0.1,2.7-0.1,5.4-0.1,7.9V193.6z"/>
	</g>
</g>
</svg>
